<svg width="30" height="30" viewBox="0 0 30 30" fill="none" xmlns="http://www.w3.org/2000/svg">
<path fill-rule="evenodd" clip-rule="evenodd" d="M4.93451 1.53535C5.71085 0.564914 6.88623 0 8.12898 0H21.871C23.1138 0 24.2891 0.564914 25.0655 1.53533L29.1035 6.58293C29.3755 6.92288 29.5895 7.30152 29.7401 7.70348C29.9107 8.15915 30 8.64494 30 9.13849V25.9091C30 28.1685 28.1685 30 25.9091 30H4.09091C1.83157 30 0 28.1685 0 25.9091V9.13849C0 8.64494 0.0892636 8.15915 0.25995 7.70348C0.410509 7.30152 0.624477 6.92288 0.896441 6.58293L4.93451 1.53535ZM8.12898 2.72727C7.71473 2.72727 7.32293 2.91558 7.06415 3.23906L4.20085 6.81818H25.7992L22.9358 3.23905C22.677 2.91558 22.2852 2.72727 21.871 2.72727H8.12898ZM27.2727 9.54545H2.72727V25.9091C2.72727 26.6622 3.3378 27.2727 4.09091 27.2727H25.9091C26.6622 27.2727 27.2727 26.6622 27.2727 25.9091V9.54545ZM10.9091 13.6364C10.9091 12.8832 11.5196 12.2727 12.2727 12.2727H17.7273C18.4804 12.2727 19.0909 12.8832 19.0909 13.6364C19.0909 14.3895 18.4804 15 17.7273 15H12.2727C11.5196 15 10.9091 14.3895 10.9091 13.6364Z" fill="#293644"/>
</svg>
