<svg width="18" height="18" viewBox="0 0 18 18" fill="none" xmlns="http://www.w3.org/2000/svg">
<path fill-rule="evenodd" clip-rule="evenodd" d="M18 8.86317C18 9.25151 17.6852 9.5663 17.2969 9.5663C16.9085 9.5663 16.5938 9.25151 16.5938 8.86317V5.34755C16.5938 4.57214 15.9629 3.9413 15.1875 3.9413H15.0469V11.6713C15.0101 12.6036 13.6777 12.6043 13.6406 11.6713V2.8125C13.6406 2.03709 13.0098 1.40625 12.2344 1.40625H5.76562C4.99022 1.40625 4.35938 2.03709 4.35938 2.8125V11.6713C4.32257 12.6036 2.99025 12.6043 2.95312 11.6713V3.94126H2.8125C2.03709 3.94126 1.40625 4.57211 1.40625 5.34751V12.3788C1.40625 13.1542 2.03709 13.785 2.8125 13.785H15.1875C15.9629 13.785 16.5938 13.1542 16.5938 12.3788C16.5938 11.9904 16.9085 11.6756 17.2969 11.6756C17.6852 11.6756 18 11.9904 18 12.3788C18 13.9296 16.7383 15.1913 15.1875 15.1913H9.70312V16.5932H12.1641C13.0963 16.63 13.097 17.9623 12.1641 17.9995H5.83594C4.90373 17.9627 4.90303 16.6303 5.83594 16.5932H8.29688V15.1913H2.8125C1.26169 15.1913 0 13.9296 0 12.3788V5.34751C0 3.7967 1.26169 2.53501 2.8125 2.53501H2.96673C3.10651 1.11396 4.30843 0 5.76562 0H12.2344C13.6916 0 14.8935 1.11396 15.0333 2.53505H15.1875C16.7383 2.53505 18 3.79673 18 5.34755V8.86317ZM6.50391 8.01562H11.4922C12.4244 7.97885 12.4251 6.64653 11.4922 6.60938H6.50391C5.5717 6.64618 5.571 7.9785 6.50391 8.01562ZM6.50391 9.42188C5.571 9.459 5.5717 10.7913 6.50391 10.8281H8.64844C9.58134 10.791 9.58064 9.45868 8.64844 9.42188H6.50391ZM6.50391 3.79688H11.4922C12.4244 3.83368 12.4251 5.166 11.4922 5.20312H6.50391C5.5717 5.16632 5.571 3.834 6.50391 3.79688Z" fill="black"/>
</svg>
