<svg width="18" height="18" viewBox="0 0 18 18" fill="none" xmlns="http://www.w3.org/2000/svg">
<path fill-rule="evenodd" clip-rule="evenodd" d="M2.96071 0.921207C3.42651 0.338948 4.13174 0 4.87739 0H13.1226C13.8683 0 14.5735 0.338948 15.0393 0.921199L17.4621 3.94976C17.6253 4.15373 17.7537 4.38091 17.8441 4.62209C17.9464 4.89549 18 5.18696 18 5.48309V15.5455C18 16.9011 16.9011 18 15.5455 18H2.45455C1.09894 18 0 16.9011 0 15.5455V5.48309C0 5.18696 0.0535582 4.89549 0.15597 4.62209C0.246305 4.38091 0.374686 4.15373 0.537865 3.94976L2.96071 0.921207ZM4.87739 1.63636C4.62884 1.63636 4.39376 1.74935 4.23849 1.94344L2.52051 4.09091H15.4795L13.7615 1.94343C13.6062 1.74935 13.3711 1.63636 13.1226 1.63636H4.87739ZM16.3636 5.72727H1.63636V15.5455C1.63636 15.9973 2.00268 16.3636 2.45455 16.3636H15.5455C15.9973 16.3636 16.3636 15.9973 16.3636 15.5455V5.72727ZM6.54545 8.18182C6.54545 7.72994 6.91177 7.36364 7.36364 7.36364H10.6364C11.0882 7.36364 11.4545 7.72994 11.4545 8.18182C11.4545 8.6337 11.0882 9 10.6364 9H7.36364C6.91177 9 6.54545 8.6337 6.54545 8.18182Z" fill="#293644"/>
</svg>
