<svg width="34" height="39" viewBox="0 0 34 39" fill="none" xmlns="http://www.w3.org/2000/svg">
<path d="M21.9789 3.61894C21.4446 3.1818 20.9103 2.74465 20.4003 2.28323C19.8174 1.72465 19.6717 1.06894 20.3031 0.461797C20.8617 -0.0967746 21.4931 0.000368237 22.0274 0.534654C23.3146 1.79751 24.5774 3.06037 25.8403 4.34751C26.4231 4.95465 26.3989 5.63465 25.816 6.21751C24.6017 7.48037 23.3631 8.69465 22.1003 9.93323C21.5417 10.4918 20.886 10.6375 20.2546 10.0304C19.6231 9.37465 19.866 8.74323 20.4246 8.20894C20.9103 7.72323 21.4446 7.28608 21.9546 6.84894C21.8817 6.72751 21.8331 6.60608 21.7603 6.50894C19.696 6.50894 17.6317 6.50894 15.5674 6.50894C14.7174 6.50894 13.8674 6.46037 13.8189 5.36751C13.7946 4.2018 14.6689 4.08037 15.5917 4.08037C17.6317 4.08037 19.6717 4.08037 21.7117 4.08037C21.8331 3.88608 21.906 3.76465 21.9789 3.61894Z" fill="#333333"/>
<path fill-rule="evenodd" clip-rule="evenodd" d="M9.98145 34.778C9.98145 32.738 11.7543 30.9651 13.8186 31.0137C15.81 31.0622 17.5343 32.8351 17.4857 34.8022C17.4614 36.7451 15.6643 38.518 13.7214 38.518C11.7786 38.518 10.0057 36.7451 9.98145 34.778ZM12.4343 34.8022C12.4343 35.6037 12.9929 36.1137 13.77 36.0894C14.5714 36.0651 15.0086 35.5308 15.1057 34.7294C14.96 33.9765 14.5229 33.4422 13.7214 33.4665C12.92 33.4908 12.41 34.0008 12.4343 34.8022Z" fill="#333333"/>
<path fill-rule="evenodd" clip-rule="evenodd" d="M22.5859 34.7537C22.5859 32.6651 24.3588 30.9651 26.4474 31.0137C28.4145 31.0623 30.1388 32.8837 30.0902 34.8266C30.0417 36.7937 28.2202 38.5423 26.2774 38.518C24.3102 38.4937 22.5859 36.7451 22.5859 34.7537ZM25.0388 34.8266C25.0631 35.6766 25.6217 36.0166 26.3745 36.1137C27.1517 35.9437 27.6859 35.4823 27.6617 34.6809C27.5888 33.928 27.1031 33.3937 26.2774 33.4423C25.4759 33.4909 25.0145 34.0009 25.0388 34.8266Z" fill="#333333"/>
<path d="M23.1443 25.6468C24.0186 25.7682 24.4314 25.2339 24.5043 24.4325C24.6743 22.9025 24.8443 21.3482 25.0143 19.8182C25.1114 18.9197 25.0629 17.9725 23.9214 17.8997C22.8043 17.8268 22.6343 18.7254 22.5614 19.6482C22.44 21.1297 22.2214 22.6354 22.0757 24.1168C22.0271 24.8697 22.27 25.5254 23.1443 25.6468Z" fill="#333333"/>
<path d="M17.8742 23.2906C17.7285 21.9063 17.6313 20.522 17.4613 19.1134C17.3885 18.4092 16.9999 17.8506 16.2228 17.8506C15.5428 17.8506 15.0328 18.2634 15.0813 18.9677C15.227 20.9106 15.4213 22.8292 15.6642 24.772C15.7613 25.4763 16.3199 25.7434 16.9999 25.6463C17.6556 25.5492 17.9228 25.0877 17.9713 24.4806C17.9713 24.092 17.8985 23.6792 17.8742 23.2906C17.8499 23.2906 17.8499 23.2906 17.8742 23.2906Z" fill="#333333"/>
<path fill-rule="evenodd" clip-rule="evenodd" d="M12.0458 13.3092H31.7172C33.6601 13.3092 34.0972 13.8192 33.6358 15.6407C33.2301 17.2184 32.8143 18.7929 32.3985 20.3677C31.6941 23.0349 30.9895 25.7032 30.3329 28.3907C29.9929 29.7507 29.3372 30.2849 27.9286 30.2364C26.0748 30.1683 24.209 30.1837 22.348 30.199C21.5517 30.2055 20.7562 30.2121 19.9629 30.2121C19.1933 30.2121 18.4236 30.2029 17.6539 30.1937C15.9222 30.173 14.1904 30.1523 12.4586 30.2364C10.8315 30.3335 10.0544 29.7507 9.66579 28.1235C8.95006 25.1811 8.18369 22.2531 7.41801 19.3277C6.78074 16.893 6.14395 14.46 5.53722 12.0221C5.31865 11.0749 4.93007 10.8078 4.0315 10.8807C3.42436 10.9327 2.81722 10.9228 2.21007 10.9129C1.96722 10.9089 1.72436 10.9049 1.4815 10.9049C0.680075 10.9049 0.072932 10.6378 0.0486463 9.73922C0.0243605 8.86494 0.558646 8.50065 1.38436 8.50065H5.87722C6.89722 8.47637 7.2615 9.13208 7.50436 9.9578C7.60394 10.3025 7.65761 10.6931 7.7111 11.0823C7.82721 11.9272 7.94245 12.7658 8.52436 13.1149C9.17281 13.5005 10.0995 13.4308 11.0124 13.3621C11.3645 13.3356 11.7145 13.3092 12.0458 13.3092ZM27.1272 27.7835C27.7344 27.7835 28.0015 27.6135 28.1472 27.0064C28.9187 23.9 29.7411 20.7937 30.5861 17.6022C30.7519 16.9762 30.9185 16.3468 31.0858 15.7135C23.9215 15.7135 16.8786 15.7135 9.83579 15.6892C9.03436 15.6892 9.08293 16.0292 9.22865 16.6121C10.1272 20.0364 11.0258 23.4849 11.9001 26.9092C12.0458 27.5407 12.3129 27.7835 13.0172 27.7835C17.7286 27.7592 22.4158 27.7592 27.1272 27.7835Z" fill="#333333"/>
</svg>
