<svg width="70" height="82" viewBox="0 0 70 82" fill="none" xmlns="http://www.w3.org/2000/svg">
<path d="M68.1922 0.00174139C68.1323 0.0159247 68.0737 0.0354268 68.0173 0.060061L62.1853 1.98461C61.9759 2.05049 61.7888 2.18556 61.6604 2.36368L58.9194 6.38774C56.3829 4.6151 53.32 3.55929 49.9965 3.55929C41.5205 3.55929 34.6002 10.3414 34.3669 18.7513H33.9878C31.7728 18.7513 29.9637 20.5603 29.9637 22.7754C29.9637 24.3613 30.8984 25.728 32.2382 26.3912C32.2426 26.3931 32.2338 26.4182 32.2382 26.4203C32.2293 26.4977 32.2293 26.5761 32.2382 26.6536L32.8214 34.2934C31.6676 34.1358 30.487 34.031 29.2931 34.031C21.2106 34.031 13.9163 37.769 8.64798 42.7206C3.37925 47.6723 0.0672587 53.8228 0.162436 59.108C0.164004 59.3782 0.272041 59.6369 0.463112 59.8279C0.654183 60.019 0.912877 60.127 1.18308 60.1285H29.2931H57.4321C57.7023 60.127 57.961 60.019 58.152 59.8279C58.3431 59.6369 58.4512 59.3782 58.4527 59.108C58.4527 58.0935 58.2956 57.0386 58.0445 55.9587H63.9056L63.264 66.835C63.1992 67.9234 62.7978 68.8727 62.2726 69.5177C61.7474 70.1627 61.124 70.5092 60.3773 70.5092V72.5504C61.7837 72.5504 63.0349 71.8636 63.8764 70.83C64.718 69.7964 65.2173 68.4268 65.3052 66.9517L67.7255 26.4201C69.0723 25.7595 70 24.3662 70 22.7751C70 20.5601 68.191 18.7511 65.9759 18.7511H65.5969C65.4753 14.3773 63.5699 10.4357 60.5523 7.67037L63.1474 3.82128L68.6586 2.01337C68.6882 2.00497 68.7174 1.99522 68.7461 1.98421C68.7855 1.97674 68.8245 1.96705 68.8627 1.95511C69.284 1.75536 69.525 1.24215 69.4168 0.788714C69.3085 0.335277 68.8622 -0.0107401 68.3961 0.00139967C68.3573 -0.000466557 68.3183 -0.000466557 68.2795 0.00139967C68.2503 0.000466557 68.2211 0.000466557 68.192 0.00139967L68.1922 0.00174139ZM49.9965 5.60042C52.9049 5.60042 55.5726 6.528 57.7822 8.07895L54.2539 13.2694C53.7846 13.9267 54.4457 15.0155 55.2454 14.9023C55.3462 14.8877 55.4448 14.8581 55.537 14.8149C55.7145 14.7331 55.8681 14.6 55.9744 14.4358L59.386 9.39125C61.8605 11.767 63.4395 15.0778 63.5559 18.7513H36.4079C36.6392 11.4507 42.6302 5.60002 49.9959 5.60002L49.9965 5.60042ZM33.988 20.7924H65.9761C67.0894 20.7924 67.959 21.662 67.959 22.7753C67.959 23.8886 67.0894 24.7582 65.9761 24.7582H33.988C32.8747 24.7582 32.0052 23.8886 32.0052 22.7753C32.0052 21.662 32.8747 20.7924 33.988 20.7924ZM34.3088 26.8286H65.6259L64.9844 37.705H42.9396C40.4656 36.331 37.7671 35.2662 34.9206 34.6432L34.3083 26.8284L34.3088 26.8286ZM29.2933 36.1014C36.7342 36.1014 43.5447 39.6244 48.48 44.3245C53.0349 48.6623 55.7886 53.9701 56.2073 58.059H29.2926H2.34891C2.68355 53.8269 5.45562 48.5235 10.0471 44.2078C14.9998 39.5533 21.8444 36.1014 29.2926 36.1014H29.2933ZM46.1183 39.7463H64.8683L64.0226 53.8886H57.4617C56.1054 50.1239 53.4296 46.2175 49.8802 42.8368C48.7211 41.7329 47.4616 40.706 46.1186 39.7459L46.1183 39.7463ZM1.00784 60.2748C0.798521 60.3057 0.603857 60.4004 0.450484 60.5462C0.29711 60.6919 0.19252 60.8816 0.151024 61.0891C0.109529 61.2965 0.133156 61.5117 0.218673 61.7052C0.30419 61.8987 0.447419 62.0611 0.62876 62.1701C0.62876 62.1701 1.81615 62.886 3.31146 63.599C4.80677 64.312 6.57782 65.0861 8.21031 65.0861C9.84279 65.0861 11.1351 64.2286 12.2636 63.5407C13.392 62.8527 14.3537 62.3159 15.2379 62.3159C16.122 62.3159 17.0837 62.8527 18.2122 63.5407C19.3406 64.2286 20.6329 65.0861 22.2654 65.0861C23.8979 65.0861 25.1902 64.2287 26.3187 63.5407C27.4471 62.8526 28.4089 62.3159 29.293 62.3159C30.1771 62.3159 31.1389 62.8526 32.2673 63.5407C33.3957 64.2287 34.6881 65.0861 36.3205 65.0861C37.953 65.0861 39.2453 64.2286 40.3738 63.5407C41.5022 62.8527 42.464 62.3159 43.3481 62.3159C44.2322 62.3159 45.2231 62.8527 46.3516 63.5407C47.48 64.2286 48.7432 65.0861 50.3757 65.0861C52.0081 65.0861 53.8083 64.312 55.3036 63.599C56.7989 62.886 57.9572 62.1701 57.9572 62.1701C58.1892 62.0271 58.3549 61.7977 58.4178 61.5325C58.4807 61.2673 58.4356 60.9879 58.2926 60.7559C58.1495 60.5239 57.9201 60.3582 57.6549 60.2953C57.3897 60.2324 57.1103 60.2775 56.8783 60.4206C56.8783 60.4206 55.7904 61.0697 54.3998 61.7327C53.0091 62.3958 51.2599 63.0158 50.3757 63.0158C49.4916 63.0158 48.5299 62.4791 47.4014 61.7911C46.273 61.103 44.9807 60.2748 43.3482 60.2748C41.7157 60.2748 40.4234 61.1031 39.2949 61.7911C38.1665 62.4791 37.2048 63.0158 36.3206 63.0158C35.4365 63.0158 34.4747 62.4791 33.3463 61.7911C32.2179 61.1031 30.9256 60.2748 29.2931 60.2748C27.6606 60.2748 26.3683 61.1031 25.2398 61.7911C24.1114 62.4791 23.1496 63.0158 22.2655 63.0158C21.3814 63.0158 20.4196 62.4791 19.2912 61.7911C18.1628 61.1031 16.8704 60.2748 15.238 60.2748C13.6055 60.2748 12.3132 61.103 11.1847 61.7911C10.0563 62.4791 9.09452 63.0158 8.2104 63.0158C7.32625 63.0158 5.57706 62.3958 4.18635 61.7327C2.79564 61.0697 1.70781 60.4206 1.70781 60.4206C1.49953 60.2897 1.25118 60.238 1.00798 60.2748H1.00784ZM0.891198 65.4069C0.639552 65.4404 0.409231 65.566 0.244718 65.7593C0.0802046 65.9527 -0.00683114 66.2 0.000419097 66.4538C0.00766933 66.7076 0.108691 66.9496 0.283975 67.1332C0.459259 67.3169 0.696371 67.429 0.949518 67.4481C0.735613 67.4807 0.537483 67.5801 0.383426 67.732C0.229369 67.884 0.127262 68.0807 0.0916903 68.2942C0.0561181 68.5076 0.0888995 68.7268 0.185352 68.9205C0.281804 69.1142 0.436995 69.2724 0.62876 69.3726C0.62876 69.3726 1.81615 70.0885 3.31146 70.8014C4.80677 71.5143 6.57782 72.2594 8.21031 72.2594C9.84279 72.2594 11.1351 71.4312 12.2636 70.7431C13.392 70.0551 14.3537 69.5184 15.2379 69.5184C16.122 69.5184 17.0837 70.0551 18.2122 70.7431C19.3406 71.4312 20.6329 72.2594 22.2654 72.2594C23.8979 72.2594 25.1902 71.4312 26.3187 70.7431C27.4471 70.0551 28.4089 69.5184 29.293 69.5184C30.1771 69.5184 31.1389 70.0551 32.2673 70.7431C33.3957 71.4312 34.6881 72.2594 36.3205 72.2594C37.953 72.2594 39.2453 71.4312 40.3738 70.7431C41.5022 70.0551 42.464 69.5184 43.3481 69.5184C44.2322 69.5184 45.2231 70.0551 46.3516 70.7431C47.48 71.4312 48.7432 72.2594 50.3757 72.2594C52.0081 72.2594 53.8083 71.5143 55.3036 70.8014C56.7989 70.0885 57.9572 69.3726 57.9572 69.3726C58.1373 69.2672 58.2811 69.1095 58.3693 68.9204C58.4576 68.7313 58.4863 68.52 58.4514 68.3142C58.4166 68.1085 58.32 67.9181 58.1744 67.7686C58.0288 67.6191 57.8412 67.5175 57.6364 67.4772C57.7724 67.4582 57.9034 67.4125 58.0217 67.3428C58.1401 67.2731 58.2435 67.1808 58.3262 67.0712C58.4089 66.9615 58.4691 66.8366 58.5035 66.7036C58.5378 66.5706 58.5457 66.4321 58.5265 66.2961C58.5073 66.1601 58.4616 66.0293 58.3918 65.911C58.3221 65.7927 58.2297 65.6893 58.1199 65.6067C58.0102 65.5241 57.8853 65.4639 57.7523 65.4297C57.6193 65.3954 57.4808 65.3876 57.3448 65.4069H1.09583C1.02796 65.4001 0.959581 65.4001 0.891711 65.4069H0.891198ZM1.24112 67.4481H57.3446C57.3637 67.4583 57.3831 67.468 57.4029 67.477C57.218 67.4775 57.0367 67.528 56.878 67.6229C56.878 67.6229 55.7901 68.2718 54.3995 68.935C53.0088 69.5981 51.2595 70.218 50.3754 70.218C49.4913 70.218 48.5295 69.6814 47.4011 68.9933C46.2727 68.3053 44.9803 67.477 43.3479 67.477C41.7154 67.477 40.4231 68.3053 39.2946 68.9933C38.1662 69.6814 37.2044 70.218 36.3203 70.218C35.4361 70.218 34.4744 69.6814 33.346 68.9933C32.2176 68.3053 30.9252 67.477 29.2927 67.477C27.6603 67.477 26.368 68.3053 25.2395 68.9933C24.1111 69.6814 23.1493 70.218 22.2652 70.218C21.381 70.218 20.4193 69.6814 19.2909 68.9933C18.1625 68.3053 16.8701 67.477 15.2376 67.477C13.6051 67.477 12.3129 68.3053 11.1844 68.9933C10.056 69.6814 9.0942 70.218 8.21007 70.218C7.32592 70.218 5.57673 69.5981 4.18602 68.935C2.79531 68.2718 1.70749 67.6229 1.70749 67.6229C1.5687 67.5272 1.40846 67.4671 1.24093 67.448L1.24112 67.4481ZM0.978677 72.8426C0.716189 72.8796 0.478186 73.0167 0.314497 73.2252C0.150809 73.4337 0.0741261 73.6975 0.100503 73.9613C0.12688 74.2251 0.254271 74.4683 0.456006 74.6403C0.657742 74.8123 0.91818 74.8995 1.1828 74.8838H57.4318C57.5751 74.8993 57.72 74.8844 57.8571 74.8402C57.9943 74.796 58.1205 74.7233 58.2278 74.6271C58.335 74.5308 58.4207 74.413 58.4794 74.2814C58.5381 74.1498 58.5685 74.0073 58.5685 73.8632C58.5685 73.7191 58.5381 73.5767 58.4794 73.4451C58.4207 73.3135 58.335 73.1956 58.2278 73.0994C58.1205 73.0031 57.9943 72.9305 57.8571 72.8863C57.72 72.842 57.5751 72.8272 57.4318 72.8426H1.1828C1.11493 72.8359 1.04655 72.8359 0.978677 72.8426ZM1.1828 75.2921C0.948871 75.3339 0.736706 75.4556 0.582493 75.6364C0.42828 75.8172 0.341573 76.0459 0.337162 76.2835C0.275427 78.1942 0.804745 79.6104 1.88258 80.3659C2.96052 81.1212 4.22367 81.1877 5.55672 81.2698C5.57615 81.2704 5.5956 81.2704 5.61504 81.2698H52.9705C54.0339 81.2698 55.2888 81.2605 56.4114 80.5408C57.534 79.818 58.2402 78.3653 58.2485 76.3127C58.247 76.0424 58.1389 75.7837 57.9479 75.5927C57.7568 75.4016 57.4981 75.2936 57.2279 75.2921H1.35771C1.32856 75.2908 1.29937 75.2908 1.27023 75.2921C1.24108 75.2908 1.2119 75.2908 1.18275 75.2921H1.1828ZM2.49494 77.3624H56.0612C55.911 78.1042 55.6465 78.5993 55.3031 78.8204C54.8129 79.1361 53.9536 79.2324 52.9703 79.2286H5.67266H5.61434C4.3704 79.1474 3.46267 78.9651 3.04828 78.6746C2.755 78.4691 2.59183 78.0403 2.49424 77.3624H2.49494Z" fill="#181F3F"/>
</svg>
