<svg width="70" height="70" viewBox="0 0 70 70" fill="none" xmlns="http://www.w3.org/2000/svg">
<path d="M69.685 27.5182C69.5108 27.1337 69.2685 26.7839 68.9698 26.4857L59.8126 17.3413C59.1529 16.6944 58.2656 16.3325 57.3416 16.3333H45.5V1.16667C45.5 0.522375 44.9776 0 44.3333 0H29.1667C28.5224 0 28 0.522375 28 1.16667V16.3333H23.3333V8.16666C23.3335 7.89337 23.2377 7.62868 23.0627 7.41883L17.2293 0.418833C16.7823 -0.0759791 16.0188 -0.114771 15.5238 0.332354C15.4935 0.359771 15.4646 0.388646 15.4373 0.418833L9.604 7.41883C9.429 7.62868 9.33318 7.89337 9.33333 8.16666V16.3333H3.5C1.56698 16.3333 0 17.9003 0 19.8333V66.5C0 68.433 1.56698 70 3.5 70H66.5C68.433 70 70 68.433 70 66.5V28.9683C70.0017 28.4678 69.8942 27.9729 69.685 27.5182ZM30.3333 58.3333H32.6667V56H30.3333V51.3333H32.6667V49H30.3333V44.3333H32.6667V42H30.3333V37.3333H32.6667V35H30.3333V30.3333H32.6667V28H30.3333V23.3333H32.6667V21H30.3333V16.3333H32.6667V14H30.3333V9.33333H32.6667V7H30.3333V2.33333H43.1667V63H30.3333V58.3333ZM16.3333 2.989L19.6758 7H12.9908L16.3333 2.989ZM11.6667 9.33333H15.1667V60.6666H17.5V9.33333H21V63H11.6667V9.33333ZM67.6666 66.5C67.6666 67.1443 67.1443 67.6666 66.5 67.6666H3.5C2.85571 67.6666 2.33333 67.1443 2.33333 66.5V19.8333C2.33333 19.189 2.85571 18.6667 3.5 18.6667H9.33333V64.1666C9.33333 64.8109 9.85571 65.3333 10.5 65.3333H22.1667C22.811 65.3333 23.3333 64.8109 23.3333 64.1666V18.6667H28V64.1666C28 64.8109 28.5224 65.3333 29.1667 65.3333H44.3333C44.9776 65.3333 45.5 64.8109 45.5 64.1666V18.6667H57.3416C57.6518 18.6675 57.9498 18.7878 58.1735 19.0027L66.0146 26.8333H59.5C58.8557 26.8333 58.3333 26.3109 58.3333 25.6667V21H56V25.6667C56 27.5997 57.567 29.1667 59.5 29.1667H67.6666V66.5Z" fill="#181F3F"/>
</svg>
