<svg width="79" height="66" viewBox="0 0 79 66" fill="none" xmlns="http://www.w3.org/2000/svg">
<path d="M77.9446 37.4821C77.9446 37.4821 77.9446 37.4324 77.9446 37.4076C78.1549 33.9532 77.7653 30.4885 76.793 27.1671C76.754 27.0334 76.6819 26.9117 76.5835 26.8132C76.485 26.7147 76.3633 26.6427 76.2296 26.6037C72.9184 25.638 69.4647 25.2539 66.0222 25.4686H65.9311C64.5388 25.5599 63.1546 25.7481 61.7885 26.032C61.6978 26.0385 61.6085 26.058 61.5234 26.09C61.076 26.1894 60.6369 26.2889 60.1978 26.4048C61.1077 22.0144 60.5967 17.4482 58.7387 13.3675C56.8806 9.28684 53.7721 5.9034 49.863 3.7071C45.954 1.51081 41.4474 0.615645 36.9957 1.15123C32.544 1.68681 28.3783 3.62534 25.1018 6.68614H25.0521C25.0521 6.68614 25.0521 6.68614 25.0521 6.72756C22.957 8.69968 21.288 11.08 20.148 13.7219C19.0081 16.3637 18.4213 19.211 18.4239 22.0883C18.4239 22.5108 18.4239 22.9168 18.4819 23.3559C16.7017 23.6701 14.9695 24.2131 13.3285 24.9715C10.2564 26.376 7.56632 28.4974 5.48441 31.1575C3.4025 33.8176 1.9896 36.9387 1.36449 40.2583C0.739373 43.5779 0.920308 46.999 1.89208 50.2342C2.86386 53.4693 4.59807 56.4239 6.94896 58.8496L7.00695 58.9076C8.96732 60.9328 11.3142 62.5439 13.9087 63.6454C16.5031 64.7469 19.2922 65.3165 22.1108 65.3203C24.0175 65.3165 25.9151 65.0573 27.753 64.5498H27.8359C31.8684 63.4151 35.473 61.1082 38.1923 57.9216C38.3647 59.8462 38.7226 61.7496 39.2611 63.6053C39.3001 63.739 39.3722 63.8607 39.4707 63.9591C39.5691 64.0576 39.6908 64.1297 39.8245 64.1687C43.7528 65.3249 47.8774 65.658 51.9403 65.1471C56.0032 64.6362 59.9169 63.2924 63.4366 61.1997C66.9564 59.107 70.0064 56.3104 72.3958 52.9849C74.7853 49.6595 76.4627 45.8767 77.3232 41.8733C77.3485 41.7981 77.3652 41.7202 77.3729 41.6413C77.659 40.2697 77.85 38.88 77.9446 37.4821ZM63.5864 27.3659C64.2824 27.2582 64.9783 27.1754 65.6826 27.1174L76.2627 37.739C76.2047 38.4432 76.1219 39.1392 76.0142 39.8351L63.5864 27.3659ZM66.13 37.7224C66.1794 37.7694 66.2189 37.8259 66.246 37.8886C66.273 37.9512 66.2871 38.0187 66.2874 38.0869C66.2876 38.1553 66.2737 38.2229 66.2467 38.2856C66.2196 38.3483 66.1798 38.4048 66.13 38.4515L64.7049 39.8848C64.5506 40.0401 64.464 40.25 64.464 40.4689C64.464 40.6878 64.5506 40.8978 64.7049 41.053L65.9145 42.2792C65.9622 42.3272 65.9998 42.3841 66.0254 42.4467C66.051 42.5092 66.064 42.5762 66.0637 42.6438C66.0655 42.7116 66.0531 42.779 66.0275 42.8417C66.0018 42.9045 65.9633 42.9612 65.9145 43.0083L65.4754 43.4475C65.3779 43.5426 65.2471 43.5958 65.1109 43.5958C64.9747 43.5958 64.8438 43.5426 64.7463 43.4475L63.5367 42.2295C63.4597 42.1519 63.368 42.0902 63.2671 42.0482C63.1661 42.0061 63.0578 41.9845 62.9485 41.9845C62.8391 41.9845 62.7308 42.0061 62.6298 42.0482C62.5289 42.0902 62.4372 42.1519 62.3602 42.2295L60.2723 44.3174C60.1193 44.4717 60.033 44.68 60.0321 44.8974C60.0314 45.0064 60.0523 45.1145 60.0936 45.2154C60.1348 45.3164 60.1955 45.4082 60.2723 45.4856L61.482 46.6952C61.5311 46.7424 61.5702 46.799 61.5969 46.8616C61.6236 46.9243 61.6373 46.9917 61.6373 47.0598C61.6373 47.1279 61.6236 47.1953 61.5969 47.2579C61.5702 47.3206 61.5311 47.3772 61.482 47.4243L61.0429 47.8634C60.9957 47.9126 60.9391 47.9516 60.8764 47.9783C60.8138 48.005 60.7464 48.0188 60.6783 48.0188C60.6102 48.0188 60.5428 48.005 60.4802 47.9783C60.4175 47.9516 60.3609 47.9126 60.3138 47.8634L59.1041 46.6538C59.0267 46.577 58.9349 46.5163 58.834 46.475C58.733 46.4338 58.6249 46.4129 58.5159 46.4135C58.2985 46.4145 58.0902 46.5007 57.9359 46.6538L55.8481 48.7417C55.7698 48.8184 55.7075 48.9099 55.6648 49.0109C55.6222 49.1119 55.6 49.2203 55.5995 49.3299C55.6 49.4395 55.6222 49.548 55.6648 49.649C55.7075 49.7499 55.7698 49.8414 55.8481 49.9182L57.0494 51.1195C57.0988 51.1674 57.138 51.2247 57.1648 51.288C57.1916 51.3514 57.2054 51.4194 57.2054 51.4882C57.2054 51.557 57.1916 51.625 57.1648 51.6884C57.138 51.7517 57.0988 51.809 57.0494 51.8569L56.6103 52.296C56.5128 52.3912 56.382 52.4444 56.2457 52.4444C56.1095 52.4444 55.9787 52.3912 55.8812 52.296L54.6716 51.0864C54.5163 50.9321 54.3063 50.8455 54.0875 50.8455C53.8686 50.8455 53.6586 50.9321 53.5033 51.0864L51.78 52.8097C51.6825 52.9048 51.5517 52.9581 51.4155 52.9581C51.2793 52.9581 51.1484 52.9048 51.0509 52.8097L50.6118 52.3706C50.5625 52.3227 50.5232 52.2654 50.4964 52.2021C50.4696 52.1387 50.4558 52.0707 50.4558 52.0019C50.4558 51.9331 50.4696 51.8651 50.4964 51.8017C50.5232 51.7384 50.5625 51.6811 50.6118 51.6332L52.3269 49.9182C52.4051 49.8414 52.4674 49.7499 52.5101 49.649C52.5527 49.548 52.575 49.4395 52.5754 49.3299C52.575 49.2203 52.5527 49.1119 52.5101 49.0109C52.4674 48.9099 52.4051 48.8184 52.3269 48.7417L51.1089 47.532C51.0608 47.4843 51.0227 47.4275 50.9966 47.3649C50.9706 47.3024 50.9572 47.2353 50.9572 47.1675C50.9572 47.0997 50.9706 47.0326 50.9966 46.9701C51.0227 46.9075 51.0608 46.8507 51.1089 46.8029L51.548 46.3638C51.6489 46.2686 51.7822 46.2153 51.9209 46.2147C51.9885 46.2144 52.0555 46.2273 52.118 46.2529C52.1806 46.2785 52.2375 46.3162 52.2854 46.3638L53.4951 47.5735C53.6503 47.7278 53.8603 47.8144 54.0792 47.8144C54.2981 47.8144 54.508 47.7278 54.6633 47.5735L56.7511 45.4856C56.8279 45.4082 56.8887 45.3164 56.9299 45.2154C56.9711 45.1145 56.992 45.0064 56.9914 44.8974C56.9905 44.68 56.9042 44.4717 56.7511 44.3174L55.5498 43.1078C55.4541 43.0089 55.4006 42.8767 55.4006 42.7391C55.4006 42.6015 55.4541 42.4693 55.5498 42.3704L55.9889 41.9313C56.0897 41.8393 56.2212 41.7883 56.3576 41.7883C56.494 41.7883 56.6255 41.8393 56.7263 41.9313L57.9359 43.1078C58.0912 43.2621 58.3011 43.3487 58.52 43.3487C58.7389 43.3487 58.9489 43.2621 59.1041 43.1078L61.192 41.0199C61.3463 40.8647 61.4329 40.6547 61.4329 40.4358C61.4329 40.2169 61.3463 40.0069 61.192 39.8517L59.9824 38.6421C59.9347 38.5941 59.897 38.5372 59.8715 38.4746C59.8459 38.4121 59.8329 38.3451 59.8332 38.2775C59.8314 38.2097 59.8438 38.1423 59.8694 38.0795C59.8951 38.0168 59.9336 37.9601 59.9824 37.913L60.4215 37.4656C60.4692 37.4175 60.526 37.3793 60.5886 37.3532C60.6511 37.3272 60.7182 37.3138 60.786 37.3138C60.8538 37.3138 60.9209 37.3272 60.9835 37.3532C61.046 37.3793 61.1028 37.4175 61.1506 37.4656L62.3602 38.6669C62.4372 38.7446 62.5289 38.8062 62.6298 38.8483C62.7308 38.8903 62.8391 38.912 62.9485 38.912C63.0578 38.912 63.1661 38.8903 63.2671 38.8483C63.368 38.8062 63.4597 38.7446 63.5367 38.6669L64.9617 37.3081C65.0592 37.213 65.1901 37.1597 65.3263 37.1597C65.4625 37.1597 65.5933 37.213 65.6908 37.3081L66.13 37.7224ZM66.4697 35.8085C66.0512 35.5606 65.5632 35.4564 65.08 35.5118C64.5969 35.5671 64.1451 35.779 63.7935 36.1151L62.965 36.9436L62.3436 36.3222C61.9353 35.9159 61.3827 35.6879 60.8067 35.6879C60.2307 35.6879 59.6782 35.9159 59.2698 36.3222L58.8307 36.7613C58.6277 36.9632 58.4667 37.2033 58.3572 37.4679C58.2477 37.7324 58.1918 38.016 58.1928 38.3024C58.191 38.5875 58.2466 38.8702 58.3562 39.1335C58.4658 39.3968 58.6272 39.6354 58.8307 39.8351L59.4521 40.4565L58.5325 41.3762L57.9111 40.7548C57.4967 40.3602 56.9464 40.1401 56.3742 40.1401C55.802 40.1401 55.2517 40.3602 54.8373 40.7548L54.423 41.2022C54.2198 41.4033 54.0586 41.6426 53.9485 41.9064C53.8384 42.1702 53.7818 42.4532 53.7818 42.7391C53.7818 43.0249 53.8384 43.3079 53.9485 43.5717C54.0586 43.8355 54.2198 44.0749 54.423 44.276L55.0444 44.8974L54.1247 45.817L53.5033 45.1956C53.3023 44.9925 53.0629 44.8312 52.7991 44.7211C52.5353 44.6111 52.2523 44.5544 51.9664 44.5544C51.6806 44.5544 51.3976 44.6111 51.1338 44.7211C50.87 44.8312 50.6306 44.9925 50.4296 45.1956L49.9904 45.6347C49.5842 46.0431 49.3561 46.5956 49.3561 47.1716C49.3561 47.7476 49.5842 48.3002 49.9904 48.7085L50.6118 49.3299L49.4519 50.465C49.1007 50.8208 48.882 51.2863 48.8323 51.7838C48.7825 52.2812 48.9047 52.7808 49.1785 53.1991L47.2066 55.1213L40.5785 48.4931C41.8112 43.4243 44.4341 38.8001 48.1519 35.1408C51.8698 31.4815 56.5351 28.9323 61.6228 27.7802L68.0521 34.2095L66.4697 35.8085ZM50.9267 63.5307L39.8908 52.4866C39.9571 51.7906 40.0482 51.103 40.1642 50.4236L52.998 63.249C52.3103 63.3733 51.6226 63.4644 50.9267 63.5307ZM29.5675 46.1816L27.2311 38.9652L32.9478 32.4116H37.6041C39.6434 35.0675 40.9568 38.2083 41.4153 41.5253C39.9551 44.3612 38.9593 47.413 38.4658 50.5644L36.5022 51.3929L29.5675 46.1816ZM8.44857 58.0211L8.85455 52.7103L15.4827 47.7392L21.2823 52.006V59.2887L16.4189 62.8182C13.4148 61.8839 10.6805 60.2383 8.44857 58.0211ZM6.89925 56.306C5.76103 54.8747 4.82952 53.2906 4.132 51.6001L7.1478 52.818L6.89925 56.306ZM22.1108 50.5644L16.3112 46.3721L18.5068 39.5948H25.6403L27.9104 46.3721L22.1108 50.5644ZM14.3228 26.3717C16.7822 25.2782 19.4441 24.7137 22.1357 24.7147C24.8518 24.7094 27.5388 25.2739 30.0232 26.3717L31.6802 31.3428L25.9634 37.8964H18.3411L12.6906 31.3428L14.3228 26.3717ZM42.6829 39.3131C42.1975 37.2743 41.41 35.3195 40.3465 33.5135V22.9582H46.4609C46.5769 26.1977 47.4058 29.3717 48.8885 32.2542C48.164 32.8427 47.4699 33.4676 46.8089 34.1266C45.242 35.694 43.8578 37.4339 42.6829 39.3131ZM33.1715 30.7463L32.111 27.4902C33.6127 28.387 34.9867 29.4822 36.1956 30.7463H33.1715ZM40.3382 21.3012V2.6844C44.7037 2.86479 48.8796 4.51762 52.186 7.37381C48.6752 11.184 46.6418 16.1236 46.4527 21.3012H40.3382ZM38.6812 21.3012H32.5667C32.3763 16.1263 30.343 11.1898 26.8334 7.38209C30.1407 4.52629 34.3155 2.87098 38.6812 2.6844V21.3012ZM32.5419 22.9582H38.6812V31.086C36.9266 28.8874 34.7524 27.0596 32.285 25.7089C32.4315 24.7985 32.5201 23.8798 32.5501 22.9582H32.5419ZM37.2396 52.7848L38.2255 52.3954C38.1343 53.3565 38.0846 54.3259 38.0846 55.3035C37.8858 55.5852 37.687 55.8669 37.4798 56.1321L37.2396 52.7848ZM75.3514 28.037C76.0133 30.4535 76.3532 32.9468 76.3622 35.4523L67.9278 27.0594C70.4366 27.0596 72.9338 27.3996 75.3514 28.0702V28.037ZM50.2141 31.2103C48.9344 28.6289 48.2198 25.8044 48.118 22.9251H58.9633C58.9085 24.2754 58.7141 25.6165 58.3833 26.9268C55.4542 27.9215 52.6981 29.3667 50.2141 31.2103ZM58.9716 21.268H48.118C48.3052 16.5076 50.1821 11.9694 53.4122 8.46745C56.7949 11.9065 58.7766 16.4813 58.9716 21.3012V21.268ZM25.6237 8.50888C28.8447 12.0127 30.7178 16.5457 30.9097 21.3012H20.0727C20.2724 16.4962 22.2508 11.9369 25.6237 8.50888ZM20.0892 22.9582H30.86C30.86 23.6127 30.7771 24.2673 30.6943 24.9218C27.9963 23.7041 25.0709 23.0716 22.1108 23.0659C21.4232 23.0659 20.7438 23.0659 20.0727 23.1653C20.0975 23.0991 20.0892 23.0328 20.0892 22.9582ZM12.2266 27.4405L11.1578 30.7546H8.07574C9.30204 29.4661 10.6986 28.3511 12.2266 27.4405ZM6.65069 32.4116H11.3815L17.032 38.9652L14.6542 46.1898L7.88518 51.3349L3.41119 49.5288C2.5809 46.6191 2.44141 43.5557 3.00381 40.5826C3.56621 37.6095 4.81498 34.8087 6.65069 32.4033V32.4116ZM18.5565 63.3319L22.1108 60.7303L25.69 63.3319C24.5101 63.5549 23.3117 63.6658 22.1108 63.6633C20.9184 63.6614 19.7287 63.5504 18.5565 63.3319ZM27.8193 62.8182L22.9393 59.2887V52.006L28.8384 47.7226L35.5577 52.6937L35.9222 57.8968C33.6637 60.1744 30.8817 61.8642 27.8193 62.8182ZM40.7525 62.6608C40.0462 60.07 39.7114 57.392 39.7582 54.707L48.7145 63.655C46.0267 63.7052 43.3454 63.3704 40.7525 62.6608ZM68.0935 55.4361C64.4627 59.0783 59.904 61.6571 54.9118 62.8927L48.3748 56.2895L50.3633 54.3342C50.773 54.5685 51.2488 54.6607 51.7164 54.5962C52.184 54.5318 52.6172 54.3144 52.9482 53.9779L54.0833 52.8428L54.713 53.4642C54.9141 53.6674 55.1534 53.8287 55.4172 53.9387C55.681 54.0488 55.964 54.1055 56.2499 54.1055C56.5357 54.1055 56.8187 54.0488 57.0825 53.9387C57.3463 53.8287 57.5857 53.6674 57.7868 53.4642L58.2259 53.0251C58.6322 52.6168 58.8602 52.0642 58.8602 51.4882C58.8602 50.9122 58.6322 50.3596 58.2259 49.9513L57.6045 49.3299L58.5159 48.4103L59.1373 49.0399C59.547 49.4467 60.1009 49.675 60.6783 49.675C61.2557 49.675 61.8096 49.4467 62.2194 49.0399L62.6585 48.6008C63.0653 48.1911 63.2935 47.6371 63.2935 47.0598C63.2935 46.4824 63.0653 45.9285 62.6585 45.5187L62.0288 44.8974L62.9485 43.986L63.5698 44.6074C63.9842 45.002 64.5345 45.2221 65.1067 45.2221C65.6789 45.2221 66.2292 45.002 66.6436 44.6074L67.0827 44.1683C67.2858 43.9664 67.4468 43.7263 67.5563 43.4617C67.6658 43.1972 67.7217 42.9135 67.7207 42.6272C67.7224 42.342 67.6669 42.0594 67.5573 41.7961C67.4477 41.5328 67.2863 41.2942 67.0827 41.0945L66.4614 40.4648L67.2899 39.6363C67.697 39.2265 67.9262 38.6728 67.9278 38.0952C67.9424 37.7099 67.8568 37.3274 67.6793 36.985L69.2618 35.3777L75.6828 41.7987C74.5013 46.9682 71.8784 51.6968 68.1184 55.4361H68.0935Z" fill="#181F3F" stroke="#181F3F" stroke-width="0.5"/>
</svg>
