<svg width="12" height="16" viewBox="0 0 12 16" fill="none" xmlns="http://www.w3.org/2000/svg">
<path fill-rule="evenodd" clip-rule="evenodd" d="M9.90264 7.56318C9.15387 8.20067 8.49198 8.76419 8.49198 9.6H4.68449C4.68449 8.04029 5.67574 7.1448 6.52968 6.37336C7.17581 5.78965 7.74332 5.27697 7.74332 4.60131C7.74332 3.76471 6.95187 3.26275 5.86096 3.26275C4.70588 3.26275 3.74332 3.82745 3.18717 4.76863L0 3.09542C1.13369 1.23399 3.20856 0 6.35294 0C9.64706 0 12 1.38039 12 3.93203C12 5.77752 10.8777 6.73306 9.90264 7.56318ZM8.4 13.1769C8.4 14.5154 7.40617 15.6 5.98943 15.6C4.57269 15.6 3.6 14.5154 3.6 13.1769C3.6 11.8154 4.57269 10.8 5.98943 10.8C7.40617 10.8 8.4 11.8154 8.4 13.1769Z" fill="#333333"/>
</svg>
