<svg width="24" height="16" viewBox="0 0 24 16" fill="none" xmlns="http://www.w3.org/2000/svg">
<path fill-rule="evenodd" clip-rule="evenodd" d="M8 9L12 5L16 9H13.45V12H10.55V9H8ZM12 0C15.7485 0 18.8948 2.57805 19.7626 6.05779C22.1621 6.42499 24 8.49786 24 11C24 13.7614 21.7614 16 19 16H6C2.68629 16 0 13.3137 0 10C0 7.01818 2.17514 4.54439 5.02529 4.07877C6.39696 1.64419 9.00647 0 12 0C12 0 15.7485 0 12 0ZM5.34774 6.05261L6.29608 5.89768L6.76775 5.06051C7.79944 3.22938 9.75746 2 12 2C14.8087 2 17.1711 3.93171 17.822 6.54175L18.1442 7.83339L19.4601 8.03477C20.898 8.25483 22 9.50055 22 11C22 12.6569 20.6569 14 19 14H6C3.79086 14 2 12.2091 2 10C2 8.01406 3.44924 6.36276 5.34774 6.05261Z" fill="#2E3A59"/>
</svg>
