<svg width="36" height="36" viewBox="0 0 36 36" fill="none" xmlns="http://www.w3.org/2000/svg">
<path d="M6.64911 31.2102C6.52566 31.0866 6.35434 31.0156 6.17969 31.0156C6.00504 31.0156 5.83371 31.0866 5.7102 31.2102C5.58668 31.3338 5.51562 31.505 5.51562 31.6797C5.51562 31.8543 5.58661 32.0257 5.7102 32.1491C5.83371 32.2726 6.00504 32.3438 6.17969 32.3438C6.35434 32.3438 6.52566 32.2727 6.64911 32.1491C6.77263 32.0257 6.84375 31.8543 6.84375 31.6797C6.84375 31.505 6.7727 31.3337 6.64911 31.2102Z" fill="black"/>
<path d="M32.1795 13.1487C32.0559 13.0251 31.8853 12.9541 31.71 12.9541C31.5353 12.9541 31.364 13.0251 31.2405 13.1487C31.117 13.2722 31.0459 13.4435 31.0459 13.6182C31.0459 13.7928 31.117 13.9641 31.2405 14.0876C31.364 14.2111 31.5353 14.2822 31.71 14.2822C31.8853 14.2822 32.0559 14.2112 32.1795 14.0876C32.3036 13.9641 32.3746 13.7928 32.3746 13.6182C32.3746 13.4435 32.3036 13.2722 32.1795 13.1487Z" fill="black"/>
<path fill-rule="evenodd" clip-rule="evenodd" d="M34.8051 1.1945C34.6805 1.06999 34.5116 1 34.3354 1L17.9999 1.00086C17.6332 1.00086 17.3359 1.29823 17.3359 1.66493V3.56395L11.0413 5.2506C10.687 5.34556 10.4768 5.70966 10.5718 6.06388L13.8341 18.2389L11.0119 21.0611C10.6527 20.5367 10.0496 20.1917 9.36741 20.1917H2.99261C1.89412 20.1917 1.00049 21.0854 1.00049 22.1839V33.0078C1.00049 34.1063 1.89412 35 2.99261 35H9.36748C10.3007 35 11.0857 34.3548 11.3009 33.4873L12.0905 34.1758C12.7 34.7073 13.4809 35.0001 14.2897 35.0001H34.3356C34.7023 35.0001 34.9996 34.7027 34.9996 34.336V1.66406C34.9995 1.48795 34.9296 1.31902 34.8051 1.1945ZM10.0314 33.0079C10.0314 33.374 9.73351 33.6719 9.36734 33.6719H2.99254C2.62638 33.6719 2.32848 33.374 2.32848 33.0079V22.1839C2.32848 21.8178 2.62638 21.5199 2.99254 21.5199H5.51591V29.1695C5.51591 29.5362 5.81328 29.8336 6.17998 29.8336C6.54667 29.8336 6.84404 29.5362 6.84404 29.1695V21.5199H9.36741C9.73357 21.5199 10.0315 21.8178 10.0315 22.1839V33.0079H10.0314ZM17.3359 4.93889L12.0264 6.36157L15.1453 18.0016C15.1965 18.0701 15.2347 18.1489 15.2566 18.2345L15.9434 20.9215H17.2762L14.6877 11.3366C14.6417 11.1663 14.6654 10.9848 14.7534 10.832C14.8414 10.6791 14.9866 10.5677 15.157 10.522C16.1093 10.2668 16.6765 9.28444 16.4213 8.33211C16.3757 8.16198 16.3996 7.98076 16.4876 7.82822C16.5757 7.67569 16.7206 7.56446 16.8908 7.51884L17.3359 7.39957V4.93889ZM17.3359 10.4449V16.0483L16.1247 11.5636C16.6307 11.3023 17.0447 10.9115 17.3359 10.4449ZM14.2896 33.6719H26.8761C27.3887 33.6719 27.8057 33.2548 27.8058 32.7425C27.8058 32.2298 27.3887 31.8128 26.8761 31.8128H21.7938C21.4271 31.8128 21.1297 31.5154 21.1297 31.1487C21.1297 30.782 21.4271 30.4846 21.7938 30.4846H29.1412C29.6539 30.4846 30.0709 30.0676 30.0709 29.555C30.0709 29.0423 29.6539 28.6253 29.1412 28.6253H21.7938C21.4271 28.6253 21.1297 28.3279 21.1297 27.9612C21.1297 27.5945 21.4271 27.2971 21.7938 27.2971H30.5621C31.0748 27.2971 31.4918 26.8801 31.4918 26.3675C31.4918 25.8548 31.0748 25.4378 30.5621 25.4378H21.7938C21.4271 25.4378 21.1297 25.1404 21.1297 24.7737C21.1297 24.407 21.4271 24.1096 21.7938 24.1096H28.4836C28.9962 24.1096 29.4133 23.6926 29.4133 23.18C29.4133 22.6673 28.9962 22.2503 28.4836 22.2503L15.4278 22.2495C15.1244 22.2495 14.8597 22.0439 14.7845 21.7499L14.2587 19.6926L11.3595 22.5918V31.7762L12.9632 33.1748C13.3308 33.4954 13.8018 33.6719 14.2896 33.6719ZM33.6715 33.6719H33.6714H28.9328C29.0615 33.3881 29.1338 33.0736 29.1338 32.7422C29.1338 32.4108 29.0615 32.0963 28.9328 31.8125H29.1412C30.3861 31.8125 31.3989 30.7997 31.3989 29.5548C31.3989 29.1916 31.3123 28.8485 31.1593 28.5443C32.1153 28.2817 32.8198 27.4054 32.8198 26.3673C32.8198 25.8637 32.6539 25.3981 32.3741 25.0223V16.6059C32.3741 16.2392 32.0768 15.9419 31.7101 15.9419C31.3434 15.9419 31.046 16.2392 31.046 16.6059V24.1624C30.8899 24.1282 30.7281 24.1096 30.562 24.1096H30.5402C30.6689 23.8259 30.7413 23.5113 30.7413 23.18C30.7413 21.935 29.7284 20.9222 28.4835 20.9222H27.416C28.5495 20.4361 29.3456 19.3095 29.3456 18C29.3456 16.2476 27.92 14.8219 26.1676 14.8219C24.4153 14.8219 22.9896 16.2476 22.9896 18C22.9896 19.3095 23.7857 20.4361 24.9192 20.9222H21.2892V8.29559C22.4755 8.03707 23.4115 7.10107 23.67 5.91473H28.6651C28.9236 7.10107 29.8596 8.03707 31.0459 8.29559V10.3602C31.0459 10.7269 31.3433 11.0242 31.71 11.0242C32.0767 11.0242 32.3741 10.7269 32.3741 10.3602V7.70271C32.3741 7.33602 32.0767 7.03865 31.71 7.03865C30.7241 7.03865 29.9221 6.23653 29.9221 5.25066C29.9221 4.88397 29.6247 4.5866 29.258 4.5866H23.0772C22.7105 4.5866 22.4131 4.88397 22.4131 5.25066C22.4131 6.2366 21.6111 7.03865 20.6252 7.03865C20.2585 7.03865 19.9611 7.33602 19.9611 7.70271V20.9221H18.6641V2.32886L33.6715 2.32812V33.6719ZM24.3178 18.0001C24.3178 19.0201 25.1477 19.8499 26.1677 19.8499C27.1878 19.8499 28.0176 19.02 28.0176 18C28.0176 16.98 27.1877 16.1501 26.1677 16.1501C25.1477 16.1501 24.3178 16.9801 24.3178 18.0001Z" fill="black"/>
<path d="M34.3354 1V0.8H34.3354L34.3354 1ZM34.8051 1.1945L34.9465 1.05308L34.9465 1.05305L34.8051 1.1945ZM17.9999 1.00086V1.20086H17.9999L17.9999 1.00086ZM17.3359 3.56395L17.3877 3.75713L17.5359 3.71741V3.56395H17.3359ZM11.0413 5.2506L10.9895 5.05741L10.9895 5.05742L11.0413 5.2506ZM10.5718 6.06388L10.7649 6.01211L10.7649 6.01209L10.5718 6.06388ZM13.8341 18.2389L13.9755 18.3804L14.0572 18.2987L14.0273 18.1872L13.8341 18.2389ZM11.0119 21.0611L10.8469 21.1741L10.983 21.3729L11.1533 21.2026L11.0119 21.0611ZM11.3009 33.4873L11.4323 33.3365L11.1856 33.1213L11.1068 33.4391L11.3009 33.4873ZM12.0905 34.1758L11.959 34.3266L11.959 34.3266L12.0905 34.1758ZM34.9996 1.66406H35.1996V1.66391L34.9996 1.66406ZM10.0314 33.0079V32.8079H9.83141V33.0079H10.0314ZM5.51591 21.5199H5.71591V21.3199H5.51591V21.5199ZM6.84404 21.5199V21.3199H6.64404V21.5199H6.84404ZM10.0315 33.0079V33.2079H10.2315V33.0079H10.0315ZM12.0264 6.36157L11.9747 6.16839L11.7815 6.22015L11.8333 6.41334L12.0264 6.36157ZM17.3359 4.93889H17.5359V4.67824L17.2841 4.7457L17.3359 4.93889ZM15.1453 18.0016L14.9521 18.0534L14.9621 18.0905L14.9851 18.1213L15.1453 18.0016ZM15.2566 18.2345L15.0628 18.284L15.0628 18.284L15.2566 18.2345ZM15.9434 20.9215L15.7497 20.9711L15.7881 21.1215H15.9434V20.9215ZM17.2762 20.9215V21.1215H17.5374L17.4693 20.8694L17.2762 20.9215ZM14.6877 11.3366L14.8808 11.2845L14.8808 11.2844L14.6877 11.3366ZM14.7534 10.832L14.9267 10.9318L14.9268 10.9317L14.7534 10.832ZM15.157 10.522L15.1052 10.3288L15.1052 10.3288L15.157 10.522ZM16.4213 8.33211L16.6145 8.28035L16.6145 8.28031L16.4213 8.33211ZM16.4876 7.82822L16.3144 7.72823V7.72823L16.4876 7.82822ZM16.8908 7.51884L16.8391 7.32565L16.8391 7.32566L16.8908 7.51884ZM17.3359 7.39957L17.3877 7.59275L17.5359 7.55303V7.39957H17.3359ZM17.3359 16.0483L17.1428 16.1005L17.5359 16.0483H17.3359ZM17.3359 10.4449H17.5359V9.7467L17.1662 10.339L17.3359 10.4449ZM16.1247 11.5636L16.033 11.3859L15.8895 11.4599L15.9316 11.6157L16.1247 11.5636ZM27.8058 32.7425L28.0058 32.7425V32.7425H27.8058ZM28.4836 22.2503L28.4836 22.4503H28.4836V22.2503ZM15.4278 22.2495L15.4279 22.0495H15.4278V22.2495ZM14.7845 21.7499L14.5907 21.7994L14.5907 21.7994L14.7845 21.7499ZM14.2587 19.6926L14.4525 19.6431L14.3655 19.303L14.1173 19.5512L14.2587 19.6926ZM11.3595 22.5918L11.2181 22.4504L11.1595 22.509V22.5918H11.3595ZM11.3595 31.7762H11.1595V31.8672L11.2281 31.927L11.3595 31.7762ZM12.9632 33.1748L12.8317 33.3256L12.8317 33.3256L12.9632 33.1748ZM33.6715 33.6719V33.8719H33.8715V33.6719H33.6715ZM28.9328 33.6719L28.7506 33.5892L28.6224 33.8719H28.9328V33.6719ZM28.9328 31.8125V31.6125H28.6224L28.7506 31.8951L28.9328 31.8125ZM31.1593 28.5443L31.1063 28.3514L30.871 28.416L30.9806 28.6341L31.1593 28.5443ZM32.3741 25.0223H32.1741V25.0885L32.2137 25.1417L32.3741 25.0223ZM31.046 24.1624L31.0032 24.3578L31.246 24.411V24.1624H31.046ZM30.5402 24.1096L30.3581 24.027L30.2298 24.3096H30.5402V24.1096ZM27.416 20.9222L27.3372 20.7384L27.416 21.1222V20.9222ZM24.9192 20.9222V21.1222L24.998 20.7384L24.9192 20.9222ZM21.2892 20.9222H21.0892V21.1222H21.2892V20.9222ZM21.2892 8.29559L21.2466 8.10018L21.0892 8.13448V8.29559H21.2892ZM23.67 5.91473V5.71473H23.5089L23.4746 5.87215L23.67 5.91473ZM28.6651 5.91473L28.8605 5.87215L28.8263 5.71473H28.6651V5.91473ZM31.0459 8.29559H31.2459V8.13448L31.0885 8.10018L31.0459 8.29559ZM19.9611 20.9221V21.1221H20.1611V20.9221H19.9611ZM18.6641 20.9221H18.4641V21.1221H18.6641V20.9221ZM18.6641 2.32886L18.6641 2.12886L18.4641 2.12887V2.32886H18.6641ZM33.6715 2.32812H33.8715V2.12812L33.6715 2.12812L33.6715 2.32812ZM34.3354 1.2C34.4586 1.2 34.5766 1.24892 34.6637 1.33596L34.9465 1.05305C34.7844 0.891066 34.5647 0.8 34.3354 0.8V1.2ZM17.9999 1.20086L34.3354 1.2L34.3354 0.8L17.9999 0.800863L17.9999 1.20086ZM17.5359 1.66493C17.5359 1.40866 17.7437 1.20086 17.9999 1.20086V0.800863C17.5227 0.800863 17.1359 1.1878 17.1359 1.66493H17.5359ZM17.5359 3.56395V1.66493H17.1359V3.56395H17.5359ZM11.0931 5.44378L17.3877 3.75713L17.2841 3.37076L10.9895 5.05741L11.0931 5.44378ZM10.7649 6.01209C10.6986 5.76462 10.8455 5.51015 11.0931 5.44378L10.9895 5.05742C10.5286 5.18096 10.255 5.65471 10.3786 6.11566L10.7649 6.01209ZM14.0273 18.1872L10.7649 6.01211L10.3786 6.11564L13.6409 18.2907L14.0273 18.1872ZM11.1533 21.2026L13.9755 18.3804L13.6927 18.0975L10.8705 20.9197L11.1533 21.2026ZM9.36741 20.3917C9.98057 20.3917 10.5232 20.7015 10.8469 21.1741L11.1769 20.9481C10.7822 20.3718 10.1186 19.9917 9.36741 19.9917V20.3917ZM2.99261 20.3917H9.36741V19.9917H2.99261V20.3917ZM1.20049 22.1839C1.20049 21.1959 2.00458 20.3917 2.99261 20.3917V19.9917C1.78366 19.9917 0.800488 20.975 0.800488 22.1839H1.20049ZM1.20049 33.0078V22.1839H0.800488V33.0078H1.20049ZM2.99261 34.8C2.00458 34.8 1.20049 33.9959 1.20049 33.0078H0.800488C0.800488 34.2168 1.78365 35.2 2.99261 35.2V34.8ZM9.36748 34.8H2.99261V35.2H9.36748V34.8ZM11.1068 33.4391C10.9132 34.2198 10.2064 34.8 9.36748 34.8V35.2C10.395 35.2 11.2583 34.4898 11.495 33.5354L11.1068 33.4391ZM12.2219 34.0251L11.4323 33.3365L11.1694 33.638L11.959 34.3266L12.2219 34.0251ZM14.2897 34.8001C13.5293 34.8001 12.795 34.5249 12.2219 34.0251L11.959 34.3266C12.605 34.8898 13.4326 35.2001 14.2897 35.2001V34.8001ZM34.3356 34.8001H14.2897V35.2001H34.3356V34.8001ZM34.7996 34.336C34.7996 34.5922 34.5918 34.8001 34.3356 34.8001V35.2001C34.8127 35.2001 35.1996 34.8132 35.1996 34.336H34.7996ZM34.7996 1.66406V34.336H35.1996V1.66406H34.7996ZM34.6637 1.33593C34.7506 1.42286 34.7995 1.54094 34.7996 1.66421L35.1996 1.66391C35.1995 1.43496 35.1086 1.21517 34.9465 1.05308L34.6637 1.33593ZM9.36734 33.8719C9.84398 33.8719 10.2314 33.4844 10.2314 33.0079H9.83141C9.83141 33.2635 9.62304 33.4719 9.36734 33.4719V33.8719ZM2.99254 33.8719H9.36734V33.4719H2.99254V33.8719ZM2.12848 33.0079C2.12848 33.4845 2.51592 33.8719 2.99254 33.8719V33.4719C2.73684 33.4719 2.52848 33.2636 2.52848 33.0079H2.12848ZM2.12848 22.1839V33.0079H2.52848V22.1839H2.12848ZM2.99254 21.3199C2.51592 21.3199 2.12848 21.7073 2.12848 22.1839H2.52848C2.52848 21.9282 2.73684 21.7199 2.99254 21.7199V21.3199ZM5.51591 21.3199H2.99254V21.7199H5.51591V21.3199ZM5.71591 29.1695V21.5199H5.31591V29.1695H5.71591ZM6.17998 29.6336C5.92374 29.6336 5.71591 29.4258 5.71591 29.1695H5.31591C5.31591 29.6467 5.70282 30.0336 6.17998 30.0336V29.6336ZM6.64404 29.1695C6.64404 29.4258 6.43621 29.6336 6.17998 29.6336V30.0336C6.65713 30.0336 7.04404 29.6467 7.04404 29.1695H6.64404ZM6.64404 21.5199V29.1695H7.04404V21.5199H6.64404ZM9.36741 21.3199H6.84404V21.7199H9.36741V21.3199ZM10.2315 22.1839C10.2315 21.7073 9.84403 21.3199 9.36741 21.3199V21.7199C9.62312 21.7199 9.83147 21.9282 9.83147 22.1839H10.2315ZM10.2315 33.0079V22.1839H9.83147V33.0079H10.2315ZM10.0314 33.2079H10.0315V32.8079H10.0314V33.2079ZM12.0782 6.55476L17.3877 5.13207L17.2841 4.7457L11.9747 6.16839L12.0782 6.55476ZM15.3385 17.9498L12.2196 6.30981L11.8333 6.41334L14.9521 18.0534L15.3385 17.9498ZM15.4504 18.185C15.4219 18.0737 15.3721 17.9711 15.3055 17.8819L14.9851 18.1213C15.0208 18.1692 15.0475 18.2242 15.0628 18.284L15.4504 18.185ZM16.1372 20.872L15.4504 18.185L15.0628 18.284L15.7497 20.9711L16.1372 20.872ZM17.2762 20.7215H15.9434V21.1215H17.2762V20.7215ZM14.4947 11.3887L17.0831 20.9737L17.4693 20.8694L14.8808 11.2845L14.4947 11.3887ZM14.5801 10.7322C14.4657 10.9309 14.4348 11.1672 14.4947 11.3888L14.8808 11.2844C14.8487 11.1655 14.8652 11.0386 14.9267 10.9318L14.5801 10.7322ZM15.1052 10.3288C14.8836 10.3882 14.6946 10.5332 14.5801 10.7322L14.9268 10.9317C14.9882 10.825 15.0896 10.7471 15.2088 10.7152L15.1052 10.3288ZM16.2281 8.38388C16.4547 9.22951 15.9509 10.1022 15.1052 10.3288L15.2087 10.7152C16.2678 10.4314 16.8983 9.33938 16.6145 8.28035L16.2281 8.38388ZM16.3144 7.72823C16.1999 7.92667 16.1687 8.16248 16.2281 8.38391L16.6145 8.28031C16.5826 8.16148 16.5993 8.03485 16.6608 7.92821L16.3144 7.72823ZM16.8391 7.32566C16.6177 7.385 16.429 7.52974 16.3144 7.72823L16.6608 7.92821C16.7224 7.82164 16.8236 7.74391 16.9426 7.71202L16.8391 7.32566ZM17.2841 7.20639L16.8391 7.32565L16.9426 7.71202L17.3877 7.59275L17.2841 7.20639ZM17.1359 4.93889V7.39957H17.5359V4.93889H17.1359ZM17.5359 16.0483V10.4449H17.1359V16.0483H17.5359ZM15.9316 11.6157L17.1428 16.1005L17.529 15.9962L16.3178 11.5114L15.9316 11.6157ZM17.1662 10.339C16.8935 10.776 16.506 11.1416 16.033 11.3859L16.2165 11.7413C16.7553 11.4631 17.1959 11.047 17.5056 10.5508L17.1662 10.339ZM26.8761 33.4719H14.2896V33.8719H26.8761V33.4719ZM27.6058 32.7424C27.6057 33.1444 27.2782 33.4719 26.8761 33.4719V33.8719C27.4991 33.8719 28.0057 33.3653 28.0058 32.7425L27.6058 32.7424ZM26.8761 32.0128C27.2783 32.0128 27.6058 32.3403 27.6058 32.7425H28.0058C28.0058 32.1193 27.4992 31.6128 26.8761 31.6128V32.0128ZM21.7938 32.0128H26.8761V31.6128H21.7938V32.0128ZM20.9297 31.1487C20.9297 31.6259 21.3167 32.0128 21.7938 32.0128V31.6128C21.5376 31.6128 21.3298 31.4049 21.3298 31.1487H20.9297ZM21.7938 30.2846C21.3167 30.2846 20.9297 30.6716 20.9297 31.1487H21.3298C21.3298 30.8925 21.5376 30.6846 21.7938 30.6846V30.2846ZM29.1412 30.2846H21.7938V30.6846H29.1412V30.2846ZM29.8709 29.555C29.8709 29.9572 29.5434 30.2846 29.1412 30.2846V30.6846C29.7643 30.6846 30.2709 30.1781 30.2709 29.555H29.8709ZM29.1412 28.8253C29.5434 28.8253 29.8709 29.1528 29.8709 29.555H30.2709C30.2709 28.9318 29.7643 28.4253 29.1412 28.4253V28.8253ZM21.7938 28.8253H29.1412V28.4253H21.7938V28.8253ZM20.9297 27.9612C20.9297 28.4384 21.3167 28.8253 21.7938 28.8253V28.4253C21.5376 28.4253 21.3298 28.2174 21.3298 27.9612H20.9297ZM21.7938 27.0971C21.3167 27.0971 20.9297 27.4841 20.9297 27.9612H21.3298C21.3298 27.705 21.5376 27.4971 21.7938 27.4971V27.0971ZM30.5621 27.0971H21.7938V27.4971H30.5621V27.0971ZM31.2918 26.3675C31.2918 26.7697 30.9643 27.0971 30.5621 27.0971V27.4971C31.1852 27.4971 31.6918 26.9906 31.6918 26.3675H31.2918ZM30.5621 25.6378C30.9643 25.6378 31.2918 25.9653 31.2918 26.3675H31.6918C31.6918 25.7443 31.1852 25.2378 30.5621 25.2378V25.6378ZM21.7938 25.6378H30.5621V25.2378H21.7938V25.6378ZM20.9297 24.7737C20.9297 25.2509 21.3167 25.6378 21.7938 25.6378V25.2378C21.5376 25.2378 21.3298 25.0299 21.3298 24.7737H20.9297ZM21.7938 23.9096C21.3167 23.9096 20.9297 24.2966 20.9297 24.7737H21.3298C21.3298 24.5175 21.5376 24.3096 21.7938 24.3096V23.9096ZM28.4836 23.9096H21.7938V24.3096H28.4836V23.9096ZM29.2133 23.18C29.2133 23.5822 28.8858 23.9096 28.4836 23.9096V24.3096C29.1067 24.3096 29.6133 23.8031 29.6133 23.18H29.2133ZM28.4836 22.4503C28.8858 22.4503 29.2133 22.7778 29.2133 23.18H29.6133C29.6133 22.5568 29.1067 22.0503 28.4836 22.0503V22.4503ZM15.4278 22.4495L28.4836 22.4503L28.4836 22.0503L15.4279 22.0495L15.4278 22.4495ZM14.5907 21.7994C14.6885 22.1819 15.033 22.4495 15.4278 22.4495V22.0495C15.2158 22.0495 15.0308 21.9058 14.9783 21.7003L14.5907 21.7994ZM14.0649 19.7422L14.5907 21.7994L14.9783 21.7004L14.4525 19.6431L14.0649 19.7422ZM11.501 22.7332L14.4001 19.8341L14.1173 19.5512L11.2181 22.4504L11.501 22.7332ZM11.5595 31.7762V22.5918H11.1595V31.7762H11.5595ZM13.0946 33.0241L11.491 31.6255L11.2281 31.927L12.8317 33.3256L13.0946 33.0241ZM14.2896 33.4719C13.8501 33.4719 13.4258 33.3129 13.0946 33.0241L12.8317 33.3256C13.2358 33.6779 13.7535 33.8719 14.2896 33.8719V33.4719ZM33.6714 33.8719H33.6715V33.4719H33.6714V33.8719ZM28.9328 33.8719H33.6714V33.4719H28.9328V33.8719ZM28.9338 32.7422C28.9338 33.0442 28.868 33.3306 28.7506 33.5892L29.1149 33.7545C29.255 33.4456 29.3338 33.103 29.3338 32.7422H28.9338ZM28.7506 31.8951C28.868 32.1538 28.9338 32.4402 28.9338 32.7422H29.3338C29.3338 32.3814 29.255 32.0387 29.1149 31.7299L28.7506 31.8951ZM29.1412 31.6125H28.9328V32.0125H29.1412V31.6125ZM31.1989 29.5548C31.1989 30.6892 30.2757 31.6125 29.1412 31.6125V32.0125C30.4966 32.0125 31.5989 30.9101 31.5989 29.5548H31.1989ZM30.9806 28.6341C31.12 28.9114 31.1989 29.2238 31.1989 29.5548H31.5989C31.5989 29.1595 31.5045 28.7857 31.338 28.4544L30.9806 28.6341ZM32.6198 26.3673C32.6198 27.3128 31.978 28.112 31.1063 28.3514L31.2123 28.7371C32.2526 28.4514 33.0198 27.4981 33.0198 26.3673H32.6198ZM32.2137 25.1417C32.4687 25.4843 32.6198 25.9083 32.6198 26.3673H33.0198C33.0198 25.8191 32.839 25.3119 32.5346 24.9028L32.2137 25.1417ZM32.1741 16.6059V25.0223H32.5741V16.6059H32.1741ZM31.7101 16.1419C31.9663 16.1419 32.1741 16.3497 32.1741 16.6059H32.5741C32.5741 16.1288 32.1872 15.7419 31.7101 15.7419V16.1419ZM31.246 16.6059C31.246 16.3497 31.4538 16.1419 31.7101 16.1419V15.7419C31.2329 15.7419 30.846 16.1288 30.846 16.6059H31.246ZM31.246 24.1624V16.6059H30.846V24.1624H31.246ZM30.562 24.3096C30.7131 24.3096 30.8606 24.3266 31.0032 24.3578L31.0888 23.9671C30.9193 23.9299 30.7431 23.9096 30.562 23.9096V24.3096ZM30.5402 24.3096H30.562V23.9096H30.5402V24.3096ZM30.5413 23.18C30.5413 23.4819 30.4754 23.7684 30.3581 24.027L30.7223 24.1923C30.8625 23.8834 30.9413 23.5407 30.9413 23.18H30.5413ZM28.4835 21.1222C29.618 21.1222 30.5413 22.0454 30.5413 23.18H30.9413C30.9413 21.8245 29.8389 20.7222 28.4835 20.7222V21.1222ZM27.416 21.1222H28.4835V20.7222H27.416V21.1222ZM29.1456 18C29.1456 19.2264 28.4 20.2826 27.3372 20.7384L27.4949 21.106C28.699 20.5896 29.5456 19.3925 29.5456 18H29.1456ZM26.1676 15.0219C27.8095 15.0219 29.1456 16.3581 29.1456 18H29.5456C29.5456 16.1372 28.0304 14.6219 26.1676 14.6219V15.0219ZM23.1896 18C23.1896 16.3581 24.5257 15.0219 26.1676 15.0219V14.6219C24.3048 14.6219 22.7896 16.1372 22.7896 18H23.1896ZM24.998 20.7384C23.9352 20.2826 23.1896 19.2264 23.1896 18H22.7896C22.7896 19.3925 23.6363 20.5896 24.8403 21.106L24.998 20.7384ZM21.2892 21.1222H24.9192V20.7222H21.2892V21.1222ZM21.0892 8.29559V20.9222H21.4892V8.29559H21.0892ZM23.4746 5.87215C23.2328 6.98203 22.3564 7.85832 21.2466 8.10018L21.3318 8.491C22.5945 8.21582 23.5903 7.22012 23.8654 5.9573L23.4746 5.87215ZM28.6651 5.71473H23.67V6.11473H28.6651V5.71473ZM31.0885 8.10018C29.9787 7.85832 29.1023 6.98203 28.8605 5.87215L28.4697 5.9573C28.7448 7.22012 29.7406 8.21582 31.0033 8.491L31.0885 8.10018ZM31.2459 10.3602V8.29559H30.8459V10.3602H31.2459ZM31.71 10.8242C31.4538 10.8242 31.2459 10.6164 31.2459 10.3602H30.8459C30.8459 10.8373 31.2328 11.2242 31.71 11.2242V10.8242ZM32.1741 10.3602C32.1741 10.6164 31.9662 10.8242 31.71 10.8242V11.2242C32.1871 11.2242 32.5741 10.8373 32.5741 10.3602H32.1741ZM32.1741 7.70271V10.3602H32.5741V7.70271H32.1741ZM31.71 7.23865C31.9662 7.23865 32.1741 7.44648 32.1741 7.70271H32.5741C32.5741 7.22556 32.1871 6.83865 31.71 6.83865V7.23865ZM29.7221 5.25066C29.7221 6.34697 30.6136 7.23865 31.71 7.23865V6.83865C30.8345 6.83865 30.1221 6.12609 30.1221 5.25066H29.7221ZM29.258 4.7866C29.5142 4.7866 29.7221 4.99443 29.7221 5.25066H30.1221C30.1221 4.77351 29.7352 4.3866 29.258 4.3866V4.7866ZM23.0772 4.7866H29.258V4.3866H23.0772V4.7866ZM22.6131 5.25066C22.6131 4.99443 22.8209 4.7866 23.0772 4.7866V4.3866C22.6 4.3866 22.2131 4.77351 22.2131 5.25066H22.6131ZM20.6252 7.23865C21.7215 7.23865 22.6131 6.34705 22.6131 5.25066H22.2131C22.2131 6.12615 21.5006 6.83865 20.6252 6.83865V7.23865ZM20.1611 7.70271C20.1611 7.44648 20.369 7.23865 20.6252 7.23865V6.83865C20.148 6.83865 19.7611 7.22556 19.7611 7.70271H20.1611ZM20.1611 20.9221V7.70271H19.7611V20.9221H20.1611ZM18.6641 21.1221H19.9611V20.7221H18.6641V21.1221ZM18.4641 2.32886V20.9221H18.8641V2.32886H18.4641ZM33.6715 2.12812L18.6641 2.12886L18.6641 2.52886L33.6715 2.52813L33.6715 2.12812ZM33.8715 33.6719V2.32812H33.4715V33.6719H33.8715ZM26.1677 19.6499C25.2581 19.6499 24.5178 18.9096 24.5178 18.0001H24.1178C24.1178 19.1305 25.0372 20.0499 26.1677 20.0499V19.6499ZM27.8176 18C27.8176 18.9096 27.0773 19.6499 26.1677 19.6499V20.0499C27.2983 20.0499 28.2176 19.1304 28.2176 18H27.8176ZM26.1677 16.3501C27.0773 16.3501 27.8176 17.0905 27.8176 18H28.2176C28.2176 16.8695 27.2982 15.9501 26.1677 15.9501V16.3501ZM24.5178 18.0001C24.5178 17.0905 25.2582 16.3501 26.1677 16.3501V15.9501C25.0373 15.9501 24.1178 16.8696 24.1178 18.0001H24.5178Z" fill="#979797"/>
</svg>
