<svg width="6" height="5" viewBox="0 0 6 5" fill="none" xmlns="http://www.w3.org/2000/svg">
<path fill-rule="evenodd" clip-rule="evenodd" d="M5.47266 0H0.527344C0.23693 0 0 0.236672 0 0.527344V4.04297C0 4.33266 0.235875 4.57031 0.527344 4.57031H5.47266C5.76234 4.57031 6 4.33444 6 4.04297V0.527344C6 0.237656 5.76412 0 5.47266 0ZM5.39984 0.351562L3.01118 2.74023L0.601863 0.351562H5.39984ZM0.351562 0.598465V3.97017L2.04468 2.27706L0.351562 0.598465ZM0.600152 4.21875L2.29433 2.52457L2.88797 3.11311C2.95669 3.18124 3.06758 3.18102 3.13602 3.11257L3.71484 2.53375L5.39985 4.21875H0.600152ZM3.96343 2.28516L5.64844 3.97016V0.600141L3.96343 2.28516Z" fill="#DA634A"/>
</svg>
