<svg width="8" height="8" viewBox="0 0 8 8" fill="none" xmlns="http://www.w3.org/2000/svg">
<path d="M5.55764 0.558859H7.03218L3.6611 3.93157C3.55193 4.04073 3.55193 4.21833 3.6611 4.3275C3.71487 4.38126 3.78656 4.40896 3.85825 4.40896C3.92994 4.40896 4.00163 4.38126 4.05539 4.3275L7.4281 0.954786V2.42933C7.4281 2.58411 7.55356 2.70957 7.70672 2.70957C7.8615 2.70957 7.98696 2.58411 7.98696 2.42933V0.280244C7.98696 0.125458 7.8615 0 7.70672 0H5.55764C5.40285 0 5.27739 0.125458 5.27739 0.280244C5.27902 0.433401 5.40285 0.558859 5.55764 0.558859Z" fill="black"/>
<path d="M1.67658 7.98697H6.30876C7.23422 7.98697 7.98534 7.23422 7.98534 6.31039V4.12872C7.98534 3.97393 7.85988 3.8501 7.70509 3.8501C7.55031 3.8501 7.42648 3.97556 7.42648 4.12872V6.30876C7.42648 6.92464 6.92464 7.42648 6.30876 7.42648H1.67658C1.06069 7.42648 0.558859 6.92464 0.558859 6.30876V2.62974V1.67821C0.558859 1.06232 1.06069 0.560489 1.67658 0.560489H3.8387C3.99348 0.560489 4.11731 0.435031 4.11731 0.280244C4.11731 0.125458 3.99185 0 3.8387 0H1.67658C0.75112 0 0 0.75275 0 1.67658V2.62811V6.30876C0 7.23422 0.75275 7.98697 1.67658 7.98697Z" fill="black"/>
</svg>
