<svg width="15" height="15" viewBox="0 0 15 15" fill="none" xmlns="http://www.w3.org/2000/svg">
<path fill-rule="evenodd" clip-rule="evenodd" d="M0.585969 0H14.4141C14.7377 0 15 0.262299 15 0.585939C15 2.21764 14.3005 3.77541 13.0808 4.85952L10.5147 7.14033C10.0697 7.53584 9.81452 8.10415 9.81452 8.69959V12.1088C9.81452 12.3047 9.71655 12.4876 9.55358 12.5963L6.09648 14.9008C5.70747 15.1603 5.1856 14.8803 5.1856 14.4134V8.69959C5.1856 8.10415 4.93038 7.53584 4.48541 7.14033L1.91916 4.85952C0.6995 3.77541 0 2.21764 0 0.585939C0 0.262299 0.262313 0 0.585969 0ZM9.73612 6.26451L12.3023 3.98358C13.1248 3.25253 13.6496 2.25071 13.7902 1.17176H1.20982C1.35036 2.25071 1.87533 3.25253 2.69775 3.9837L5.26388 6.26451C5.9588 6.88226 6.35742 7.76976 6.35742 8.69959V13.3186L8.64258 11.7952V8.69948C8.64258 7.76976 9.0412 6.88226 9.73612 6.26451Z" fill="black"/>
</svg>
