<svg width="66" height="66" viewBox="0 0 66 66" fill="none" xmlns="http://www.w3.org/2000/svg">
<g clip-path="url(#clip0)">
<path d="M58.9162 9.99918H25.2862C24.9328 9.99918 24.605 9.78996 24.4103 9.44191L22.6092 6.19966C22.0222 5.14946 20.9398 4.49707 19.784 4.49707H7.083C5.27702 4.49707 3.80762 6.05413 3.80762 7.96787V30.7375C3.80762 31.3537 4.30726 31.8533 4.92343 31.8533H61.0761C61.6923 31.8533 62.192 31.3539 62.1916 30.7379V13.4701C62.1916 11.5562 60.7223 9.99918 58.9162 9.99918ZM59.9603 29.6217H6.03924V7.96774C6.03924 7.28428 6.50756 6.72844 7.08312 6.72844H19.7841C20.1376 6.72844 20.4655 6.93765 20.6602 7.2857L22.4613 10.5277C23.0482 11.5779 24.1306 12.2303 25.2864 12.2303H58.9165C59.4921 12.2303 59.9603 12.7864 59.9603 13.4697V29.6217Z" fill="#333333" fill-opacity="0.2"/>
<path d="M56.4482 18.8125H10.1788C9.56263 18.8125 9.06299 19.3121 9.06299 19.9283V30.7372C9.06299 31.3534 9.5625 31.853 10.1788 31.853H56.4482C57.0643 31.853 57.564 31.3537 57.564 30.7372V19.9283C57.5638 19.3121 57.0643 18.8125 56.4482 18.8125ZM55.3323 29.6214H11.2946V21.0441H55.3325V29.6214H55.3323Z" fill="#333333" fill-opacity="0.2"/>
<path d="M65.2282 30.7312C64.615 30.0263 63.6975 29.6221 62.7118 29.6221H3.28856C2.30269 29.6221 1.38526 30.0264 0.771926 30.7313C0.162714 31.4314 -0.099352 32.3432 0.0339371 33.2978L3.56184 58.672C3.76281 60.0934 5.03408 61.2597 6.59295 61.4597C6.75124 61.4883 6.91972 61.5033 7.08356 61.5033H58.9169C59.0806 61.5033 59.249 61.4883 59.4071 61.4599C60.9661 61.26 62.2377 60.0936 62.4386 58.6695L65.9663 33.2978C66.0993 32.3428 65.8372 31.4313 65.2282 30.7312ZM63.7563 32.99C63.7562 32.9903 63.7562 32.9904 63.7562 32.9905L60.2289 58.3599C60.169 58.7848 59.6655 59.1834 59.1067 59.2485C59.0765 59.2521 59.0466 59.2567 59.0168 59.2626C58.9896 59.2681 58.9494 59.2717 58.9169 59.2717H7.08356C7.04592 59.2717 7.00635 59.2672 6.98366 59.2626C6.95401 59.2568 6.92398 59.2519 6.89381 59.2485C6.33501 59.1835 5.8315 58.7848 5.77181 58.3622L2.24429 32.9899C2.20098 32.6791 2.27381 32.4046 2.45544 32.1961C2.64764 31.9751 2.94348 31.8536 3.28869 31.8536V31.8537H62.7119C63.057 31.8537 63.3528 31.9753 63.5449 32.1961C63.7265 32.4048 63.7997 32.6793 63.7563 32.99Z" fill="#333333" fill-opacity="0.2"/>
</g>
<defs>
<clipPath id="clip0">
<rect width="66" height="66" fill="white"/>
</clipPath>
</defs>
</svg>
