<svg width="18" height="18" viewBox="0 0 18 18" fill="none" xmlns="http://www.w3.org/2000/svg">
<path d="M14.3517 8.93595C13.934 8.93595 13.5964 9.27439 13.5964 9.69126V15.7341C13.5964 16.1503 13.2579 16.4895 12.8411 16.4895H2.26606C1.84906 16.4895 1.51076 16.1503 1.51076 15.7341V5.15913C1.51076 4.74296 1.84906 4.40382 2.26606 4.40382H8.30895C8.72664 4.40382 9.06426 4.06538 9.06426 3.64851C9.06426 3.23151 8.72664 2.89307 8.30895 2.89307H2.26606C1.01671 2.89307 0 3.90978 0 5.15913V15.7341C0 16.9835 1.01671 18.0002 2.26606 18.0002H12.8411C14.0904 18.0002 15.1071 16.9835 15.1071 15.7341V9.69126C15.1071 9.27356 14.7694 8.93595 14.3517 8.93595Z" fill="black"/>
<path d="M7.07556 8.24561C7.02256 8.29861 6.9869 8.36605 6.97178 8.43875L6.43609 11.1184C6.41111 11.2426 6.45052 11.3707 6.53987 11.4608C6.61188 11.5329 6.70886 11.5714 6.8082 11.5714C6.83234 11.5714 6.85745 11.5692 6.88243 11.5639L9.56103 11.0282C9.63526 11.0129 9.70269 10.9774 9.75499 10.9243L15.7501 4.92867L13.0715 2.25L7.07556 8.24561Z" fill="black"/>
<path d="M17.4585 0.54081C16.7377 -0.18027 15.5649 -0.18027 14.8446 0.54081L13.8213 1.56427L16.4352 4.17857L17.4585 3.15498C17.8076 2.80669 17.9999 2.34222 17.9999 1.84823C17.9999 1.35424 17.8076 0.889772 17.4585 0.54081Z" fill="black"/>
</svg>
