<?xml version="1.0" encoding="utf-8"?>
<svg width="19px" height="19px" viewBox="0 0 19 19" version="1.1" xmlns:xlink="http://www.w3.org/1999/xlink" xmlns="http://www.w3.org/2000/svg">
  <defs>
    <path d="M0 0L19 0L19 19L0 19L0 0Z" id="path_1" />
    <clipPath id="mask_1">
      <use xlink:href="#path_1" />
    </clipPath>
  </defs>
  <g id="edit--plus_circle">
    <path d="M0 0L19 0L19 19L0 19L0 0Z" id="edit--plus_circle-(BackgroundMask)" fill="none" fill-rule="evenodd" stroke="none" />
    <g clip-path="url(#mask_1)">
      <path d="M0 7.91667C0 3.54667 3.54667 0 7.91667 0C12.2867 0 15.8333 3.54667 15.8333 7.91667C15.8333 12.2867 12.2867 15.8333 7.91667 15.8333C3.54667 15.8333 0 12.2867 0 7.91667C0 3.54667 0 7.91667 0 7.91667ZM8.70833 8.70833L11.875 8.70833L11.875 7.125L8.70833 7.125L8.70833 3.95833L7.125 3.95833L7.125 7.125L3.95833 7.125L3.95833 8.70833L7.125 8.70833L7.125 11.875L8.70833 11.875L8.70833 8.70833L8.70833 8.70833Z" transform="translate(1.583313 1.583252)" id="edit--plus_circle" fill="#DA634A" fill-rule="evenodd" stroke="none" />
    </g>
  </g>
</svg>