<svg width="18" height="17" viewBox="0 0 18 17" fill="none" xmlns="http://www.w3.org/2000/svg">
<path fill-rule="evenodd" clip-rule="evenodd" d="M0.599976 8.4C0.599976 3.76809 4.36806 0 8.99998 0C13.6319 0 17.4 3.76809 17.4 8.4C17.4 13.0319 13.6319 16.8 8.99998 16.8C4.36806 16.8 0.599976 13.0319 0.599976 8.4ZM8.09488 12.3949L11.5949 8.89491C11.8686 8.62119 11.8686 8.17881 11.5949 7.90512L8.09488 4.40511C7.82119 4.13142 7.37878 4.13142 7.10509 4.40511C6.8314 4.6788 6.8314 5.12121 7.10509 5.3949L10.1102 8.4L7.10505 11.4051C6.83136 11.6788 6.83136 12.1212 7.10505 12.3949C7.24155 12.5314 7.42078 12.6 7.59996 12.6C7.77919 12.6 7.95838 12.5314 8.09488 12.3949Z" fill="black"/>
</svg>
