<svg width="16" height="16" viewBox="0 0 16 16" fill="none" xmlns="http://www.w3.org/2000/svg">
<path fill-rule="evenodd" clip-rule="evenodd" d="M7.99977 2.9973C10.7585 2.9976 13.002 5.24106 13.0022 7.99978C13.0022 10.7582 10.7582 13.0023 7.99977 13.0023C6.62057 13.0019 5.37048 12.441 4.46465 11.5352C3.55883 10.6294 2.99759 9.37899 2.9973 7.99978C2.9976 5.24165 5.24165 2.99761 7.99977 2.9973ZM5.2048 8.29482C5.27996 8.36998 5.38432 8.41656 5.49957 8.41685L7.58327 8.41655L10.5008 8.41655C10.7313 8.41655 10.9179 8.22996 10.9176 7.99975C10.9176 7.76925 10.7313 7.58296 10.5008 7.58296H7.58325L5.49956 7.58325C5.26935 7.58296 5.08276 7.76954 5.08276 8.00004C5.08276 8.115 5.12934 8.21936 5.2048 8.29482Z" fill="#DA634A"/>
</svg>
