<svg width="20" height="20" viewBox="0 0 20 20" fill="none" xmlns="http://www.w3.org/2000/svg">
<circle cx="10" cy="10" r="10" fill="#5AD3C8"/>
<path d="M10.2266 11.7642C10.5157 12.0521 10.5157 12.5455 10.2266 12.8334L9.62771 13.4297C9.33859 13.7175 8.84297 13.7175 8.55386 13.4297L5.93119 10.7978C5.64208 10.51 5.64208 10.0165 5.93119 9.72867L6.53007 9.1324C6.81918 8.84454 7.3148 8.84454 7.60392 9.1324L10.2266 11.7642Z" fill="white"/>
<path d="M12.4379 7.35576C12.7206 7.07217 13.2053 7.07217 13.488 7.35576L14.0736 7.94321C14.3563 8.22681 14.3563 8.71298 14.0736 8.99657L9.63095 13.4328C9.34824 13.7164 8.86358 13.7164 8.58087 13.4328L7.99524 12.8454C7.71252 12.5618 7.71252 12.0756 7.99524 11.792L12.4379 7.35576Z" fill="white"/>
</svg>
