<svg width="32" height="32" viewBox="0 0 32 32" fill="none" xmlns="http://www.w3.org/2000/svg">
<path d="M31.9594 13.4282C31.8733 12.8002 31.6249 12.2054 31.2389 11.7026C30.8528 11.1998 30.3423 10.8064 29.7578 10.561C29.4029 10.4061 29.1182 10.1248 28.9591 9.77176C28.8 9.41869 28.7779 9.01908 28.897 8.6506C29.0969 8.04444 29.1351 7.39658 29.0077 6.77115C28.8803 6.14572 28.5917 5.5644 28.1706 5.08474C27.7598 4.60735 27.2314 4.24544 26.6378 4.0348C26.0443 3.82415 25.406 3.77206 24.7861 3.88368C24.4075 3.94572 24.0194 3.86403 23.6979 3.65465C23.3764 3.44527 23.1448 3.12331 23.0485 2.75195C22.8925 2.13808 22.5795 1.57535 22.1403 1.11904C21.701 0.662726 21.1506 0.328528 20.5431 0.149275C19.9356 -0.0299792 19.292 -0.0481223 18.6753 0.0966275C18.0587 0.241377 17.4904 0.544041 17.0261 0.974885C16.7474 1.23771 16.3788 1.3841 15.9957 1.3841C15.6126 1.3841 15.244 1.23771 14.9653 0.974885C14.5011 0.544041 13.9327 0.241377 13.3161 0.0966275C12.6995 -0.0481223 12.0558 -0.0299792 11.4483 0.149275C10.8408 0.328528 10.2904 0.662726 9.85118 1.11904C9.41192 1.57535 9.09892 2.13808 8.94293 2.75195C8.84752 3.12367 8.61659 3.4463 8.29549 3.65649C7.97439 3.86668 7.58632 3.94923 7.20747 3.88795C6.58757 3.77568 5.9491 3.82746 5.3554 4.03814C4.76169 4.24883 4.2334 4.6111 3.82294 5.08901C3.40185 5.56867 3.11331 6.14999 2.98591 6.77542C2.8585 7.40085 2.89664 8.04871 3.09654 8.65487C3.21562 9.02324 3.19372 9.42271 3.03508 9.77585C2.87644 10.129 2.59236 10.4107 2.23788 10.5663C1.65559 10.8157 1.14728 11.2107 0.761853 11.7134C0.376429 12.216 0.126867 12.8094 0.0371815 13.4365C-0.0525036 14.0635 0.0207073 14.7031 0.249769 15.2937C0.478831 15.8842 0.856034 16.4059 1.34508 16.8085C1.64294 17.0576 1.83796 17.4083 1.89252 17.7928C1.94708 18.1773 1.85732 18.5684 1.64055 18.8906C1.28298 19.4135 1.06634 20.0198 1.01155 20.6509C0.956755 21.282 1.06566 21.9166 1.32775 22.4933C1.58984 23.0701 1.99625 23.5694 2.50771 23.9432C3.01917 24.317 3.61839 24.5526 4.24747 24.6271C4.62997 24.6755 4.98071 24.8647 5.2312 25.1578C5.48169 25.4509 5.61394 25.8268 5.60214 26.2122C5.5793 26.8495 5.72338 27.4817 6.02012 28.0462C6.31686 28.6106 6.75594 29.0878 7.29387 29.4303C7.82262 29.7731 8.43196 29.9712 9.06118 30.0051C9.6904 30.039 10.3175 29.9074 10.88 29.6234C11.2228 29.4512 11.6184 29.4161 11.9862 29.5253C12.354 29.6345 12.6664 29.8797 12.8597 30.2111C13.1824 30.7561 13.6415 31.2077 14.1917 31.5214C14.742 31.835 15.3645 32 15.9978 32C16.6312 32 17.2537 31.835 17.804 31.5214C18.3542 31.2077 18.8133 30.7561 19.136 30.2111C19.3291 29.8798 19.6412 29.6345 20.0088 29.5251C20.3764 29.4158 20.7718 29.4505 21.1146 29.6223C21.6773 29.9064 22.3046 30.0381 22.934 30.0042C23.5634 29.9703 24.1729 29.7721 24.7018 29.4292C25.2401 29.0871 25.6795 28.6103 25.9767 28.046C26.2738 27.4817 26.4182 26.8495 26.3957 26.2122C26.3836 25.8266 26.5158 25.4504 26.7663 25.1571C27.0168 24.8638 27.3677 24.6744 27.7504 24.626C28.3794 24.5514 28.9785 24.3158 29.4899 23.942C30.0014 23.5682 30.4078 23.0689 30.6699 22.4923C30.9321 21.9156 31.0411 21.2811 30.9866 20.65C30.932 20.0189 30.7156 19.4126 30.3584 18.8895C30.1412 18.5675 30.0511 18.1764 30.1055 17.7919C30.1599 17.4073 30.3549 17.0566 30.6528 16.8074C31.1451 16.406 31.5245 15.8833 31.7536 15.2908C31.9827 14.6983 32.0536 14.0564 31.9594 13.4282ZM29.2992 15.1605C28.5839 15.7435 28.1143 16.5744 27.9838 17.488C27.8534 18.4015 28.0716 19.3307 28.5952 20.0906C28.7477 20.3128 28.8396 20.571 28.8619 20.8396C28.8841 21.1082 28.836 21.378 28.7221 21.6223C28.616 21.864 28.4478 22.0732 28.2346 22.2287C28.0214 22.3843 27.7707 22.4805 27.5082 22.5076C26.5952 22.6196 25.7567 23.0678 25.1565 23.7649C24.5563 24.4619 24.2375 25.3577 24.2624 26.2772C24.2727 26.5456 24.2126 26.8119 24.0879 27.0498C23.9633 27.2877 23.7785 27.4887 23.552 27.633C23.3335 27.7771 23.0807 27.8605 22.8193 27.8745C22.558 27.8886 22.2977 27.8328 22.065 27.713C21.2395 27.3073 20.2916 27.2269 19.4095 27.4878C18.5274 27.7486 17.7756 28.3316 17.3034 29.121C17.1627 29.3394 16.9695 29.519 16.7414 29.6434C16.5133 29.7678 16.2577 29.8329 15.9978 29.8329C15.738 29.8329 15.4824 29.7678 15.2543 29.6434C15.0262 29.519 14.833 29.3394 14.6923 29.121C14.3657 28.5761 13.9035 28.1253 13.3506 27.8126C12.7978 27.4998 12.1733 27.3357 11.5381 27.3364C10.98 27.3365 10.4294 27.4657 9.92959 27.714C9.69715 27.8339 9.43696 27.8897 9.17581 27.8756C8.91466 27.8615 8.66196 27.7782 8.44373 27.634C8.21712 27.4896 8.0323 27.2884 7.90766 27.0503C7.78302 26.8123 7.72291 26.5457 7.73333 26.2772C7.75846 25.3577 7.43975 24.4618 6.83949 23.7646C6.23924 23.0675 5.40059 22.6193 4.48747 22.5076C4.22496 22.4805 3.97432 22.3843 3.76109 22.2287C3.54787 22.0732 3.37966 21.864 3.27361 21.6223C3.15969 21.378 3.11157 21.1081 3.13403 20.8394C3.15648 20.5708 3.24872 20.3126 3.40161 20.0906C3.92476 19.3304 4.14268 18.4013 4.01204 17.4878C3.88141 16.5743 3.41178 15.7435 2.69654 15.1605C2.48908 14.9907 2.32942 14.7698 2.23328 14.5195C2.13715 14.2693 2.10785 13.9983 2.14828 13.7333C2.18196 13.4693 2.28485 13.219 2.44652 13.0077C2.60819 12.7964 2.82288 12.6316 3.06881 12.5301C3.91201 12.1643 4.58935 11.4985 4.96952 10.6617C5.34969 9.82485 5.4056 8.87669 5.12641 8.001C5.04166 7.74383 5.02583 7.46892 5.08048 7.20372C5.13513 6.93851 5.25836 6.69227 5.43787 6.48954C5.60715 6.29002 5.82607 6.1387 6.07254 6.05086C6.31901 5.96303 6.5843 5.94178 6.8416 5.98928C7.74868 6.14332 8.68055 5.95158 9.45313 5.45193C10.2257 4.95228 10.7828 4.18106 11.0144 3.29061C11.0774 3.03131 11.2081 2.79341 11.3933 2.60129C11.5785 2.40917 11.8114 2.26974 12.0683 2.19728C12.3193 2.12075 12.5862 2.11243 12.8415 2.17317C13.0968 2.2339 13.3314 2.36151 13.5211 2.54288C14.1973 3.16634 15.0834 3.51248 16.0032 3.51248C16.923 3.51248 17.8091 3.16634 18.4853 2.54288V2.54288C18.6751 2.36169 18.9097 2.23429 19.165 2.17374C19.4203 2.11319 19.6872 2.12168 19.9381 2.19835C20.1949 2.27081 20.4279 2.41024 20.613 2.60236C20.7982 2.79448 20.929 3.03238 20.992 3.29168C21.2238 4.182 21.7809 4.95307 22.5534 5.45267C23.326 5.95228 24.2577 6.14413 25.1648 5.99034C25.4221 5.94351 25.6871 5.96507 25.9335 6.05286C26.1798 6.14066 26.3988 6.29161 26.5685 6.49061C26.7465 6.69336 26.8683 6.93911 26.922 7.20349C26.9757 7.46787 26.9594 7.74169 26.8746 7.9978C26.5945 8.87406 26.6499 9.82315 27.0301 10.6608C27.4103 11.4985 28.0882 12.1651 28.9322 12.5311C29.1781 12.6327 29.3928 12.7975 29.5545 13.0088C29.7162 13.2201 29.8191 13.4704 29.8528 13.7343C29.8924 13.9996 29.8621 14.2707 29.7651 14.5208C29.668 14.7709 29.5074 14.9914 29.2992 15.1605V15.1605Z" fill="black"/>
<path d="M19.2842 11.3992C19.054 11.2351 18.7681 11.1692 18.4893 11.2158C18.2105 11.2624 17.9616 11.4177 17.7973 11.6477L12.464 19.1144C12.3761 19.2279 12.312 19.3579 12.2756 19.4967C12.2392 19.6355 12.2312 19.7803 12.252 19.9223C12.2729 20.0643 12.3222 20.2006 12.3969 20.3231C12.4717 20.4456 12.5704 20.5518 12.6872 20.6352C12.804 20.7187 12.9364 20.7777 13.0765 20.8088C13.2166 20.8398 13.3615 20.8423 13.5026 20.816C13.6437 20.7897 13.7781 20.7353 13.8976 20.6559C14.0172 20.5764 14.1195 20.4737 14.1984 20.3538L19.5317 12.8872C19.6962 12.657 19.7625 12.371 19.7161 12.0919C19.6697 11.8129 19.5143 11.5637 19.2842 11.3992V11.3992Z" fill="black"/>
<path d="M13.3313 13.3345C13.9204 13.3345 14.398 12.8569 14.398 12.2678C14.398 11.6787 13.9204 11.2012 13.3313 11.2012C12.7422 11.2012 12.2646 11.6787 12.2646 12.2678C12.2646 12.8569 12.7422 13.3345 13.3313 13.3345Z" fill="black"/>
<path d="M18.6643 20.8013C19.2534 20.8013 19.731 20.3237 19.731 19.7346C19.731 19.1455 19.2534 18.668 18.6643 18.668C18.0752 18.668 17.5977 19.1455 17.5977 19.7346C17.5977 20.3237 18.0752 20.8013 18.6643 20.8013Z" fill="black"/>
</svg>
