<svg width="18" height="21" viewBox="0 0 18 21" fill="none" xmlns="http://www.w3.org/2000/svg">
<path d="M16.477 16.6154H1.52317C0.969322 16.6154 0.484706 16.3385 0.207783 15.8538C-0.0691399 15.3692 9.08971e-05 14.8154 0.277014 14.3308L1.03855 13.1538C2.28471 11.2846 2.90778 9.13846 2.90778 6.92308C2.90778 4.36154 4.56932 2.00769 6.9924 1.17692C7.40778 0.415385 8.16932 0 9.00009 0C9.83086 0 10.5924 0.415385 11.0078 1.17692C13.4309 2.00769 15.0924 4.36154 15.0924 6.92308C15.0924 9.13846 15.7155 11.2846 16.9616 13.1538L17.7232 14.3308C18.0001 14.8154 18.0693 15.3692 17.7924 15.8538C17.5847 16.3385 17.0309 16.6154 16.477 16.6154Z" fill="black"/>
<path d="M5.60767 18C5.95382 19.5923 7.33844 20.7692 8.99997 20.7692C10.6615 20.7692 12.0461 19.5923 12.3923 18H5.60767Z" fill="black"/>
</svg>
