<svg width="16" height="16" viewBox="0 0 16 16" fill="none" xmlns="http://www.w3.org/2000/svg">
<path fill-rule="evenodd" clip-rule="evenodd" d="M6.9978 0.753271L7.56614 0L9.37796 1.71407L7.58843 3.33125L7.04052 2.56336L7.59957 2.17573C5.02713 2.24519 2.72169 3.78713 1.73229 6.14329C0.719833 8.55432 1.28081 11.3338 3.15128 13.1788C5.02176 15.0239 7.83246 15.5722 10.276 14.5739C11.9099 13.9062 13.1554 12.6297 13.8067 11.0799C13.5562 10.8648 13.412 10.5536 13.4111 10.226C13.4104 9.59814 13.9262 9.08877 14.5627 9.08877C15.1992 9.08877 15.715 9.59814 15.7142 10.226C15.7135 10.7947 15.2865 11.2753 14.715 11.3505C13.9807 13.1645 12.5422 14.6622 10.6419 15.4387C7.84513 16.5814 4.61732 15.9463 2.47707 13.8352C0.336828 11.7241 -0.302506 8.55022 0.855631 5.79224C1.99864 3.07029 4.6808 1.28605 7.66086 1.23962L6.9978 0.753271ZM4.82287 6.11769C5.05978 5.88393 5.37526 5.76665 5.77011 5.76665V5.76672C6.1452 5.76672 6.46069 5.89384 6.71734 6.147C6.99372 6.41962 7.13338 6.79924 7.13338 7.28607C7.13338 7.85083 6.86591 8.43396 6.33288 9.03765C5.76035 9.68026 5.28712 10.3044 4.91202 10.9081H7.22068V11.4639H4.20067V10.9958C4.65474 10.1584 5.21775 9.36014 5.88898 8.60067C6.26408 8.17225 6.45175 7.72421 6.45175 7.25682C6.45175 6.92578 6.36198 6.67341 6.18429 6.49804C6.06586 6.3812 5.9081 6.32246 5.71067 6.32246C5.55273 6.32246 5.39499 6.40077 5.23706 6.55649C5.05938 6.73175 4.97146 7.09175 4.97146 7.63706H4.31954C4.33933 6.93599 4.50706 6.42928 4.82287 6.11769ZM9.85622 5.76665L7.8726 9.56415V10.12H9.85622V10.791V11.4638H10.5379V10.12H11.1601V9.56415H10.5379V5.76665H9.85622ZM9.85622 9.56415V6.99346L8.52452 9.56415H9.85622Z" fill="black"/>
</svg>
