<svg width="70" height="70" viewBox="0 0 70 70" fill="none" xmlns="http://www.w3.org/2000/svg">
<path d="M68.8335 0H38.5002C37.8559 0 37.3335 0.522379 37.3335 1.16667V66.5C37.3335 67.1443 37.8559 67.6667 38.5002 67.6667H39.6668V70H42.0002V67.6667H65.3335V70H67.6668V67.6667H68.8335C69.4778 67.6667 70.0002 67.1443 70.0002 66.5V1.16667C70.0002 0.522379 69.4778 0 68.8335 0ZM67.6668 65.3333H39.6668V24.5H67.6668V65.3333ZM67.6668 22.1667H39.6668V2.33333H67.6668V22.1667Z" fill="#181F3F"/>
<path d="M43.1665 8.16699H45.4998V19.8337H43.1665V8.16699Z" fill="#181F3F"/>
<path d="M43.1665 26.833H45.4998V43.1663H43.1665V26.833Z" fill="#181F3F"/>
<path d="M1.16667 67.6667H2.33333V70H4.66667V67.6667H30.3333V70H32.6667V67.6667H33.8333C34.4776 67.6667 35 67.1443 35 66.5V25.6667C35 25.0224 34.4776 24.5 33.8333 24.5H1.16667C0.522379 24.5 0 25.0224 0 25.6667V66.5C0 67.1443 0.522379 67.6667 1.16667 67.6667ZM2.33333 26.8333H32.6667V33.8333H2.33333V26.8333ZM2.33333 36.1667H32.6667V65.3333H2.33333V36.1667Z" fill="#181F3F"/>
<path d="M17.4998 37.333C10.4121 37.333 4.6665 43.0786 4.6665 50.1663C4.6665 57.2541 10.4121 62.9997 17.4998 62.9997C24.5876 62.9997 30.3332 57.2541 30.3332 50.1663C30.3246 43.082 24.5841 37.3416 17.4998 37.333ZM17.4998 60.6663C12.8884 60.6737 8.81136 57.6716 7.45044 53.2653C6.08952 48.8595 7.76261 44.0806 11.5748 41.4858C15.387 38.8916 20.4461 39.0881 24.0458 41.9706L22.3881 43.6329C19.0191 41.0774 14.2579 41.5092 11.4033 44.6298C8.54932 47.7498 8.54191 52.5304 11.3868 55.659C14.2317 58.7882 18.9912 59.2342 22.3682 56.689L24.0458 58.3666C22.1899 59.8574 19.8805 60.6686 17.4998 60.6663ZM20.175 54.4912L20.7036 55.0199C18.2677 56.6383 15.0098 56.2036 13.0844 54.0024C11.1584 51.8013 11.1606 48.5143 13.0889 46.3154C15.0173 44.1165 18.2757 43.6853 20.7093 45.3071L20.175 45.8415C19.9562 46.0602 19.8332 46.357 19.8332 46.6663V53.6663C19.8332 53.9757 19.9562 54.2725 20.175 54.4912ZM25.6956 56.7078L22.1665 53.1833V47.1494L25.6956 43.6204C28.7677 47.4434 28.7677 52.8893 25.6956 56.7123V56.7078Z" fill="#181F3F"/>
<path d="M4.6665 29.167H6.99984V31.5003H4.6665V29.167Z" fill="#181F3F"/>
<path d="M9.3335 29.167H11.6668V31.5003H9.3335V29.167Z" fill="#181F3F"/>
<path d="M14 29.167H16.3333V31.5003H14V29.167Z" fill="#181F3F"/>
<path d="M23.3335 29.167H30.3335V31.5003H23.3335V29.167Z" fill="#181F3F"/>
<path d="M1.16667 22.1667H33.8333C34.4776 22.1667 35 21.6443 35 21V1.16667C35 0.522379 34.4776 0 33.8333 0H1.16667C0.522379 0 0 0.522379 0 1.16667V21C0 21.6443 0.522379 22.1667 1.16667 22.1667ZM25.6667 2.33333H32.6667V19.8333H25.6667V2.33333ZM2.33333 2.33333H23.3333V19.8333H2.33333V2.33333Z" fill="#181F3F"/>
<path d="M28 4.66699H30.3333V7.00033H28V4.66699Z" fill="#181F3F"/>
<path d="M28 9.33301H30.3333V11.6663H28V9.33301Z" fill="#181F3F"/>
<path d="M19.8332 4.66699H5.83317C5.18888 4.66699 4.6665 5.18937 4.6665 5.83366V16.3337C4.6665 16.9779 5.18888 17.5003 5.83317 17.5003H19.8332C20.4775 17.5003 20.9998 16.9779 20.9998 16.3337V5.83366C20.9998 5.18937 20.4775 4.66699 19.8332 4.66699ZM18.6665 15.167H6.99984V7.00033H18.6665V15.167Z" fill="#181F3F"/>
<path d="M29.1665 14.583C28.1998 14.583 27.4165 15.3663 27.4165 16.333C27.4165 17.2997 28.1998 18.083 29.1665 18.083C30.1332 18.083 30.9165 17.2997 30.9165 16.333C30.9165 15.3663 30.1332 14.583 29.1665 14.583ZM29.1665 16.9163C28.8441 16.9163 28.5832 16.6554 28.5832 16.333C28.5832 16.0106 28.8441 15.7497 29.1665 15.7497C29.4889 15.7497 29.7498 16.0106 29.7498 16.333C29.7498 16.6554 29.4889 16.9163 29.1665 16.9163Z" fill="#181F3F"/>
</svg>
