<svg width="70" height="70" viewBox="0 0 70 70" fill="none" xmlns="http://www.w3.org/2000/svg">
<path d="M69.9936 24.6221C70.0107 24.4595 69.9934 24.2951 69.9429 24.1396C69.8924 23.9841 69.8098 23.8409 69.7004 23.7194C69.591 23.5979 69.4572 23.5007 69.3079 23.4342C69.1585 23.3677 68.9968 23.3333 68.8333 23.3333H62.1865L61.8333 23.0978V19.8333C61.8333 8.89729 52.9362 0 42 0C36.7399 0 31.6952 2.08958 27.9757 5.80905C24.2562 9.52852 22.1667 14.5732 22.1667 19.8333V23.0978L21.8135 23.3333H15.1667C15.0032 23.3333 14.8415 23.3677 14.6921 23.4342C14.5428 23.5007 14.409 23.5979 14.2996 23.7194C14.1902 23.8409 14.1076 23.9841 14.0571 24.1396C14.0066 24.2951 13.9893 24.4595 14.0064 24.6221L15.3437 37.3333H12.8333V36.1667C12.8333 35.9335 12.7635 35.7057 12.6327 35.5126C12.502 35.3195 12.3164 35.17 12.0999 35.0834L6.2666 32.7501C6.1288 32.695 5.98175 32.6667 5.83333 32.6667H1.16667C0.857247 32.6667 0.560501 32.7896 0.341709 33.0084C0.122916 33.2272 0 33.5239 0 33.8333V38.5C0 38.8094 0.122916 39.1062 0.341709 39.325C0.560501 39.5438 0.857247 39.6667 1.16667 39.6667H3.16575C2.4939 40.5517 2.09106 41.6115 2.00535 42.7194L0.389958 63.7194C0.328332 64.5208 0.432974 65.3262 0.697318 66.0852C0.961662 66.8442 1.38 67.5404 1.9261 68.1302C2.4722 68.7199 3.13427 69.1904 3.87078 69.5121C4.60729 69.8339 5.40235 70 6.20608 70H68.8333C69.1428 70 69.4395 69.8771 69.6583 69.6583C69.8771 69.4395 70 69.1428 70 68.8333V45.5C70 45.3251 69.9607 45.1524 69.885 44.9947C69.8093 44.837 69.6991 44.6983 69.5625 44.589L67.9232 43.2775L68.0292 43.2887L69.9936 24.6221ZM23.3333 25.1243L25.6667 23.5689L28 25.1243V32.6667H23.3333V25.1243ZM29.5199 23.3333L29.1667 23.0978V19.8333C29.1667 16.4297 30.5187 13.1655 32.9255 10.7588C35.3322 8.35208 38.5964 7 42 7C45.4036 7 48.6678 8.35208 51.0745 10.7588C53.4813 13.1655 54.8333 16.4297 54.8333 19.8333V23.0978L54.4801 23.3333H29.5199ZM56 25.1243L58.3333 23.5689L60.6667 25.1243V32.6667H56V25.1243ZM24.5 19.8333C24.5 15.192 26.3437 10.7409 29.6256 7.45896C32.9075 4.17708 37.3587 2.33333 42 2.33333C46.6413 2.33333 51.0925 4.17708 54.3744 7.45896C57.6563 10.7409 59.5 15.192 59.5 19.8333V21.5424L58.9805 21.196C58.7889 21.0682 58.5637 21 58.3333 21C58.103 21 57.8778 21.0682 57.6861 21.196L57.1667 21.5424V19.8333C57.1667 15.8109 55.5688 11.9532 52.7244 9.10888C49.8801 6.26458 46.0224 4.66667 42 4.66667C37.9775 4.66667 34.1198 6.26458 31.2755 9.10888C28.4312 11.9532 26.8333 15.8109 26.8333 19.8333V21.5424L26.3139 21.196C26.1222 21.0682 25.897 21 25.6667 21C25.4363 21 25.2111 21.0682 25.0195 21.196L24.5 21.5424V19.8333ZM18.6667 44.3333H25.6667C25.9761 44.3333 26.2728 44.2104 26.4916 43.9916C26.7104 43.7728 26.8333 43.4761 26.8333 43.1667V39.6667H36.5119C37.3926 39.6702 38.24 40.0043 38.8863 40.6027C39.5326 41.2011 39.9308 42.0203 40.0021 42.8982L41.1889 58.3333H3.14446L4.33125 42.8982C4.40252 42.0203 4.80069 41.2011 5.447 40.6027C6.09332 40.0043 6.94069 39.6702 7.82148 39.6667H17.5V43.1667C17.5 43.4761 17.6229 43.7728 17.8417 43.9916C18.0605 44.2104 18.3572 44.3333 18.6667 44.3333ZM24.5 42H19.8333V39.6667H24.5V42ZM2.33333 35H5.6086L10.5 36.9565V37.3333H2.33333V35ZM38.1267 67.6667H6.20608C5.72384 67.6667 5.24679 67.567 4.80488 67.3739C4.36297 67.1809 3.96573 66.8985 3.63807 66.5447C3.31041 66.1909 3.05941 65.7731 2.90081 65.3177C2.74222 64.8623 2.67945 64.379 2.71644 63.8982L2.96508 60.6667H41.3682L41.6162 63.8982C41.6532 64.379 41.5904 64.8622 41.4319 65.3175C41.2733 65.7729 41.0224 66.1906 40.6948 66.5444C40.3672 66.8983 39.97 67.1806 39.5282 67.3737C39.0864 67.5668 38.6094 67.6666 38.1272 67.6667H38.1267ZM67.6667 67.6667H51.3333V46.0607L56.4092 42H62.5908L67.6667 46.0607V67.6667ZM63.7292 39.9223C63.5222 39.7567 63.265 39.6666 63 39.6667H56C55.735 39.6666 55.4778 39.7567 55.2708 39.9223L49.4375 44.589C49.3009 44.6983 49.1907 44.837 49.115 44.9947C49.0392 45.1524 49 45.3251 49 45.5V67.6667H42.7935C43.6415 66.5332 44.05 65.1309 43.9434 63.7194L42.328 42.7194C42.2092 41.2564 41.5457 39.8912 40.4687 38.8938C39.3917 37.8965 37.9797 37.3396 36.5119 37.3333H17.6896L16.4621 25.6667H21V33.8333C21 34.1427 21.1229 34.4395 21.3417 34.6583C21.5605 34.8771 21.8572 35 22.1667 35H29.1667C29.4761 35 29.7728 34.8771 29.9916 34.6583C30.2104 34.4395 30.3333 34.1427 30.3333 33.8333V25.6667H53.6667V33.8333C53.6667 34.1427 53.7896 34.4395 54.0084 34.6583C54.2272 34.8771 54.5239 35 54.8333 35H61.8333C62.1427 35 62.4395 34.8771 62.6583 34.6583C62.8771 34.4395 63 34.1427 63 33.8333V25.6667H67.5375L65.8583 41.6255L63.7292 39.9223Z" fill="#181F3F"/>
<path d="M45.5002 28.0005H38.5002C38.1907 28.0005 37.894 28.1234 37.6752 28.3422C37.4564 28.561 37.3335 28.8577 37.3335 29.1672V33.8338C37.3335 34.1432 37.4564 34.44 37.6752 34.6588C37.894 34.8776 38.1907 35.0005 38.5002 35.0005H45.5002C45.8096 35.0005 46.1063 34.8776 46.3251 34.6588C46.5439 34.44 46.6668 34.1432 46.6668 33.8338V29.1672C46.6668 28.8577 46.5439 28.561 46.3251 28.3422C46.1063 28.1234 45.8096 28.0005 45.5002 28.0005ZM44.3335 32.6672H39.6668V30.3338H44.3335V32.6672Z" fill="#181F3F"/>
<path d="M59.5 53.6676C59.8093 53.668 60.1059 53.791 60.3246 54.0097C60.5433 54.2285 60.6663 54.525 60.6667 54.8343C60.6667 55.1437 60.7896 55.4405 61.0084 55.6593C61.2272 55.8781 61.5239 56.001 61.8333 56.001C62.1428 56.001 62.4395 55.8781 62.6583 55.6593C62.8771 55.4405 63 55.1437 63 54.8343C62.9991 54.1108 62.7743 53.4053 62.3566 52.8146C61.9388 52.2239 61.3485 51.7769 60.6667 51.535V50.1676C60.6667 49.8582 60.5438 49.5615 60.325 49.3427C60.1062 49.1239 59.8094 49.001 59.5 49.001C59.1906 49.001 58.8938 49.1239 58.675 49.3427C58.4562 49.5615 58.3333 49.8582 58.3333 50.1676V51.535C57.5553 51.8104 56.8996 52.352 56.4821 53.064C56.0646 53.7761 55.9122 54.6127 56.0518 55.4262C56.1914 56.2397 56.614 56.9777 57.245 57.5098C57.8759 58.042 58.6746 58.334 59.5 58.3343C59.7307 58.3343 59.9563 58.4027 60.1482 58.5309C60.34 58.6591 60.4896 58.8413 60.5779 59.0545C60.6662 59.2677 60.6893 59.5023 60.6442 59.7286C60.5992 59.9549 60.4881 60.1628 60.325 60.3259C60.1618 60.4891 59.9539 60.6002 59.7276 60.6452C59.5013 60.6902 59.2667 60.6671 59.0535 60.5788C58.8404 60.4905 58.6581 60.341 58.53 60.1491C58.4018 59.9573 58.3333 59.7317 58.3333 59.501C58.3333 59.1916 58.2104 58.8948 57.9916 58.676C57.7728 58.4572 57.4761 58.3343 57.1667 58.3343C56.8572 58.3343 56.5605 58.4572 56.3417 58.676C56.1229 58.8948 56 59.1916 56 59.501C56.0009 60.2245 56.2257 60.93 56.6434 61.5207C57.0612 62.1114 57.6515 62.5584 58.3333 62.8003V64.1676C58.3333 64.4771 58.4562 64.7738 58.675 64.9926C58.8938 65.2114 59.1906 65.3343 59.5 65.3343C59.8094 65.3343 60.1062 65.2114 60.325 64.9926C60.5438 64.7738 60.6667 64.4771 60.6667 64.1676V62.8003C61.4447 62.5248 62.1004 61.9833 62.5179 61.2713C62.9354 60.5592 63.0878 59.7226 62.9482 58.9091C62.8086 58.0956 62.386 57.3576 61.755 56.8255C61.1241 56.2933 60.3254 56.0013 59.5 56.001C59.1906 56.001 58.8938 55.8781 58.675 55.6593C58.4562 55.4405 58.3333 55.1437 58.3333 54.8343C58.3333 54.5249 58.4562 54.2281 58.675 54.0094C58.8938 53.7906 59.1906 53.6676 59.5 53.6676Z" fill="#181F3F"/>
<path d="M59.5002 46.6678C60.1445 46.6678 60.6668 46.1455 60.6668 45.5011C60.6668 44.8568 60.1445 44.3345 59.5002 44.3345C58.8558 44.3345 58.3335 44.8568 58.3335 45.5011C58.3335 46.1455 58.8558 46.6678 59.5002 46.6678Z" fill="#181F3F"/>
</svg>
