<svg width="80" height="69" viewBox="0 0 80 69" fill="none" xmlns="http://www.w3.org/2000/svg">
<path d="M80 24.4312V18.8733C80 17.3718 78.7781 16.1499 77.2766 16.1499C76.3147 16.1499 75.4108 15.7758 74.7308 15.097C74.0509 14.4159 73.6761 13.5114 73.6761 12.55V2.76367C73.6761 1.23962 72.4365 0 70.9125 0H67.5793C66.0553 0 64.8157 1.24023 64.8157 2.76367V8.49182C64.8157 12.0453 61.9818 14.9835 58.4991 15.0421C56.7676 15.069 55.1221 14.4165 53.8843 13.1989C52.6459 11.9806 51.9641 10.3534 51.9641 8.61694V2.76367C51.9641 1.23962 50.7239 0 49.1998 0H45.8673C44.3433 0 43.103 1.24023 43.103 2.76367V6.29517C43.103 6.94275 43.6279 7.46704 44.2749 7.46704C44.9225 7.46704 45.4468 6.94275 45.4468 6.29517V2.76367C45.4468 2.53235 45.6354 2.34375 45.8673 2.34375H49.1998C49.4318 2.34375 49.6204 2.53235 49.6204 2.76367V8.61694C49.6204 10.9869 50.5511 13.2074 52.2406 14.8694C53.9301 16.5314 56.1664 17.42 58.5382 17.3859C63.2922 17.3053 67.1594 13.3154 67.1594 8.49182V2.76367C67.1594 2.53235 67.348 2.34375 67.5793 2.34375H70.9125C71.1438 2.34375 71.3324 2.53235 71.3324 2.76367V12.55C71.3324 14.1364 71.9501 15.6293 73.0737 16.7542C74.1974 17.876 75.6897 18.4937 77.2766 18.4937C77.486 18.4937 77.6562 18.6639 77.6562 18.8733V23.7152L58.3893 32.959L39.1235 23.7158V18.8733C39.1235 18.7439 39.184 18.656 39.2371 18.6029C39.278 18.562 39.3665 18.4937 39.5032 18.4937C42.7808 18.4937 45.4468 15.8276 45.4468 12.55V10.9827C45.4468 10.3357 44.9225 9.81079 44.2749 9.81079C43.6279 9.81079 43.103 10.3357 43.103 10.9827V12.55C43.103 14.5349 41.488 16.1499 39.5032 16.1499C38.7732 16.1499 38.0884 16.4337 37.5775 16.9476C37.063 17.4622 36.7798 18.1464 36.7798 18.8733V24.4128C36.7792 24.4391 36.7792 24.4653 36.7798 24.4916V43.9636L30.7532 47.5757C29.9042 47.0886 28.9325 46.8262 27.9468 46.8262H20.9546V26.582H27.9468C31.0529 26.582 33.5797 24.0552 33.5797 20.9491C33.5797 17.843 31.0529 15.3162 27.9468 15.3162H26.7194V14.0363C26.7194 11.5002 24.6558 9.43726 22.1198 9.43726H20.9546V7.1405C20.9546 5.80505 19.8682 4.71863 18.5327 4.71863H15.047C13.7115 4.71863 12.6251 5.80505 12.6251 7.1405V9.43726H11.46C8.92395 9.43726 6.86035 11.5002 6.86035 14.0363V15.3162H5.63293C5.11841 15.3162 4.60876 15.3857 4.11743 15.5225C3.49426 15.6964 3.12927 16.3428 3.30322 16.9666C3.47717 17.5897 4.12292 17.9535 4.74731 17.7802C5.03357 17.7002 5.33142 17.6599 5.63293 17.6599H27.9468C29.7607 17.6599 31.236 19.1351 31.236 20.9491C31.236 22.7625 29.7607 24.2377 27.9468 24.2377H5.63293C3.81897 24.2377 2.34375 22.7625 2.34375 20.9491C2.34375 20.7629 2.35962 20.5756 2.39014 20.3937C2.49817 19.7552 2.06848 19.1504 1.43066 19.0424C0.792847 18.9337 0.187378 19.364 0.0793456 20.0024C0.0268555 20.3137 0 20.6323 0 20.9491C0 24.0552 2.52686 26.582 5.63293 26.582H12.6251V46.8262H5.63293C2.52686 46.8262 0 49.353 0 52.4591C0 53.9618 0.585327 55.3766 1.65039 56.4435C2.71545 57.5067 4.13025 58.092 5.63293 58.092H6.86096V59.3713C6.86096 61.908 8.92395 63.9716 11.4594 63.9716H12.6251V66.2683C12.6251 67.6038 13.7115 68.6902 15.047 68.6902H18.5327C19.8682 68.6902 20.9546 67.6038 20.9546 66.2683V63.9716H21.001C21.2433 64.2896 21.51 64.5917 21.8011 64.8755C23.3752 66.413 25.4169 67.1954 27.4976 67.1954H69.7467C72.2137 67.1954 74.2212 65.188 74.2212 62.7203V55.7794H74.8468C77.6886 55.7794 80 53.4674 80 50.6262V24.4714C80 24.458 80 24.4446 80 24.4312ZM14.9689 7.1405C14.9689 7.09778 15.0037 7.06238 15.047 7.06238H18.5327C18.576 7.06238 18.6108 7.09778 18.6108 7.1405V9.43726H14.9689V7.1405ZM9.2041 15.3162V14.0363C9.2041 12.7924 10.2161 11.781 11.46 11.781H13.7726H13.797H13.8208H19.7583H19.7827H19.8071H22.1198C23.3636 11.781 24.3756 12.7924 24.3756 14.0363V15.3162H9.2041ZM49.1443 41.3171C49.668 41.3171 50.1392 41.6479 50.318 42.1399C51.6785 45.8936 55.2753 48.4155 59.267 48.4155C63.3441 48.4155 66.9659 45.8221 68.2788 41.9623C68.41 41.5765 68.7726 41.3171 69.1803 41.3171H69.9084C70.9943 41.3171 71.8774 42.2003 71.8774 43.2861V58.0493H55.6531L51.8091 52.5415C51.4392 52.0111 50.708 51.8811 50.1776 52.2516C49.6472 52.6215 49.5172 53.3521 49.8871 53.8831L52.7948 58.0493H49.9829L42.7441 47.6752L44.7272 46.4862L47.2058 50.0391C47.4341 50.3656 47.7979 50.5408 48.1683 50.5408C48.3997 50.5408 48.6334 50.4724 48.8373 50.3296C49.3683 49.9591 49.4983 49.2285 49.1284 48.6981L46.6339 45.1227C47.2968 44.3756 47.6819 43.3978 47.6819 42.3773V41.3171H49.1443ZM44.3939 58.0493L38.8031 50.0372L40.7288 48.8831L47.1246 58.0493H44.3939ZM38.7231 58.0493L34.8047 52.4341L36.7877 51.2457L41.5356 58.0499H38.7231V58.0493ZM27.8699 52.0361C27.9297 52.1448 27.998 52.2498 28.0743 52.3492C28.855 53.3649 30.0378 53.9087 31.2421 53.9087C31.7554 53.9087 32.2729 53.8098 32.7649 53.606L35.8655 58.0493H21.7694C22.0575 56.402 23.0524 54.9237 24.5087 54.0515L27.8699 52.0361ZM45.3381 41.5674V42.3779C45.3381 42.9938 45.0134 43.573 44.4897 43.8959C44.469 43.9081 44.4482 43.9203 44.4281 43.9337L40.4938 46.2915C40.4736 46.3031 40.4535 46.3153 40.4333 46.3281L36.5338 48.6652C36.5265 48.6694 36.5186 48.6743 36.5112 48.6792L32.0874 51.3306C31.369 51.7615 30.4431 51.5851 29.9323 50.921C29.9261 50.9131 29.9072 50.8881 29.9152 50.8472C29.9219 50.8112 29.9432 50.7947 29.9542 50.7874L31.2964 49.9829C31.3116 49.9744 31.3275 49.9646 31.3428 49.9548L45.2856 41.5973C45.3033 41.5869 45.3204 41.5771 45.3381 41.5674ZM14.9689 26.582H18.6108V46.8262H14.9689V26.582ZM9.20471 59.3719V58.092H15.8252C16.4722 58.092 16.9971 57.5677 16.9971 56.9202C16.9971 56.2732 16.4722 55.7483 15.8252 55.7483H5.63293C4.75525 55.7483 3.92883 55.4065 3.3075 54.7864C2.68616 54.1632 2.34375 53.3368 2.34375 52.4591C2.34375 50.6458 3.81897 49.1699 5.63293 49.1699H27.9468C27.9944 49.1699 28.0414 49.1711 28.0884 49.173L23.3038 52.041C20.8588 53.5065 19.3402 56.1871 19.3402 59.0381C19.3402 59.8169 19.4501 60.5707 19.6545 61.2842C19.657 61.2933 19.66 61.3025 19.6625 61.3116C19.6643 61.3177 19.6661 61.3239 19.668 61.33C19.6967 61.4301 19.7278 61.5289 19.7607 61.6278H11.4594C10.2161 61.6278 9.20471 60.6158 9.20471 59.3719ZM18.6108 66.2683C18.6108 66.311 18.5754 66.3464 18.5327 66.3464H15.047C15.0043 66.3464 14.9689 66.311 14.9689 66.2683V63.9716H18.6108V66.2683ZM71.8774 62.7203C71.8774 63.8959 70.9216 64.8517 69.7461 64.8517C42.7148 64.8517 27.467 64.8529 27.3425 64.8499C24.6716 64.7797 22.4438 62.8992 21.8433 60.3931H38.0829C38.0933 60.3937 38.103 60.3937 38.1134 60.3937C38.1238 60.3937 38.1342 60.3937 38.1445 60.3931H43.7531C43.7634 60.3937 43.7732 60.3937 43.7836 60.3937C43.7939 60.3937 43.8043 60.3937 43.8147 60.3931H49.342C49.3524 60.3937 49.3628 60.3937 49.3726 60.3937C49.3829 60.3937 49.3933 60.3937 49.4037 60.3931H55.0122C55.0226 60.3937 55.0323 60.3937 55.0427 60.3937C55.0531 60.3937 55.0635 60.3937 55.0739 60.3931H71.8774V62.7203ZM74.8468 53.4357H74.2212V43.2861C74.2212 40.9082 72.2864 38.9734 69.9084 38.9734H69.1803C67.7686 38.9734 66.5149 39.8712 66.0596 41.2073C65.0702 44.1168 62.3401 46.0712 59.267 46.0712C56.2573 46.0712 53.5468 44.1705 52.5208 41.3416C52.0074 39.9249 50.6506 38.9734 49.1437 38.9734C46.5314 39.0405 45.5359 38.717 44.0808 39.5874L39.1229 42.5586V26.3153L57.8821 35.3156C58.0426 35.3925 58.2159 35.4309 58.3893 35.4309C58.5626 35.4309 58.736 35.3925 58.8959 35.3156L77.6556 26.3147V50.6262C77.6562 52.1753 76.3959 53.4357 74.8468 53.4357Z" fill="#181F3F"/>
<path d="M57.1672 20.6475H56.3799C55.7323 20.6475 55.208 21.1718 55.208 21.8193C55.208 22.4663 55.7323 22.9912 56.3799 22.9912H56.6277V27.0446H56.4849C55.8373 27.0446 55.313 27.5688 55.313 28.2164C55.313 28.864 55.8373 29.3883 56.4849 29.3883H59.1143C59.7618 29.3883 60.2861 28.864 60.2861 28.2164C60.2861 27.5688 59.7618 27.0446 59.1143 27.0446H58.9714V22.4517C58.9714 21.4568 58.1621 20.6475 57.1672 20.6475Z" fill="#181F3F"/>
</svg>
