<?xml version="1.0" encoding="utf-8"?>
<svg width="20px" height="23px" viewBox="0 0 20 23" version="1.1" xmlns:xlink="http://www.w3.org/1999/xlink" xmlns="http://www.w3.org/2000/svg">
  <defs>
    <filter id="filter_1">
      <feColorMatrix in="SourceGraphic" type="matrix" values="0 0 0 0 0.85490197 0 0 0 0 0.3882353 0 0 0 0 0.2901961 0 0 0 1 0" />
    </filter>
  </defs>
  <g id="8117288351583907765" filter="url(#filter_1)">
    <path d="M4.73072 2.04812C4.42099 1.7947 4.11126 1.54129 3.81561 1.27379C3.47772 0.949981 3.39325 0.569856 3.75929 0.217889C4.0831 -0.10592 4.44915 -0.0496054 4.75888 0.260125C5.50505 0.992217 6.23714 1.72431 6.96923 2.47048C7.30712 2.82244 7.29304 3.21665 6.95515 3.55454C6.25122 4.28663 5.53321 4.99056 4.80112 5.70857C4.4773 6.03238 4.09718 6.11685 3.73114 5.76489C3.36509 5.38476 3.50588 5.01872 3.82969 4.70899C4.11126 4.42741 4.42099 4.174 4.71664 3.92058C4.67441 3.85019 4.64625 3.77979 4.60401 3.72348C3.40733 3.72348 2.21064 3.72348 1.01395 3.72348C0.521198 3.72348 0.028444 3.69532 0.000286606 3.06178C-0.0137921 2.38601 0.49304 2.31561 1.02803 2.31561C2.21064 2.31561 3.39325 2.31561 4.57586 2.31561C4.64625 2.20298 4.68849 2.13259 4.73072 2.04812Z" transform="translate(8.010498 0)" id="Path" fill="#333333" stroke="none" />
    <path d="M2.22443 0.000565301C1.02774 -0.027592 0 1.00015 0 2.18276C0.0140787 3.32313 1.04182 4.35088 2.16812 4.35088C3.29441 4.35088 4.33623 3.32313 4.35031 2.19684C4.37847 1.05647 3.37888 0.0287227 2.22443 0.000565301ZM2.19627 2.94301C1.74576 2.95709 1.42195 2.66143 1.42195 2.19684C1.40787 1.73224 1.70352 1.43659 2.16812 1.42251C2.63271 1.40843 2.88613 1.71816 2.9706 2.1546C2.91429 2.6192 2.66087 2.92893 2.19627 2.94301Z" transform="translate(5.786377 17.928223)" id="Shape" fill="#333333" stroke="none" />
    <path d="M2.23851 0.000588741C1.02774 -0.0275686 0 0.957939 0 2.1687C0 3.32316 0.999586 4.33682 2.13996 4.3509C3.26625 4.36498 4.32215 3.35131 4.35031 2.21094C4.37847 1.08465 3.37888 0.0287461 2.23851 0.000588741ZM2.19627 2.95711C1.75983 2.9008 1.43602 2.70369 1.42195 2.21094C1.40787 1.73227 1.67536 1.43661 2.13996 1.40846C2.61863 1.3803 2.90021 1.69003 2.94244 2.12647C2.95652 2.59106 2.64679 2.85856 2.19627 2.95711Z" transform="translate(13.093262 17.928223)" id="Shape" fill="#333333" stroke="none" />
    <g id="Group" transform="translate(0 4.8779297)">
      <path d="M0.622875 4.4935C1.12971 4.5639 1.36904 4.25417 1.41128 3.78957C1.50983 2.90261 1.60838 2.00158 1.70693 1.11462C1.76325 0.59371 1.73509 0.0446416 1.07339 0.00240556C0.425773 -0.0398305 0.327223 0.481081 0.284987 1.01607C0.214593 1.87487 0.0878852 2.74775 0.0034132 3.60655C-0.0247442 4.04298 0.116043 4.42311 0.622875 4.4935Z" transform="translate(12.794103 5.4460416)" id="Path" fill="#333333" stroke="none" />
      <path d="M1.6209 3.15362C1.53643 2.35114 1.48012 1.54865 1.38157 0.732091C1.33933 0.32381 1.11407 0 0.663553 0C0.26935 0 -0.0263021 0.239337 0.0018553 0.647619C0.0863273 1.77391 0.198957 2.88613 0.339743 4.01242C0.396058 4.4207 0.719868 4.57557 1.11407 4.51925C1.49419 4.46294 1.64906 4.19545 1.67722 3.84348C1.67722 3.61822 1.63498 3.37888 1.6209 3.15362C1.60682 3.15362 1.60682 3.15362 1.6209 3.15362Z" transform="translate(8.741002 5.42029)" id="Path" fill="#333333" stroke="none" />
      <path d="M18.3591 2.78796C14.5578 2.78796 10.7566 2.78796 6.95533 2.78796C6.26547 2.78796 5.43483 2.98506 4.91392 2.67533C4.42116 2.37967 4.50564 1.47864 4.32261 0.845099C4.18183 0.366424 3.97065 -0.0136999 3.37934 0.000378808C2.50646 0.000378808 1.63359 0.000378808 0.774788 0.000378808C0.296113 0.000378808 -0.013618 0.211559 0.000460691 0.718391C0.0145394 1.2393 0.366506 1.39417 0.831102 1.39417C1.32386 1.39417 1.81661 1.42233 2.30936 1.38009C2.83027 1.33785 3.05553 1.49272 3.18224 2.04179C3.95657 5.15317 4.81537 8.25048 5.57562 11.3759C5.80087 12.3192 6.25139 12.6571 7.19466 12.6008C8.64477 12.5304 10.0949 12.5867 11.545 12.5867C13.0795 12.5867 14.6282 12.5445 16.1628 12.6008C16.9793 12.629 17.3595 12.3192 17.5566 11.5308C18.162 9.05297 18.8377 6.60328 19.4713 4.13951C19.7388 3.08361 19.4853 2.78796 18.3591 2.78796ZM16.2895 10.7283C16.205 11.0803 16.0501 11.1788 15.6982 11.1788C12.9669 11.1648 10.2497 11.1648 7.51847 11.1788C7.11019 11.1788 6.95533 11.0381 6.87085 10.672C6.36402 8.68692 5.84311 6.68775 5.3222 4.70266C5.23773 4.36477 5.20957 4.16767 5.67417 4.16767C9.75698 4.18175 13.8398 4.18175 17.993 4.18175C17.4017 6.42025 16.8245 8.57429 16.2895 10.7283Z" transform="translate(0.02769666 -0.000378808)" id="Shape" fill="#333333" stroke="none" />
    </g>
  </g>
</svg>