<?xml version="1.0" encoding="utf-8"?>
<svg width="21px" height="21px" viewBox="0 0 21 21" version="1.1" xmlns:xlink="http://www.w3.org/1999/xlink" xmlns="http://www.w3.org/2000/svg">
  <defs>
    <filter id="filter_1">
      <feColorMatrix in="SourceGraphic" type="matrix" values="0 0 0 0 0.85490197 0 0 0 0 0.3882353 0 0 0 0 0.2901961 0 0 0 1 0" />
    </filter>
  </defs>
  <g id="money-copy" transform="translate(0.19995117 0.20019531)" filter="url(#filter_1)">
    <path d="M0.657095 0.112794C0.58553 0.0411526 0.486209 0 0.384964 0C0.283718 0 0.184398 0.0411526 0.112794 0.112794C0.0411911 0.184436 0 0.283718 0 0.384964C0 0.486209 0.0411526 0.58553 0.112794 0.657095C0.184398 0.728698 0.283718 0.769928 0.384964 0.769928C0.486209 0.769928 0.58553 0.728736 0.657095 0.657095C0.728698 0.58553 0.769928 0.486209 0.769928 0.384964C0.769928 0.283718 0.728736 0.184398 0.657095 0.112794Z" transform="translate(2.6178691 17.4004)" id="Path" fill="#000000" stroke="none" />
    <path d="M0.657133 0.112794C0.58553 0.0411526 0.486594 0 0.384964 0C0.283718 0 0.184398 0.0411526 0.112794 0.112794C0.0412296 0.184398 0 0.283718 0 0.384964C0 0.486209 0.0411911 0.58553 0.112794 0.657095C0.184398 0.728698 0.283718 0.769928 0.384964 0.769928C0.486594 0.769928 0.58553 0.728736 0.657133 0.657095C0.729083 0.58553 0.770274 0.486209 0.770274 0.384964C0.770274 0.283718 0.729083 0.184398 0.657133 0.112794Z" transform="translate(17.41784 6.929656)" id="Path" fill="#000000" stroke="none" />
    <path d="M19.5969 0.112756C19.5247 0.0405752 19.4267 0 19.3246 0L9.85473 0.000500453C9.64215 0.000500453 9.4698 0.172887 9.4698 0.385464L9.4698 1.48635L5.82077 2.46411C5.61539 2.51916 5.49351 2.73024 5.54856 2.93558L7.43977 9.99358L5.80371 11.6296C5.59549 11.3256 5.24586 11.1256 4.85039 11.1256L1.15485 11.1256C0.518046 11.1256 0 11.6437 0 12.2805L0 18.5553C-5.57952e-17 19.1921 0.518046 19.7101 1.15485 19.7101L4.85043 19.7101C5.39142 19.7101 5.84652 19.3361 5.97125 18.8332L6.42897 19.2324C6.78233 19.5405 7.23505 19.7102 7.70389 19.7102L19.3247 19.7102C19.5373 19.7102 19.7096 19.5378 19.7096 19.3252L19.7096 0.384964C19.7096 0.282871 19.6691 0.184937 19.5969 0.112756ZM5.23531 18.5553C5.23531 18.7675 5.06262 18.9403 4.85035 18.9403L1.15481 18.9403C0.942545 18.9403 0.769851 18.7676 0.769851 18.5553L0.769851 12.2805C0.769851 12.0683 0.942545 11.8956 1.15481 11.8956L2.61764 11.8956L2.61764 16.3302C2.61764 16.5427 2.79002 16.7151 3.0026 16.7151C3.21518 16.7151 3.38757 16.5427 3.38757 16.3302L3.38757 11.8956L4.85039 11.8956C5.06266 11.8956 5.23535 12.0683 5.23535 12.2805L5.23535 18.5553L5.23531 18.5553ZM6.39186 3.10816L9.4698 2.28341L9.4698 3.7099L9.2118 3.77904C9.11313 3.80548 9.02909 3.86996 8.97805 3.95839C8.927 4.04682 8.91314 4.15187 8.93959 4.2505C9.08753 4.80258 8.75873 5.37205 8.20666 5.52C8.10791 5.54648 8.02372 5.61108 7.97271 5.6997C7.92171 5.78828 7.90796 5.89353 7.93464 5.99223L9.43519 11.5487L8.66257 11.5487L8.2644 9.991C8.25174 9.94142 8.22956 9.89573 8.19988 9.856L6.39186 3.10816ZM9.4698 5.4753L9.4698 8.72366L8.76766 6.12381C9.06097 5.97237 9.30099 5.74578 9.4698 5.4753ZM15.0003 18.9402L7.70382 18.9402L7.70382 18.9402C7.42106 18.9402 7.14801 18.8379 6.93489 18.6521L6.00524 17.8413L6.00524 12.517L7.68592 10.8363L7.99073 12.0289C8.03431 12.1993 8.18779 12.3185 8.36368 12.3185L15.9322 12.319C16.2294 12.319 16.4712 12.5608 16.4712 12.8579C16.4712 13.1551 16.2294 13.3969 15.9322 13.3969L12.0541 13.3969C11.8415 13.3969 11.6691 13.5693 11.6691 13.7819C11.6691 13.9944 11.8415 14.1668 12.0541 14.1668L17.1372 14.1668C17.4344 14.1668 17.6761 14.4086 17.6761 14.7058C17.6761 15.003 17.4344 15.2447 17.1372 15.2447L12.0541 15.2447C11.8415 15.2447 11.6691 15.4171 11.6691 15.6297C11.6691 15.8423 11.8415 16.0146 12.0541 16.0146L16.3135 16.0146C16.6106 16.0146 16.8524 16.2564 16.8524 16.5536C16.8524 16.8508 16.6106 17.0925 16.3135 17.0925L12.0541 17.0925C11.8415 17.0925 11.6691 17.2649 11.6691 17.4775C11.6691 17.6901 11.8415 17.8625 12.0541 17.8625L15.0003 17.8625C15.2975 17.8625 15.5393 18.1042 15.5393 18.4014C15.5393 18.6985 15.2975 18.9402 15.0003 18.9402ZM18.9397 18.9402L18.9397 18.9402L16.1926 18.9402C16.2673 18.7757 16.3092 18.5934 16.3092 18.4013C16.3092 18.2092 16.2673 18.0268 16.1926 17.8623L16.3135 17.8623C17.0351 17.8623 17.6223 17.2752 17.6223 16.5535C17.6223 16.343 17.5721 16.1441 17.4834 15.9677C18.0376 15.8155 18.446 15.3075 18.446 14.7057C18.446 14.4137 18.3498 14.1438 18.1876 13.926L18.1876 9.04692C18.1876 8.83434 18.0152 8.66195 17.8027 8.66195C17.5901 8.66195 17.4177 8.83434 17.4177 9.04692L17.4177 13.4275C17.3272 13.4077 17.2334 13.3969 17.1371 13.3969L17.1245 13.3969C17.1991 13.2324 17.241 13.05 17.241 12.8579C17.241 12.1362 16.6539 11.5491 15.9322 11.5491L15.3134 11.5491C15.9705 11.2673 16.4319 10.6142 16.4319 9.85507C16.4319 8.83919 15.6055 8.01271 14.5896 8.01271C13.5738 8.01271 12.7473 8.83919 12.7473 9.85507C12.7473 10.6142 13.2088 11.2673 13.8659 11.5491L11.7616 11.5491L11.7616 4.22933C12.4493 4.07946 12.9919 3.53685 13.1417 2.84912L16.0375 2.84912C16.1873 3.53685 16.7299 4.07946 17.4176 4.22933L17.4176 5.42618C17.4176 5.63876 17.59 5.81114 17.8026 5.81114C18.0152 5.81114 18.1876 5.63876 18.1876 5.42618L18.1876 3.88563C18.1876 3.67305 18.0152 3.50067 17.8026 3.50067C17.2311 3.50067 16.7661 3.03567 16.7661 2.46415C16.7661 2.25158 16.5937 2.07919 16.3812 2.07919L12.7981 2.07919C12.5855 2.07919 12.4131 2.25158 12.4131 2.46415C12.4131 3.03571 11.9482 3.50067 11.3766 3.50067C11.1641 3.50067 10.9917 3.67305 10.9917 3.88563L10.9917 11.5491L10.2398 11.5491L10.2398 0.770351L18.9397 0.769928L18.9397 18.9402ZM14.5897 10.9275C13.9984 10.9275 13.5173 10.4464 13.5173 9.85511C13.5173 9.26381 13.9984 8.78268 14.5897 8.78268C15.181 8.78268 15.6621 9.26377 15.6621 9.85507C15.6621 10.4464 15.181 10.9275 14.5897 10.9275Z" transform="translate(0.00026947464 0)" id="Shape" fill="#000000" stroke="#979797" stroke-width="0.4" />
  </g>
</svg>