<svg width="177" height="111" viewBox="0 0 177 111" fill="none" xmlns="http://www.w3.org/2000/svg">
<path fill-rule="evenodd" clip-rule="evenodd" d="M153.32 110.635C153.32 110.635 166.07 113.662 172.347 99.9441C180.49 82.1465 169.061 65.2397 149.345 64.022C120.91 62.2658 136.669 16.8039 91.7979 29.139C79.1807 32.6074 51.7381 14.7023 35.5832 45.0404C32.8362 50.1991 24.6245 49.9459 13.6841 58.7465C-5.61521 74.271 1.33237 110.8 17.5933 110.966C33.8542 111.132 153.32 110.635 153.32 110.635Z" fill="#FCECDB"/>
<path fill-rule="evenodd" clip-rule="evenodd" d="M20 110.884C20 110.884 20.5883 107.109 28.0958 106.094C35.6033 105.078 42.5839 96.9351 54.9646 98.1169C67.3454 99.2988 77.6188 106.715 91.7117 104.442C105.805 102.17 114.629 105.066 117.79 107.351C120.951 109.635 134.034 106.814 135 111L20 110.884Z" fill="#A8D29F"/>
<path fill-rule="evenodd" clip-rule="evenodd" d="M51.3197 19.0004C51.3197 19.0004 42.8037 18.5842 47.3213 44.5212C47.3213 44.5212 50.3605 53.3254 46.5239 59H103V19.0004H51.3197Z" fill="#AFCDFB"/>
<path fill-rule="evenodd" clip-rule="evenodd" d="M57.8553 85.6964C57.8553 85.6964 53.8507 81.0201 57.6084 78.0497C57.6084 78.0497 60.353 76.3865 62.5911 76.5215C62.5911 76.5215 59.4199 81.8443 60.4459 82.3738C61.4718 82.9032 63.5523 76.1876 63.5523 76.1876C63.5523 76.1876 69.7983 75.5814 71.8078 76.5484C71.8078 76.5484 66.4681 80.922 67.5926 81.1824C68.7172 81.4428 74.4846 77.1498 74.4846 77.1498C74.4846 77.1498 80.2981 78.1401 79.988 81.6898C79.6781 85.2395 77.6749 86.3356 76.7946 86.2411C75.9142 86.1469 70.7642 84.179 70.652 84.9011C70.5399 85.623 73.6399 87.9829 75.8107 88.0932C75.8107 88.0932 71.7122 92.6175 68.9882 91.3118C66.2644 90.006 66.0318 87.9363 64.3339 87.16C62.636 86.3837 61.1865 86.3857 61.8875 87.1773C62.5886 87.9691 65.6615 88.7386 66.6325 90.4578C67.6036 92.177 68.4747 93.3366 65.6566 92.912C62.8384 92.4876 58.2575 90.4236 58.0564 88.06L57.8553 85.6964Z" fill="#599DAD"/>
<path fill-rule="evenodd" clip-rule="evenodd" d="M76 82.0264C76 82.0264 60.7581 81.441 57.3922 85.7851C57.3922 85.7851 56.6478 88.007 54.3571 90.0302L54 91C54 91 56.6412 88.2247 57.5863 88.0567C57.5863 88.0567 56.1083 82.6749 76 82.0264Z" fill="#599DAD"/>
<path fill-rule="evenodd" clip-rule="evenodd" d="M53.2104 90.4275C53.2104 90.4275 50.2085 93.1235 50 97.9408L50.5448 98C50.5448 98 51.5036 93.019 53.2366 91.0711C54.9694 89.1232 53.2104 90.4275 53.2104 90.4275Z" fill="#599DAD"/>
<path fill-rule="evenodd" clip-rule="evenodd" d="M42.8964 80.0184C42.8964 80.0184 49.1385 76.5544 46.2255 71.8532C46.2255 71.8532 43.895 68.9666 41.3982 68.2243C41.3982 68.2243 42.7299 75.2348 41.3982 75.3997C40.0665 75.5646 40.4827 67.4821 40.4827 67.4821C40.4827 67.4821 33.9076 64.3479 31.3276 64.5954C31.3276 64.5954 35.4057 71.4409 34.0741 71.2759C32.7425 71.1109 28.1649 64.183 28.1649 64.183C28.1649 64.183 21.4233 62.9459 20.3414 66.9047C19.2594 70.8636 21.0072 72.843 22.0059 73.0904C23.0046 73.3379 29.4133 73.2554 29.2468 74.0801C29.0804 74.9049 24.7524 76.2244 22.3389 75.4822C22.3389 75.4822 25.0022 81.9978 28.4977 81.6679C31.9934 81.338 33.0753 79.1937 35.2394 79.0287C37.4032 78.8637 38.9846 79.4411 37.9026 80.0184C36.8206 80.5957 33.1586 80.2077 31.4107 81.68C29.663 83.1524 28.248 84.0597 31.494 84.7194C34.7398 85.3793 40.5658 84.9669 41.7311 82.4927L42.8964 80.0184Z" fill="#6BB7BF"/>
<path fill-rule="evenodd" clip-rule="evenodd" d="M24 68C24 68 41.3622 73.569 43.3465 79.7931C43.3465 79.7931 43.2638 82.5776 45 85.7715V87C45 87 43.1811 82.8233 42.1889 82.25C42.1889 82.25 46.0748 76.8448 24 68Z" fill="#6BB7BF"/>
<path fill-rule="evenodd" clip-rule="evenodd" d="M45.0153 86.7886C45.0153 86.7886 48.2927 90.943 46.4243 96L45.5811 95.8109C45.5811 95.8109 46.3995 90.2409 44.6849 87.4395C42.9703 84.6381 45.0153 86.7886 45.0153 86.7886Z" fill="#6BB7BF"/>
<path fill-rule="evenodd" clip-rule="evenodd" d="M53.4715 75.3579C53.4715 75.3579 45.1487 70.7392 49.0327 64.471C49.0327 64.471 52.1399 60.6222 55.469 59.6325C55.469 59.6325 53.6935 68.9797 55.469 69.1996C57.2446 69.4196 56.6897 58.6428 56.6897 58.6428C56.6897 58.6428 65.4565 54.464 68.8966 54.7939C68.8966 54.7939 63.459 63.9212 65.2345 63.7012C67.0101 63.4812 73.1135 54.244 73.1135 54.244C73.1135 54.244 82.1023 52.5945 83.5449 57.873C84.9874 63.1515 82.6571 65.7907 81.3255 66.1206C79.9938 66.4505 71.449 66.3405 71.6709 67.4402C71.8929 68.5398 77.6634 70.2993 80.8816 69.3097C80.8816 69.3097 77.3305 77.997 72.6696 77.5572C68.0089 77.1173 66.5662 74.2582 63.681 74.0382C60.7957 73.8183 58.6872 74.5881 60.1298 75.3579C61.5724 76.1277 66.4552 75.6101 68.7857 77.5733C71.1161 79.5366 73.0025 80.7463 68.6747 81.626C64.3468 82.5057 56.5787 81.9559 55.0251 78.6568L53.4715 75.3579Z" fill="#86D1CD"/>
<path fill-rule="evenodd" clip-rule="evenodd" d="M79 60C79 60 55.8504 67.3275 53.2047 75.5172C53.2047 75.5172 53.3149 79.181 51 83.3836V85C51 85 53.4252 79.5043 54.748 78.7499C54.748 78.7499 49.5668 71.6379 79 60Z" fill="#6BB7BF"/>
<path fill-rule="evenodd" clip-rule="evenodd" d="M50.9847 84.0252C50.9847 84.0252 47.7073 89.4259 49.5757 96L50.4189 95.7542C50.4189 95.7542 49.6003 88.5132 51.3151 84.8714C53.0297 81.2296 50.9847 84.0252 50.9847 84.0252Z" fill="#6BB7BF"/>
<path fill-rule="evenodd" clip-rule="evenodd" d="M53 109C61.8366 109 69 101.837 69 93H37C37 101.837 44.1634 109 53 109Z" fill="#EFCBAB"/>
<path fill-rule="evenodd" clip-rule="evenodd" d="M57 108.878C56.3126 108.959 55.6117 109 54.9002 109C45.5662 109 38 101.836 38 93H42.1987C42.1987 101.164 48.6566 107.899 57 108.878Z" fill="#FFEBDC"/>
<path fill-rule="evenodd" clip-rule="evenodd" d="M69 111H36C36 109.343 36.899 108 38.008 108H66.992C68.1011 108 69 109.343 69 111Z" fill="#EFCBAB"/>
<mask id="mask0" mask-type="alpha" maskUnits="userSpaceOnUse" x="0" y="0" width="177" height="111">
<path fill-rule="evenodd" clip-rule="evenodd" d="M0 111H177V0H0V111Z" fill="white"/>
</mask>
<g mask="url(#mask0)">
<path fill-rule="evenodd" clip-rule="evenodd" d="M36 94H69V93H36V94Z" fill="#EFCDAF"/>
<path fill-rule="evenodd" clip-rule="evenodd" d="M111.92 32.0052C111.92 32.0052 109.106 26.6351 113.322 24.5902C113.322 24.5902 116.292 23.584 118.396 24.1992C118.396 24.1992 114.235 28.636 115.099 29.3681C115.963 30.1003 119.383 24.0861 119.383 24.0861C119.383 24.0861 125.463 24.8566 127.17 26.223C127.17 26.223 121.147 29.2762 122.162 29.7707C123.178 30.2651 129.591 27.3826 129.591 27.3826C129.591 27.3826 134.917 29.5963 133.862 32.9463C132.806 36.2964 130.663 36.9174 129.845 36.6357C129.026 36.354 124.542 33.3431 124.28 34.0139C124.019 34.6847 126.467 37.6285 128.511 38.2054C128.511 38.2054 123.638 41.6724 121.323 39.8248C119.008 37.9772 119.229 35.9342 117.778 34.8188C116.327 33.7034 114.945 33.391 115.444 34.3051C115.942 35.2194 118.705 36.6263 119.262 38.492C119.818 40.3577 120.4 41.6628 117.806 40.6432C115.213 39.6236 111.291 36.6433 111.605 34.3244L111.92 32.0052Z" fill="#599DAD"/>
<path fill-rule="evenodd" clip-rule="evenodd" d="M131 31.9244C131 31.9244 115.906 27.8875 111.565 31.5075C111.565 31.5075 110.32 33.5802 107.575 35.1026L107 36C107 36 110.264 33.7982 111.246 33.8426C111.246 33.8426 110.983 28.0804 131 31.9244Z" fill="#599DAD"/>
<path fill-rule="evenodd" clip-rule="evenodd" d="M107.053 36.1945C107.053 36.1945 103.209 37.7858 102 41.8235L102.586 42C102.586 42 104.652 37.9972 106.951 36.7466C109.25 35.4959 107.053 36.1945 107.053 36.1945Z" fill="#599DAD"/>
<path fill-rule="evenodd" clip-rule="evenodd" d="M92.7318 22.5314C92.7318 22.5314 84.2233 18.0599 87.9394 11.5334C87.9394 11.5334 90.9475 7.50408 94.2652 6.39158C94.2652 6.39158 92.7622 16.003 94.5543 16.1743C96.3463 16.3456 95.4627 5.3428 95.4627 5.3428C95.4627 5.3428 104.152 0.80534 107.621 1.03889C107.621 1.03889 102.429 10.5358 104.208 10.2573C105.987 9.97886 111.845 0.349393 111.845 0.349393C111.845 0.349393 120.833 -1.60852 122.443 3.74531C124.054 9.09906 121.79 11.8681 120.461 12.2455C119.132 12.6231 110.536 12.7685 110.793 13.8862C111.049 15.004 116.905 16.6289 120.111 15.5198C120.111 15.5198 116.803 24.5101 112.103 24.201C107.403 23.8918 105.866 21.0118 102.958 20.874C100.05 20.7362 97.9532 21.5869 99.427 22.3305C100.901 23.0741 105.795 22.3975 108.198 24.3347C110.6 26.2718 112.534 27.4518 108.209 28.4819C103.883 29.5121 96.0556 29.1844 94.3937 25.8578L92.7318 22.5314Z" fill="#86D1CD"/>
<path fill-rule="evenodd" clip-rule="evenodd" d="M119 5C119 5 95.475 13.0588 93.0162 21.3847C93.0162 21.3847 93.244 25.0716 91 29.3722L91.0504 31C91.0504 31 93.3672 25.3939 94.701 24.5954C94.701 24.5954 89.1623 17.5843 119 5Z" fill="#6BB7BF"/>
<path fill-rule="evenodd" clip-rule="evenodd" d="M90.9263 31.0501C90.9263 31.0501 87.5323 36.5244 89.7545 43L90.6618 42.7286C90.6618 42.7286 89.5585 35.5563 91.31 31.8807C93.0614 28.2051 90.9263 31.0501 90.9263 31.0501Z" fill="#6BB7BF"/>
<path fill-rule="evenodd" clip-rule="evenodd" d="M55 111H114V34H55V111Z" fill="#9ABCEF"/>
<path fill-rule="evenodd" clip-rule="evenodd" d="M57 111H115V34H57V111Z" fill="#E9F3FE"/>
<path fill-rule="evenodd" clip-rule="evenodd" d="M156.393 111H144.195C143.541 110.468 144.647 109.259 145.803 109.177C146.305 109.141 146.939 109.242 147.665 109.389C147.832 107.248 148.791 97.6246 152.404 98.0113C156.466 98.4443 152.404 102.249 151.256 104.502C150.405 106.171 149.508 108.564 149.098 109.693C149.427 109.762 149.769 109.829 150.118 109.89C150.656 108.303 152.659 102.964 155.207 103.275C158.198 103.639 156.996 105.78 154.876 107.051C153.32 107.985 151.41 109.313 150.503 109.955C151.272 110.075 152.074 110.157 152.888 110.138C154.978 110.091 155.998 110.682 156.393 111Z" fill="#A8D29F"/>
<path fill-rule="evenodd" clip-rule="evenodd" d="M114.671 33.9992L114.67 34H56.9629C57.2821 29.7196 56.8012 26.6113 56.0305 24.3762C54.5506 20.0783 52 19 52 19H106.423C111.068 19 114.67 21.7448 115.651 25.3882C115.687 25.5253 115.721 25.6618 115.751 25.7982C116.681 29.9666 114.709 33.923 114.671 33.9992Z" fill="#E9F3FE"/>
<path fill-rule="evenodd" clip-rule="evenodd" d="M113.67 33.9992L113.669 34H55.9328C56.2522 29.5523 55.7711 26.3225 55 24C60.9003 25.1007 75.5141 27.446 91.1561 27.0509C101.276 26.7952 109.272 26.1055 114.751 25.4776C115.682 29.8089 113.708 33.92 113.67 33.9992Z" fill="#D8E8FD"/>
<path fill-rule="evenodd" clip-rule="evenodd" d="M98.4422 52H68.5579C68.251 52 68 51.6417 68 51.204V50.7958C68 50.3581 68.251 50 68.5579 50H98.4422C98.749 50 99 50.3581 99 50.7958V51.204C99 51.6417 98.749 52 98.4422 52Z" fill="#BBD5FC"/>
<path fill-rule="evenodd" clip-rule="evenodd" d="M87.544 54H68.456C68.2052 54 68 53.7172 68 53.3717V52.6283C68 52.2827 68.2052 52 68.456 52H87.544C87.7948 52 88 52.2827 88 52.6283V53.3717C88 53.7172 87.7948 54 87.544 54Z" fill="#BBD5FC"/>
<path fill-rule="evenodd" clip-rule="evenodd" d="M65.0661 53.3624V50.6375H64.581C64.2867 50.6375 64.1397 50.5469 64.1397 50.3651C64.1397 50.2343 64.2548 50.1416 64.4854 50.0872C64.6029 50.0582 64.7905 50.0363 65.0478 50.0217C65.3051 50.0073 65.5122 50 65.6691 50C65.821 50 65.9166 50.0227 65.9559 50.0681C65.995 50.1136 66.0148 50.2288 66.0148 50.4142V53.3624H66.5147C66.8383 53.3624 67 53.4659 67 53.6731C67 53.891 66.8383 54 66.5147 54H64.5C64.3579 54 64.239 53.9719 64.1434 53.9156C64.0478 53.8593 64 53.7802 64 53.6785C64 53.4678 64.1642 53.3624 64.4926 53.3624H65.0661Z" fill="#BBD5FC"/>
<path fill-rule="evenodd" clip-rule="evenodd" d="M98.4422 67H68.5579C68.251 67 68 66.6419 68 66.2041V65.7959C68 65.3582 68.251 65 68.5579 65H98.4422C98.749 65 99 65.3582 99 65.7959V66.2041C99 66.6419 98.749 67 98.4422 67Z" fill="#D2E4FD"/>
<path fill-rule="evenodd" clip-rule="evenodd" d="M87.544 70H68.456C68.2052 70 68 69.7174 68 69.3718V68.6283C68 68.2828 68.2052 68 68.456 68H87.544C87.7948 68 88 68.2828 88 68.6283V69.3718C88 69.7174 87.7948 70 87.544 70Z" fill="#D2E4FD"/>
<path fill-rule="evenodd" clip-rule="evenodd" d="M66 68.6958C66 68.8987 65.8346 69 65.5042 69H63.4456C63.1486 69 63 68.8977 63 68.6932C63 68.6286 63.0397 68.5532 63.1193 68.4671C63.2363 68.3522 63.408 68.1799 63.6339 67.9502C63.9768 67.5805 64.2636 67.2612 64.4938 66.9919C64.5732 66.9022 64.6861 66.7659 64.8326 66.5827C64.954 66.3996 65.0147 66.2454 65.0147 66.1197C65.0147 65.9798 64.9623 65.8641 64.8577 65.7725C64.7531 65.681 64.6192 65.6353 64.4561 65.6353C64.297 65.6353 64.159 65.6782 64.0418 65.7645C63.9623 65.8219 63.8995 65.9296 63.8535 66.0875C63.795 66.292 63.7573 66.4105 63.7405 66.4428C63.6778 66.5577 63.5753 66.6151 63.4331 66.6151C63.3076 66.6151 63.2092 66.5756 63.138 66.4967C63.0711 66.4284 63.0377 66.3387 63.0377 66.2274C63.0377 66.1019 63.0606 65.9744 63.1068 65.8452C63.2071 65.5688 63.3849 65.3571 63.6401 65.2099C63.8827 65.0699 64.1777 65 64.5251 65C64.9058 65 65.2237 65.0989 65.479 65.2966C65.7426 65.505 65.8744 65.7711 65.8744 66.0946C65.8744 66.3356 65.7803 66.5835 65.5919 66.8387C65.4873 66.979 65.272 67.2271 64.9456 67.5829C64.7782 67.7663 64.5146 68.0322 64.1548 68.381H65.5104C65.8368 68.381 66 68.4858 66 68.6958Z" fill="#D2E4FD"/>
<path fill-rule="evenodd" clip-rule="evenodd" d="M98.4422 80H68.5579C68.251 80 68 79.6419 68 79.2042V78.7959C68 78.3582 68.251 78 68.5579 78H98.4422C98.749 78 99 78.3582 99 78.7959V79.2042C99 79.6419 98.749 80 98.4422 80Z" fill="#D2E4FD"/>
<path fill-rule="evenodd" clip-rule="evenodd" d="M87.544 82H68.456C68.2052 82 68 81.7173 68 81.3717V80.6282C68 80.2827 68.2052 80 68.456 80H87.544C87.7948 80 88 80.2827 88 80.6282V81.3717C88 81.7173 87.7948 82 87.544 82Z" fill="#D2E4FD"/>
<path fill-rule="evenodd" clip-rule="evenodd" d="M66 80.8006C66 81.167 65.8478 81.461 65.5437 81.683C65.2563 81.8943 64.8916 82 64.45 82C64.1083 82 63.8166 81.9313 63.575 81.794C63.1916 81.5756 63 81.3131 63 81.0067C63 80.9186 63.0334 80.8427 63.1001 80.7794C63.1667 80.716 63.252 80.6843 63.3563 80.6843C63.4645 80.6843 63.5666 80.7461 63.6625 80.8692C63.8166 81.0736 63.9064 81.1864 63.9313 81.2075C64.0687 81.3308 64.2458 81.3924 64.4625 81.3924C64.7542 81.3924 64.9625 81.3008 65.0875 81.1176C65.1457 81.026 65.175 80.9099 65.175 80.7688C65.175 80.4237 64.9353 80.2317 64.4562 80.1929C64.1854 80.1718 64.05 80.075 64.05 79.9023C64.05 79.7755 64.1286 79.6857 64.2859 79.6328C64.5797 79.5412 64.7287 79.4937 64.7328 79.4902C64.89 79.4021 64.9688 79.2488 64.9688 79.0304C64.9688 78.9002 64.9231 78.7971 64.8318 78.7213C64.7403 78.6456 64.6178 78.6077 64.4643 78.6077C64.2732 78.6077 64.1238 78.6465 64.0158 78.7239C63.9245 78.7908 63.8476 78.9054 63.7853 79.0674C63.7354 79.1907 63.64 79.2523 63.4989 79.2523C63.3991 79.2523 63.3171 79.2153 63.2528 79.1414C63.1885 79.0674 63.1561 78.9864 63.1561 78.8984C63.1561 78.7891 63.1916 78.6799 63.2625 78.5707C63.3792 78.3876 63.5583 78.245 63.8 78.1426C64.0209 78.0475 64.2625 78 64.525 78C64.8791 78 65.1738 78.0907 65.4093 78.2721C65.6447 78.4536 65.7625 78.6923 65.7625 78.9882C65.7625 79.344 65.5875 79.6257 65.2375 79.8337C65.7457 80.0061 66 80.3285 66 80.8006Z" fill="#D2E4FD"/>
<path fill-rule="evenodd" clip-rule="evenodd" d="M95.414 39H76.5859C76.2637 39 76 38.6798 76 38.2883V37.7116C76 37.3204 76.2637 37 76.5859 37H95.414C95.7363 37 96 37.3204 96 37.7116V38.2883C96 38.6798 95.7363 39 95.414 39Z" fill="#BBD5FC"/>
<path fill-rule="evenodd" clip-rule="evenodd" d="M101.259 42H71.7406C71.3333 42 71 41.6072 71 41.1272V40.8729C71 40.3928 71.3333 40 71.7406 40H101.259C101.667 40 102 40.3928 102 40.8729V41.1272C102 41.6072 101.667 42 101.259 42Z" fill="#BBD5FC"/>
<path fill-rule="evenodd" clip-rule="evenodd" d="M83.5001 59C77.2435 59 71.3064 58.2543 66.8802 57.1884C62.4086 56.1115 60 54.3514 60 52.7903C60 51.3755 61.9629 50.0741 65.6767 49.027C62.1177 50.0305 60.2143 51.5039 60.2143 52.7903C60.2143 54.2177 62.6815 55.6307 66.9832 56.6666C71.3937 57.7288 77.2595 58.3138 83.5 58.3138C89.7405 58.3138 95.6063 57.7288 100.017 56.6666C104.319 55.6307 106.786 54.2177 106.786 52.7903C106.786 51.2787 104.188 49.3999 100.006 47.8874C95.2506 46.1675 89.3886 45.5294 83.5001 45.5294C72.4448 45.5294 67.8937 46.7553 63.9453 48.2914C67.9109 46.7486 72.4056 45 83.5 45C89.4123 45 95.2994 45.9517 100.077 47.6795C104.347 49.224 107 51.1824 107 52.7903C107 54.3514 104.537 55.8042 100.066 56.8811C95.6396 57.947 89.7565 59 83.5001 59Z" fill="#C65447"/>
<path fill-rule="evenodd" clip-rule="evenodd" d="M123 75.3541C123 75.3541 122.755 77.0804 122.486 77.4069C122.218 77.7336 121.073 78.777 120.586 78.9818C120.099 79.1865 120.884 77.6069 120.784 77.2994C120.685 76.9921 120.383 77.8604 120.168 77.8808C119.953 77.9013 120.009 77.1197 120.001 76.8353C119.993 76.5508 121.046 75.8487 121.418 75.2431C121.789 74.6375 123 75.3541 123 75.3541Z" fill="#FFB27D"/>
<path fill-rule="evenodd" clip-rule="evenodd" d="M98 56.4441L97.4516 55.5815C97.4516 55.5815 97.7238 54.044 95.4133 53.0716C95.4133 53.0716 94.5689 52.7849 94.0922 53.3591C93.6531 53.888 94.9289 53.7925 94.8605 54.6972C94.7921 55.602 95.3071 56.1329 96.0242 56.4276L96.6167 57L98 56.4441Z" fill="#FFB27D"/>
<path fill-rule="evenodd" clip-rule="evenodd" d="M115 52.3212C115 52.3212 113.35 61.0817 104.272 63.944C101.438 64.8377 95 54.7431 95 54.7431C95 54.7431 95.2264 53.8125 96.6443 54.0263C96.6443 54.0263 102.913 58.5163 103.702 59.0042C104.403 59.437 109.008 53.4404 111.107 52.4731C113.206 51.5059 115 52.3212 115 52.3212Z" fill="#E58638"/>
<path fill-rule="evenodd" clip-rule="evenodd" d="M99 53.3076L98.763 55L91 53.6924L91.237 52L99 53.3076Z" fill="#C65447"/>
<path fill-rule="evenodd" clip-rule="evenodd" d="M89 52.6408L91.6304 54L92 52L89 52.6408Z" fill="#FFB27D"/>
<path fill-rule="evenodd" clip-rule="evenodd" d="M100.989 53.216L100.848 54.1282C100.762 54.6893 100.236 55.0741 99.6732 54.9879L99 54.885L99.4443 52L100.176 52.112C100.706 52.1933 101.07 52.6876 100.989 53.216Z" fill="#FFB27D"/>
<path fill-rule="evenodd" clip-rule="evenodd" d="M128.068 105.509C128.068 105.509 129.191 106.585 128.972 107.349C128.753 108.113 127.739 108.623 127.602 109.557C127.465 110.491 126.918 111 126.425 111H124.074C124.074 111 123.712 110.343 124.588 110.145C125.464 109.947 125.795 108.849 125.74 107.83C125.685 106.811 125.822 105.453 125.822 105.453L127.684 105L128.068 105.509Z" fill="#233862"/>
<path fill-rule="evenodd" clip-rule="evenodd" d="M112.957 108.038C112.957 108.038 113.169 110.721 112.65 111L106 110.985C106 110.985 106 110.148 107.068 109.961C108.136 109.775 110.012 109.093 110.33 107.573C110.648 106.053 112.957 108.038 112.957 108.038Z" fill="#233862"/>
<path fill-rule="evenodd" clip-rule="evenodd" d="M108 73.588C108 73.588 108.322 77.8328 108.701 82.9353C109.215 89.8664 109.834 98.3804 109.895 99.9932C110.001 102.794 110.426 107.274 110.426 107.274C110.426 107.274 111.433 108.338 113.448 107.89C113.448 107.89 115.244 101.494 115.757 94.7279C115.765 94.617 115.773 94.5051 115.781 94.3935C116.258 87.505 117 73 117 73L108 73.588Z" fill="#2B478B"/>
<path fill-rule="evenodd" clip-rule="evenodd" d="M108 75.5683C108 75.5683 108.322 79.6709 108.701 84.6025L115.757 96C115.765 95.8929 115.773 95.7847 115.781 95.6768C116.258 89.0191 117 75 117 75L108 75.5683Z" fill="#233862"/>
<path fill-rule="evenodd" clip-rule="evenodd" d="M109 75.7233C109 75.7233 115.14 90.8252 119.178 97.9223C123.215 105.019 124.477 107 124.477 107C124.477 107 126.79 106.092 127 105.473C127 105.473 125.456 91.7721 122.752 88.432C121.225 86.5447 119.43 80.8811 119.346 78.9005C119.262 76.9199 118.799 73 118.799 73L109 75.7233Z" fill="#2B478B"/>
<path fill-rule="evenodd" clip-rule="evenodd" d="M117 51.6754C117 51.6754 113.194 53.5371 111 52.8463C111 52.8463 111.54 52.1557 112.485 51.6417C112.409 51.1951 112.35 50.8077 112.316 50.4792C112.224 49.7209 112.224 49.2914 112.224 49.2914L113.692 48.1205L115.084 47C114.975 50.1506 117 51.6754 117 51.6754Z" fill="#FFB27D"/>
<path fill-rule="evenodd" clip-rule="evenodd" d="M120 73.7423C120.01 74.0008 119.429 74.2962 119.173 74.407C117.274 75.2011 115.503 75.755 113.495 75.9398C111.123 76.1705 108.319 75.6627 107.354 75.6811C107.256 75.6811 107.167 75.6443 107.089 75.5796C107.02 75.5333 106.971 72.8098 107.02 69.3845C107.02 69.2459 107.02 69.1075 107.03 68.9689V68.9229C107.049 67.584 107.099 66.1807 107.167 64.7774C107.305 61.6935 107.561 58.7205 107.994 57.0771C108.516 55.1383 109.697 53.8549 110.769 52.9224L111.655 52.1837C112.541 52.35 113.475 52.3039 114.41 51.87C115.434 51.399 116.536 50.8912 116.713 51.0204C118.051 51.953 118.957 54.0489 119.439 56.7264C119.714 58.2682 119.852 59.9948 119.842 61.8043C119.842 62.4691 119.823 63.1523 119.783 63.8263C119.547 67.4824 119.783 70.6585 119.921 72.4958C119.961 73.0314 119.99 73.4468 120 73.7423Z" fill="#EE9849"/>
<path fill-rule="evenodd" clip-rule="evenodd" d="M120 72C105.94 71.9719 117.407 56.74 117.407 56.74L119.685 56C119.865 57.5644 119.955 59.3161 119.949 61.1522C119.949 61.8268 119.936 62.5199 119.91 63.2037C119.756 66.9133 119.91 70.1358 120 72Z" fill="#E58638"/>
<path fill-rule="evenodd" clip-rule="evenodd" d="M115 47.1071C115 47.1071 114 49.3678 112.096 50C112 49.0356 112 48.4893 112 48.4893L113.526 47L115 47.1071Z" fill="#ED985F"/>
<path fill-rule="evenodd" clip-rule="evenodd" d="M110.701 47.9282C110.701 47.9282 114.295 48.5235 114.632 46.2863C114.97 44.0491 115.661 42.6191 113.381 42.1445C111.1 41.6698 110.525 42.4564 110.23 43.1759C109.935 43.8953 109.775 47.7157 110.701 47.9282Z" fill="#FFB27D"/>
<path fill-rule="evenodd" clip-rule="evenodd" d="M116.701 42.2946C116.737 42.255 116.818 42.223 117 42.2132C117 42.2132 116.855 42.1245 116.661 42.1197C116.623 41.8727 116.488 41.4354 116.054 41.3291C116.054 41.3291 116.287 41.451 116.318 41.7136C115.814 41.2078 114.735 40.8397 111.748 41.0704C107.811 41.3743 109.108 43.8399 109.618 44.1339C110.128 44.4277 111.411 43.622 112.36 43.6957C113.31 43.7694 113.491 45.1116 113.813 45.2959C114.135 45.4799 114.008 45.1544 114.444 44.9616C114.88 44.7689 114.922 45.4754 114.796 45.9347C114.67 46.3941 115.269 47 115.269 47L115.874 46.3624C116.479 45.7248 117.05 43.0244 116.775 42.4488C116.75 42.3979 116.726 42.3464 116.701 42.2946Z" fill="#2C3A64"/>
<path fill-rule="evenodd" clip-rule="evenodd" d="M115.962 50C115.962 50 118.554 51.1959 119.796 53.0346C121.724 55.8863 123.958 66.2801 123.999 67.2426C124.041 68.2051 122.368 75 122.368 75C122.368 75 120.673 74.8911 120.235 74.0571C120.235 74.0571 120.574 67.0754 120.359 66.6266C120.145 66.1778 113.29 57.2614 114.06 55.3587C114.831 53.4561 115.962 50 115.962 50Z" fill="#EE9849"/>
<path fill-rule="evenodd" clip-rule="evenodd" d="M97.9611 54.4258C97.9611 54.4258 98.1796 53.6094 97.5807 53.2424C96.9816 52.8754 96.4307 51.8773 96.1783 52.0125C95.6552 52.2925 96.4645 53.1635 96.3164 54.2498C96.2645 54.6302 97.2011 55.627 97.9611 54.4258Z" fill="#FFB27D"/>
<path fill-rule="evenodd" clip-rule="evenodd" d="M36 105C36 105 29.9878 89.8476 25.7713 92.2603C21.5549 94.6732 36 105 36 105Z" fill="#A8D29F"/>
<path fill-rule="evenodd" clip-rule="evenodd" d="M33 105C33 105 25.1428 99.0283 21.5537 100.137C17.9645 101.246 33 105 33 105Z" fill="#A8D29F"/>
<path fill-rule="evenodd" clip-rule="evenodd" d="M115 108C115 108 116.651 102.393 118.588 103.054C120.525 103.716 115 108 115 108Z" fill="#A8D29F"/>
<path fill-rule="evenodd" clip-rule="evenodd" d="M117 108C117 108 121.829 104.001 122.89 105.237C123.951 106.473 117 108 117 108Z" fill="#A8D29F"/>
<path fill-rule="evenodd" clip-rule="evenodd" d="M100.572 94H65.4276C65.1925 94 65 93.7751 65 93.5C65 93.2249 65.1925 93 65.4276 93H100.572C100.808 93 101 93.2249 101 93.5C101 93.7751 100.808 94 100.572 94Z" fill="#D2E4FD"/>
<path fill-rule="evenodd" clip-rule="evenodd" d="M100.572 96H65.4276C65.1925 96 65 95.775 65 95.5C65 95.225 65.1925 95 65.4276 95H100.572C100.808 95 101 95.225 101 95.5C101 95.775 100.808 96 100.572 96Z" fill="#D2E4FD"/>
<path fill-rule="evenodd" clip-rule="evenodd" d="M100.572 98H65.4276C65.1925 98 65 97.7751 65 97.5C65 97.2249 65.1925 97 65.4276 97H100.572C100.808 97 101 97.2249 101 97.5C101 97.7751 100.808 98 100.572 98Z" fill="#D2E4FD"/>
<path fill-rule="evenodd" clip-rule="evenodd" d="M95.6054 99H65.3946C65.1776 99 65 98.7899 65 98.5333V98.4667C65 98.21 65.1776 98 65.3946 98H95.6054C95.8224 98 96 98.21 96 98.4667V98.5333C96 98.7899 95.8224 99 95.6054 99Z" fill="#D2E4FD"/>
<path fill-rule="evenodd" clip-rule="evenodd" d="M176.828 111.162H0.172247C0.077511 111.162 0 111.095 0 111.014V110.986C0 110.905 0.077511 110.839 0.172247 110.839H176.828C176.923 110.839 177 110.905 177 110.986V111.014C177 111.095 176.923 111.162 176.828 111.162Z" fill="#1C468A"/>
</g>
</svg>
