<svg xmlns="http://www.w3.org/2000/svg" width="17.854" height="12.173" viewBox="0 0 17.854 12.173">
  <g id="eye-4" transform="translate(0 -74.667)">
    <g id="Group_40431" data-name="Group 40431" transform="translate(0 74.667)">
      <g id="Group_40430" data-name="Group 40430" transform="translate(0 0)">
        <path id="Path_108597" data-name="Path 108597" d="M173.1,170.667a2.435,2.435,0,1,0,2.435,2.435A2.436,2.436,0,0,0,173.1,170.667Z" transform="translate(-164.175 -167.015)" fill="#bbc2dd"/>
        <path id="Path_108598" data-name="Path 108598" d="M8.927,74.667A9.6,9.6,0,0,0,0,80.753a9.59,9.59,0,0,0,17.854,0A9.594,9.594,0,0,0,8.927,74.667Zm0,10.144a4.058,4.058,0,1,1,4.058-4.058A4.059,4.059,0,0,1,8.927,84.811Z" transform="translate(0 -74.667)" fill="#bbc2dd"/>
      </g>
    </g>
  </g>
</svg>