<svg width="70" height="70" viewBox="0 0 70 70" fill="none" xmlns="http://www.w3.org/2000/svg">
<path d="M66.6129 0H63.2258H40.6452H24.2076C22.7477 0 21.4561 0.930323 20.9932 2.31565L20.6376 3.3871H16.9355C15.0681 3.3871 13.5484 4.90677 13.5484 6.77419V8.23629C10.2889 9.21064 7.90323 12.2342 7.90323 15.8065C7.90323 18.165 8.94758 20.2797 10.5915 21.7294C8.06581 23.6498 6.33726 26.4882 5.82806 29.6416C2.47597 30.555 0 33.6192 0 37.2581C0 41.615 3.54629 45.1613 7.90323 45.1613V51.9355H12.9895C13.4095 53.5669 14.0576 55.1273 14.9247 56.5905L11.3242 60.1921L17.7111 66.579L21.3127 62.9785C22.776 63.8456 24.3363 64.4937 25.9677 64.9137V70H35V64.9137C36.6315 64.4937 38.1918 63.8456 39.655 62.9785L43.2566 66.579L49.6436 60.1921L46.0431 56.5905C46.9102 55.1273 47.5582 53.5669 47.9782 51.9355H53.0645V42.9032H47.9782C47.5582 41.2718 46.9102 39.7114 46.0431 38.2482L49.2902 35H63.2258V20.3226V18.0645H66.6129C68.4803 18.0645 70 16.5448 70 14.6774V3.3871C70 1.51968 68.4803 0 66.6129 0ZM50.8064 2.25806C52.6739 2.25806 54.1936 3.77774 54.1936 5.64516C54.1936 7.51258 52.6739 9.03226 50.8064 9.03226C48.939 9.03226 47.4194 7.51258 47.4194 5.64516C47.4194 3.77774 48.939 2.25806 50.8064 2.25806ZM42.9032 2.25806H46.3197C45.6027 3.20419 45.1613 4.36935 45.1613 5.64516C45.1613 8.7579 47.6937 11.2903 50.8064 11.2903C52.0823 11.2903 53.2474 10.8489 54.1936 10.1319V18.0645H42.9032V2.25806ZM33.6632 2.25806C33.1958 3.56887 31.9539 4.51613 30.4839 4.51613C29.0139 4.51613 27.7719 3.56887 27.3045 2.25806H33.6632ZM10.1613 15.8065C10.1613 12.6937 12.6937 10.1613 15.8065 10.1613C18.9192 10.1613 21.4516 12.6937 21.4516 15.8065C21.4516 18.9192 18.9192 21.4516 15.8065 21.4516C14.6492 21.4516 13.5721 21.0994 12.6756 20.4987L12.6452 20.4366C12.6339 20.4423 12.6248 20.449 12.6135 20.4547C11.1356 19.4352 10.1613 17.7337 10.1613 15.8065ZM12.6294 23.0379C12.9263 23.1689 13.2334 23.2829 13.5484 23.3777V31.7394C12.136 30.2998 10.2065 29.4395 8.15726 29.3729C8.75 26.7694 10.3702 24.4763 12.6294 23.0379ZM7.90323 42.9032C4.79048 42.9032 2.25806 40.3708 2.25806 37.2581C2.25806 34.1453 4.79048 31.6129 7.90323 31.6129C9.60694 31.6129 11.209 32.3976 12.2726 33.6971L11.3231 34.6466L14.9235 38.2482C14.0565 39.7114 13.4084 41.2718 12.9884 42.9032H9.03226H7.90323ZM46.2903 34.8069L43.1584 37.9389L43.6676 38.7077C44.7966 40.4137 45.5734 42.28 45.9731 44.2569L46.1571 45.1613H50.8064V49.6774H46.1571L45.9731 50.5818C45.5734 52.5587 44.7966 54.425 43.6676 56.131L43.1584 56.8998L46.4518 60.1932L43.2577 63.3873L39.9644 60.0939L39.1955 60.6031C37.4895 61.7321 35.6232 62.5089 33.6463 62.9086L32.7419 63.0926V67.7419H28.2258V63.0926L27.3215 62.9086C25.3445 62.5089 23.4782 61.7321 21.7723 60.6031L21.0034 60.0939L17.71 63.3873L14.516 60.1932L17.8094 56.8998L17.3002 56.131C16.1711 54.425 15.3944 52.5587 14.9947 50.5818L14.8106 49.6774H10.1613V45.1613H14.8106L14.9947 44.2569C15.3944 42.28 16.1711 40.4137 17.3002 38.7077L17.8094 37.9389L14.516 34.6455L17.71 31.4515L21.0034 34.7448L21.7723 34.2356C23.4782 33.1066 25.3445 32.3298 27.3215 31.9302L28.2258 31.7461V27.0968H32.7419V31.7461L33.6463 31.9302C35.6232 32.3298 37.4895 33.1066 39.1955 34.2356L39.9644 34.7448L43.2577 31.4515L46.2903 34.4852V34.8069ZM60.9677 32.7419H47.74L43.2566 28.2585L39.655 31.859C38.1918 30.9919 36.6315 30.3439 35 29.9239V24.8387H25.9677V29.925C24.3363 30.345 22.776 30.9931 21.3127 31.8602L17.7111 28.2597L15.8065 30.1632V23.7097C20.1634 23.7097 23.7097 20.1634 23.7097 15.8065C23.7097 11.4495 20.1634 7.90323 15.8065 7.90323V6.77419C15.8065 6.15097 16.3123 5.64516 16.9355 5.64516H22.2656L23.1361 3.03032C23.2908 2.56742 23.7221 2.25806 24.2076 2.25806H24.9527C25.4777 4.83113 27.7584 6.77419 30.4839 6.77419C33.2094 6.77419 35.49 4.83113 36.015 2.25806H40.6452V14.7068C39.699 13.9898 38.5339 13.5484 37.2581 13.5484C34.1453 13.5484 31.6129 16.0808 31.6129 19.1935C31.6129 22.3063 34.1453 24.8387 37.2581 24.8387C39.9835 24.8387 42.2642 22.8956 42.7892 20.3226H60.9677V32.7419ZM40.6452 19.1935C40.6452 21.061 39.1255 22.5806 37.2581 22.5806C35.3906 22.5806 33.871 21.061 33.871 19.1935C33.871 17.3261 35.3906 15.8065 37.2581 15.8065C39.1255 15.8065 40.6452 17.3261 40.6452 19.1935ZM67.7419 14.6774C67.7419 15.3006 67.2361 15.8065 66.6129 15.8065H63.2258V13.5484H60.9677V15.8065V18.0645H56.4516V5.64516C56.4516 4.36935 56.0102 3.20419 55.2932 2.25806H60.9677V11.2903H63.2258V2.25806H66.6129C67.2361 2.25806 67.7419 2.76387 67.7419 3.3871V14.6774Z" fill="#181F3F"/>
<path d="M7.90321 33.8711C6.03579 33.8711 4.51611 35.3908 4.51611 37.2582C4.51611 39.1256 6.03579 40.6453 7.90321 40.6453C9.77063 40.6453 11.2903 39.1256 11.2903 37.2582C11.2903 35.3908 9.77063 33.8711 7.90321 33.8711ZM7.90321 38.3872C7.27998 38.3872 6.77418 37.8814 6.77418 37.2582C6.77418 36.635 7.27998 36.1292 7.90321 36.1292C8.52644 36.1292 9.03224 36.635 9.03224 37.2582C9.03224 37.8814 8.52644 38.3872 7.90321 38.3872Z" fill="#181F3F"/>
<path d="M15.8065 19.1936C17.6739 19.1936 19.1936 17.6739 19.1936 15.8065C19.1936 13.9391 17.6739 12.4194 15.8065 12.4194C13.9391 12.4194 12.4194 13.9391 12.4194 15.8065C12.4194 17.6739 13.9391 19.1936 15.8065 19.1936ZM15.8065 14.6775C16.4298 14.6775 16.9356 15.1833 16.9356 15.8065C16.9356 16.4298 16.4298 16.9356 15.8065 16.9356C15.1833 16.9356 14.6775 16.4298 14.6775 15.8065C14.6775 15.1833 15.1833 14.6775 15.8065 14.6775Z" fill="#181F3F"/>
<path d="M30.4837 36.1289C24.2582 36.1289 19.1934 41.1937 19.1934 47.4192C19.1934 53.6447 24.2582 58.7096 30.4837 58.7096C32.6243 58.7096 34.7096 58.1066 36.5138 56.9652L35.3058 55.0583C33.864 55.9694 32.1976 56.4515 30.4837 56.4515C25.5035 56.4515 21.4514 52.3994 21.4514 47.4192C21.4514 42.4391 25.5035 38.387 30.4837 38.387C35.4638 38.387 39.5159 42.4391 39.5159 47.4192C39.5159 49.8196 38.5845 52.0787 36.8932 53.7836L38.4964 55.3733C40.61 53.2439 41.774 50.4191 41.774 47.4192C41.774 41.1937 36.7092 36.1289 30.4837 36.1289Z" fill="#181F3F"/>
<path d="M30.4837 40.645C26.7477 40.645 23.7095 43.6832 23.7095 47.4192C23.7095 51.1552 26.7477 54.1934 30.4837 54.1934C34.2196 54.1934 37.2579 51.1552 37.2579 47.4192C37.2579 43.6832 34.2196 40.645 30.4837 40.645ZM30.4837 51.9353C27.993 51.9353 25.9675 49.9099 25.9675 47.4192C25.9675 44.9286 27.993 42.9031 30.4837 42.9031C32.9743 42.9031 34.9998 44.9286 34.9998 47.4192C34.9998 49.9099 32.9743 51.9353 30.4837 51.9353Z" fill="#181F3F"/>
</svg>
