<svg width="70" height="74" viewBox="0 0 70 74" fill="none" xmlns="http://www.w3.org/2000/svg">
<path d="M19.6336 33.8044H18.8312V27.2979C18.8312 26.5267 18.2062 25.9015 17.4349 25.9015H17.315V12.5898C17.315 12.061 17.0163 11.5775 16.5431 11.3409L5.73727 5.9365C5.30459 5.72016 4.79056 5.74306 4.37873 5.99757C3.9669 6.25189 3.71631 6.70132 3.71631 7.18538V25.9015H3.59641C2.82507 25.9015 2.20007 26.5267 2.20007 27.2979V33.8044H1.39634C0.625001 33.8044 0 34.4296 0 35.2008V71.8535C0 72.6247 0.625001 73.2498 1.39634 73.2498H19.6333C20.4046 73.2498 21.0296 72.6247 21.0296 71.8535V35.2008C21.03 34.4296 20.405 33.8044 19.6336 33.8044ZM6.50935 9.44503L14.5225 13.4527V25.9015H6.50935V9.44503ZM4.9933 28.6942H16.0387V33.8044H4.9933V28.6942ZM18.2373 70.4572H2.79305V36.5971H18.2373V70.4572Z" fill="#181F3F"/>
<path d="M68.6032 56.6504H23.2494C22.478 56.6504 21.853 57.2756 21.853 58.0467C21.853 58.8179 22.478 59.4431 23.2494 59.4431H66.3815L66.0622 60.1068C64.3082 63.7514 60.5614 66.1066 56.5167 66.1066H23.2494C22.478 66.1066 21.853 66.7318 21.853 67.5029C21.853 68.2741 22.478 68.8992 23.2494 68.8992H56.5167C61.6278 68.8992 66.3625 65.9234 68.5786 61.3177L69.8614 58.6522C70.0697 58.2195 70.041 57.7101 69.7854 57.3037C69.5298 56.8973 69.0833 56.6504 68.6032 56.6504Z" fill="#181F3F"/>
<path d="M20.0257 10.2676C25.2321 5.44739 32.0098 2.79268 39.1104 2.79268C54.6031 2.79268 67.2074 15.397 67.2074 30.8896C67.2074 39.2421 63.5268 47.1069 57.1098 52.4671C56.5177 52.9616 56.4388 53.842 56.9333 54.4339C57.2094 54.7646 57.606 54.9351 58.0057 54.9351C58.3213 54.9351 58.6389 54.8286 58.9001 54.6104C65.9546 48.718 70.0002 40.0721 70.0002 30.8894C70 13.8571 56.143 0 39.1104 0C31.3042 0 23.8528 2.91872 18.1283 8.21847C17.5625 8.74238 17.5285 9.62579 18.0524 10.1918C18.5761 10.7574 19.4595 10.7915 20.0257 10.2676Z" fill="#181F3F"/>
<path d="M39.1092 8.60029C51.3999 8.60029 61.3992 18.5996 61.3992 30.8903C61.3992 43.1811 51.3999 53.1803 39.1092 53.1803C33.5836 53.1803 28.2835 51.1439 24.1846 47.4466C23.6122 46.9301 22.7292 46.9754 22.2124 47.5481C21.6959 48.1206 21.7413 49.0036 22.314 49.5201C26.9268 53.6813 32.8914 55.973 39.1092 55.973C52.9398 55.973 64.1919 44.7209 64.1919 30.8903C64.1919 17.0597 52.9398 5.80762 39.1092 5.80762C31.1659 5.80762 23.6093 9.63172 18.8954 16.0372C18.4382 16.6583 18.5713 17.5324 19.1924 17.9895C19.8135 18.4463 20.6872 18.3136 21.1446 17.6925C25.3344 11.9994 32.0502 8.60029 39.1092 8.60029Z" fill="#181F3F"/>
<path d="M54.4709 19.8904L28.9891 45.3723C28.4437 45.9176 28.4437 46.8018 28.9891 47.3469C29.2618 47.6195 29.6193 47.7559 29.9766 47.7559C30.3338 47.7559 30.6913 47.6196 30.964 47.3469L56.4457 21.865C56.991 21.3197 56.991 20.4356 56.4457 19.8904C55.9002 19.3451 55.0162 19.3451 54.4709 19.8904Z" fill="#181F3F"/>
<path d="M36.7483 45.5436C36.203 46.0889 36.203 46.9731 36.7483 47.5182C37.0211 47.7908 37.3786 47.9272 37.7358 47.9272C38.0931 47.9272 38.4506 47.791 38.7233 47.5182L57.855 28.3865C58.4003 27.8412 58.4003 26.957 57.855 26.4119C57.3095 25.8666 56.4255 25.8666 55.8802 26.4119L36.7483 45.5436Z" fill="#181F3F"/>
</svg>
