<svg width="74" height="74" viewBox="0 0 74 74" fill="none" xmlns="http://www.w3.org/2000/svg">
<path d="M72.916 7.18205H39.1339V1.08398C39.1339 0.485336 38.6487 0 38.0499 0H31.2868C30.6882 0 30.2028 0.485336 30.2028 1.08398V7.18205H16.9375C16.3388 7.18205 15.8535 7.66738 15.8535 8.26603V17.5857C15.1381 17.967 14.4601 18.4682 13.8892 19.0452V15.8593C13.8892 13.8941 11.9341 12.2804 9.02612 11.7446V9.3915C9.02612 8.79285 8.54078 8.30751 7.94214 8.30751C6.02305 8.30751 4.07188 9.04534 2.58884 10.3318C0.919508 11.78 0 13.7902 0 15.9918V20.5334C0 21.9349 2.16797 21.9349 2.16797 20.5334V15.9918C2.16797 13.619 3.93371 11.078 6.85815 10.5677V52.1499C5.15702 52.3625 3.41975 53.043 2.1723 54.2419C2.16999 52.7658 2.16797 26.2936 2.16797 26.2936C2.16797 24.892 0 24.892 0 26.2936V59.9643C0 60.0251 0.00621484 60.0844 0.0158984 60.1425C0.122418 63.322 3.06406 65.6981 6.94458 65.6981C8.82334 65.6981 10.5042 65.1634 11.7424 64.2822L11.743 68.2673C11.7436 71.9303 15.407 74 18.6886 74C22.1718 73.9994 25.6322 72.0377 25.6322 68.265L25.6297 52.9392H56.5002L34.0065 72.0907C33.2545 72.7309 33.7216 74 34.7092 74H67.3542C67.953 74 68.4381 73.5147 68.4381 72.916V67.6577C68.4381 66.2562 66.2702 66.2562 66.2702 67.6577V71.832H37.6546L66.2702 47.4685V61.6776C66.2702 63.0791 68.4381 63.0791 68.4381 61.6776V52.9395H72.916C73.5148 52.9395 74 52.4541 74 51.8555V36.7254V8.26603C74 7.66738 73.5148 7.18205 72.916 7.18205ZM71.832 9.35002V35.6414H46.4448V9.35002H71.832ZM36.9659 2.16797V29.91H32.3708V27.1398H33.1579C34.5594 27.1398 34.5594 24.9718 33.1579 24.9718H32.3708V22.1313H34.1696C35.5712 22.1313 35.5712 19.9634 34.1696 19.9634H32.3708V17.1229H33.1579C33.7566 17.1229 34.2419 16.6376 34.2419 16.0389C34.2419 15.4403 33.7566 14.9549 33.1579 14.9549H32.3708V12.1145H34.1696C35.5712 12.1145 35.5712 9.9465 34.1696 9.9465H32.3708V7.10617H33.1579C34.5594 7.10617 34.5594 4.9382 33.1579 4.9382H32.3708V2.16797H36.9659ZM17.1212 19.3354C17.5892 19.114 18.08 18.9587 18.5935 18.8696L18.6002 60.4518C17.3926 60.603 15.4406 61.0773 13.9146 62.5445C13.9121 61.0886 13.9098 59.9617 13.9098 59.931L13.904 24.2944C13.9038 22.352 15.0875 20.2974 17.1212 19.3354ZM23.4638 65.1019C23.4272 65.081 23.3904 65.0603 23.3529 65.0398C22.1097 64.3573 20.4864 63.9766 18.7733 63.9645L18.7732 62.6169C19.2926 62.5453 19.6415 62.5507 19.6499 62.5507C20.3286 62.5053 20.7014 62.1441 20.7681 61.4671L20.7619 22.2701C22.1988 22.6256 23.4571 23.3541 23.4573 24.1604L23.4638 65.1019ZM11.7212 15.8593V51.6287V56.7862C10.5133 56.0926 8.88116 55.6752 7.03101 55.6627V54.3148C7.55075 54.2433 7.89964 54.2488 7.90774 54.2489C8.58646 54.2036 8.9592 53.8424 9.02612 53.1655V13.9616C10.6772 14.3569 11.7212 15.1766 11.7212 15.8593ZM11.7212 60.4777C11.7212 62.1323 9.53371 63.5302 6.94458 63.5302C4.22768 63.5302 2.17881 61.9973 2.17881 59.9643C2.17881 57.9056 2.92502 55.9557 4.86304 54.971V56.7936C4.94022 57.5026 5.33552 57.8624 6.04878 57.8728C7.55508 57.731 9.22023 57.8995 10.567 58.6389C11.3441 59.0657 11.7845 59.6077 11.7212 60.4777ZM18.6883 71.832C18.6879 71.832 18.6877 71.832 18.6872 71.832C15.971 71.832 13.9221 70.2994 13.9218 68.267C13.9215 66.2085 14.6673 64.2582 16.6053 63.2732L16.6056 65.0959C16.683 65.8048 17.0782 66.1645 17.7914 66.1748C19.6302 66.0019 23.5525 66.2971 23.4644 68.7787C23.4646 70.4334 21.2775 71.8317 18.6883 71.832ZM25.6252 24.1598C25.625 22.2084 23.6634 20.5852 20.7615 20.0471L20.761 17.6929C20.6989 17.0323 20.3376 16.671 19.6769 16.6091C19.1237 16.6092 18.5681 16.6725 18.0215 16.7908V9.35002H30.2028V30.9939C30.2028 31.5925 30.6882 32.0778 31.2868 32.0778H38.0499C38.6487 32.0778 39.1339 31.5925 39.1339 30.9939V9.35002H44.2769V36.7254V50.7714H25.6296L25.6252 24.1598ZM67.8087 44.1378C67.4248 43.9605 66.9732 44.0223 66.6513 44.2965L59.0465 50.7714H46.4448V37.8094H71.832V50.7714H68.4381V45.1219C68.4381 44.6993 68.1924 44.3152 67.8087 44.1378Z" fill="#181F3F"/>
<path d="M51.6466 31.0627H61.6345C61.9198 31.0627 62.2007 30.9459 62.4021 30.744L67.3959 25.7541C67.5994 25.5507 67.7137 25.2748 67.7137 24.9872L67.7123 15.0135C67.7123 14.427 67.2147 13.9297 66.6282 13.9297L56.639 13.9308C56.3518 13.9308 56.0761 14.045 55.873 14.2481L50.8812 19.236C50.6797 19.4369 50.5625 19.7193 50.5625 20.0036V29.9787C50.5626 30.5775 51.048 31.0627 51.6466 31.0627ZM52.7306 21.0876H60.5505V28.8947H52.7306V21.0876ZM62.7186 27.3633V20.453L65.545 17.6288L65.5461 24.5383L62.7186 27.3633ZM57.0882 16.0988L64.0098 16.0979L61.1858 18.9196H54.265L57.0882 16.0988Z" fill="#181F3F"/>
<path d="M56.7737 45.3945H53.182C51.7805 45.3945 51.7805 47.5625 53.182 47.5625H56.7737C58.1753 47.5625 58.1753 45.3945 56.7737 45.3945Z" fill="#181F3F"/>
<path d="M62.3853 41.0801H53.182C51.7805 41.0801 51.7805 43.248 53.182 43.248H62.3853C63.7868 43.248 63.7868 41.0801 62.3853 41.0801Z" fill="#181F3F"/>
<path d="M61.3863 55.689L48.2983 66.8324C47.5466 67.4725 48.0136 68.7416 49.001 68.7416H62.089C62.6878 68.7416 63.173 68.2563 63.173 67.6576V56.5143C63.173 55.6902 62.1321 55.0538 61.3863 55.689ZM61.0051 66.5737H51.9463L61.0051 58.8609V66.5737Z" fill="#181F3F"/>
</svg>
