<svg width="70" height="70" viewBox="0 0 70 70" fill="none" xmlns="http://www.w3.org/2000/svg">
<path d="M56.1818 63.9886C54.0357 63.9886 52.2896 62.2424 52.2896 60.0963C52.2896 57.9503 54.0356 56.2041 56.1818 56.2041C58.3279 56.2041 60.074 57.9501 60.074 60.0963C60.0739 62.2426 58.3279 63.9886 56.1818 63.9886ZM56.1818 58.9386C55.5433 58.9386 55.0239 59.458 55.0239 60.0965C55.0239 60.735 55.5433 61.2544 56.1818 61.2544C56.8203 61.2544 57.3397 60.735 57.3397 60.0965C57.3395 59.458 56.8203 58.9386 56.1818 58.9386Z" fill="#181F3F"/>
<path d="M42.0607 63.9886C39.9146 63.9886 38.1685 62.2424 38.1685 60.0963C38.1685 57.9503 39.9145 56.2041 42.0607 56.2041C44.2068 56.2041 45.953 57.9501 45.953 60.0963C45.9528 62.2426 44.2068 63.9886 42.0607 63.9886ZM42.0607 58.9386C41.4222 58.9386 40.9028 59.458 40.9028 60.0965C40.9028 60.735 41.4222 61.2544 42.0607 61.2544C42.6992 61.2544 43.2186 60.735 43.2186 60.0965C43.2184 59.458 42.6992 58.9386 42.0607 58.9386Z" fill="#181F3F"/>
<path d="M27.9391 63.9886C25.793 63.9886 24.0469 62.2424 24.0469 60.0963C24.0469 57.9503 25.7929 56.2041 27.9391 56.2041C30.0852 56.2041 31.8314 57.9501 31.8314 60.0963C31.8314 62.2426 30.0853 63.9886 27.9391 63.9886ZM27.9391 58.9386C27.3006 58.9386 26.7812 59.458 26.7812 60.0965C26.7812 60.735 27.3006 61.2544 27.9391 61.2544C28.5776 61.2544 29.097 60.735 29.097 60.0965C29.097 59.458 28.5776 58.9386 27.9391 58.9386Z" fill="#181F3F"/>
<path d="M13.818 63.9886C11.672 63.9886 9.92578 62.2424 9.92578 60.0963C9.92578 57.9503 11.6718 56.2041 13.818 56.2041C15.9641 56.2041 17.7103 57.9501 17.7103 60.0963C17.7103 62.2426 15.9642 63.9886 13.818 63.9886ZM13.818 58.9386C13.1796 58.9386 12.6602 59.458 12.6602 60.0965C12.6602 60.735 13.1796 61.2544 13.818 61.2544C14.4565 61.2544 14.9759 60.735 14.9759 60.0965C14.9759 59.458 14.4565 58.9386 13.818 58.9386Z" fill="#181F3F"/>
<path d="M35.0248 70.0006C34.4389 70.0006 33.9068 69.6112 33.7254 69.0558C33.5531 68.5283 33.7271 67.9284 34.1576 67.5769C34.601 67.2148 35.2363 67.17 35.7275 67.4619C36.2149 67.7515 36.4751 68.3333 36.3674 68.8898C36.244 69.5254 35.6734 70.0006 35.0248 70.0006Z" fill="#181F3F"/>
<path d="M60.3914 50.7824H59.1255V42.2499C59.1255 40.5439 57.7378 39.1562 56.0319 39.1562H42.3298C40.6238 39.1562 39.2361 40.5439 39.2361 42.2499V50.7824H30.7638V42.2499C30.7638 40.5439 29.3761 39.1562 27.6701 39.1562H13.9681C12.2622 39.1562 10.8745 40.5439 10.8745 42.2499V50.7824H9.60859C4.31033 50.7824 0 55.0929 0 60.3911C0 65.6894 4.31033 69.9997 9.60859 69.9997H28.8195C29.5746 69.9997 30.1867 69.3875 30.1867 68.6325C30.1867 67.8776 29.5746 67.2653 28.8195 67.2653H9.60859C5.8182 67.2653 2.73438 64.1815 2.73438 60.391C2.73438 56.6005 5.8182 53.5168 9.60859 53.5168H60.3914C64.1819 53.5168 67.2656 56.6006 67.2656 60.3911C67.2656 64.1817 64.1818 67.2653 60.3914 67.2653H41.1805C40.4255 67.2653 39.8133 67.8776 39.8133 68.6325C39.8133 69.3875 40.4255 69.9997 41.1805 69.9997H60.3914C65.6897 69.9997 70 65.6893 70 60.391C70 55.0927 65.6897 50.7824 60.3914 50.7824ZM13.6088 50.7824V42.2499C13.6088 42.0518 13.77 41.8906 13.9681 41.8906H27.6702C27.8683 41.8906 28.0295 42.0518 28.0295 42.2499V50.7824H13.6088ZM41.9705 50.7824V42.2499C41.9705 42.0518 42.1317 41.8906 42.3298 41.8906H56.0319C56.23 41.8906 56.3912 42.0518 56.3912 42.2499V50.7824H41.9705Z" fill="#181F3F"/>
<path d="M8.22281 9.59H20.5099V14.3053C19.1937 15.7171 18.3873 17.6102 18.3873 19.688C18.3873 24.044 21.9313 27.5881 26.2875 27.5881C27.9839 27.5881 29.5572 27.0505 30.8459 26.1369H42.8545V30.8097C42.8545 31.291 43.1077 31.7368 43.5209 31.9836L47.8533 34.5702V36.1251C47.8533 36.8802 48.4656 37.4922 49.2205 37.4922C49.9755 37.4922 50.5877 36.8802 50.5877 36.1251V34.5702L54.9202 31.9836C55.3334 31.7368 55.5866 31.2911 55.5866 30.8097V26.1369H63.4236C66.4706 26.1369 68.9497 23.6578 68.9497 20.6106C68.9497 17.5634 66.4706 15.0843 63.4236 15.0843H32.7042C32.3702 14.62 31.987 14.1933 31.5625 13.8117V9.58986H61.7773C66.3113 9.59 70 5.90119 70 1.36719C70 0.61209 69.3878 0 68.6328 0H1.36719C0.61209 0 0 0.61209 0 1.36719C0 5.90119 3.68867 9.59 8.22281 9.59ZM21.1215 19.688C21.1215 16.8396 23.4389 14.5223 26.2873 14.5223C29.1357 14.5223 31.4531 16.8396 31.4531 19.688C31.4531 22.5364 29.1357 24.8537 26.2873 24.8537C23.4389 24.8537 21.1215 22.5364 21.1215 19.688ZM52.8521 30.0336L49.2204 32.2018L45.5887 30.0336V26.1369H52.8519V30.0336H52.8521ZM63.4234 17.8187C64.9629 17.8187 66.2152 19.0712 66.2152 20.6106C66.2152 22.1501 64.9629 23.4026 63.4234 23.4026H33.2585C33.8512 22.2946 34.1875 21.0299 34.1875 19.688C34.1875 19.0442 34.1101 18.4182 33.9641 17.8187H63.4234ZM61.7772 6.85563H31.5623V2.73438H67.0932C66.4843 5.10139 64.3318 6.85563 61.7772 6.85563ZM28.828 12.2069C28.0304 11.9353 27.1757 11.7879 26.2873 11.7879C25.2094 11.7879 24.1812 12.0049 23.2441 12.3975V2.73438H28.828V12.2069ZM20.5099 2.73438V6.85563H8.22281C5.66822 6.85563 3.51572 5.10152 2.90678 2.73438H20.5099Z" fill="#181F3F"/>
</svg>
