<svg width="14" height="8" viewBox="0 0 14 8" fill="none" xmlns="http://www.w3.org/2000/svg">
<path fill-rule="evenodd" clip-rule="evenodd" d="M7.00001 0C10.7648 0 13.7705 3.27843 13.8955 3.41783C14.0348 3.57364 14.0348 3.80918 13.8955 3.96498C13.7705 4.10438 10.7647 7.38281 7.00001 7.38281C3.23533 7.38281 0.229537 4.10438 0.104549 3.96498C-0.0348496 3.80918 -0.0348496 3.57364 0.104549 3.41783C0.229537 3.27843 3.23527 0 7.00001 0ZM4.12892 3.69141C4.12892 5.27436 5.41706 6.5625 7.00001 6.5625C8.58297 6.5625 9.87111 5.27436 9.87111 3.69141C9.87111 2.10845 8.58297 0.820312 7.00001 0.820312C5.41706 0.820312 4.12892 2.10845 4.12892 3.69141Z" fill="black"/>
<path d="M7.41016 2.87109C7.41016 2.45848 7.61499 2.09549 7.9266 1.87223C7.64698 1.72908 7.3351 1.64062 7 1.64062C5.86925 1.64062 4.94922 2.56066 4.94922 3.69141C4.94922 4.82215 5.86925 5.74219 7 5.74219C8.01237 5.74219 8.8503 5.00298 9.01584 4.03709C8.18989 4.303 7.41016 3.67834 7.41016 2.87109Z" fill="black"/>
</svg>
