<svg width="19" height="19" viewBox="0 0 19 19" fill="none" xmlns="http://www.w3.org/2000/svg">
<path fill-rule="evenodd" clip-rule="evenodd" d="M9.49545 0.79997C14.291 0.800474 18.1908 4.70032 18.1913 9.49585C18.1913 14.2909 14.2904 18.1917 9.49545 18.1917C7.09797 18.1912 4.92491 17.2161 3.3503 15.6415C1.77569 14.0669 0.800081 11.8934 0.799577 9.49585C0.800106 4.70135 4.70096 0.800499 9.49545 0.79997ZM4.6369 10.0087C4.76757 10.1394 4.94898 10.2203 5.14932 10.2208L8.77144 10.2203L13.8431 10.2203C14.2438 10.2203 14.5681 9.89597 14.5676 9.4958C14.5676 9.09512 14.2438 8.77128 13.8431 8.77128L8.77141 8.77128L5.14929 8.77178C4.74912 8.77128 4.42477 9.09562 4.42477 9.4963C4.42477 9.69614 4.50574 9.87755 4.6369 10.0087Z" fill="#7A9DB8"/>
</svg>
