<svg width="5" height="9" viewBox="0 0 5 9" fill="none" xmlns="http://www.w3.org/2000/svg">
<path fill-rule="evenodd" clip-rule="evenodd" d="M0.562857 0H4.2781C4.58762 0 4.84095 0.253095 4.84095 0.562857V7.77048C4.84095 8.08048 4.58762 8.33333 4.2781 8.33333H0.562857C0.253333 8.33333 0 8.08 0 7.77024V0.562857C0 0.253095 0.253333 0 0.562857 0ZM3.01476 0.405714H1.82619C1.78857 0.405714 1.7581 0.43619 1.7581 0.474048C1.7581 0.511667 1.78857 0.542143 1.82619 0.542143H3.01476C3.05238 0.542143 3.08286 0.511667 3.08286 0.474048C3.08286 0.43619 3.05238 0.405714 3.01476 0.405714ZM2.42048 8.0519C2.265 8.0519 2.13905 7.92595 2.13905 7.77024C2.13905 7.61452 2.265 7.48881 2.42048 7.48881C2.57595 7.48881 2.7019 7.61452 2.7019 7.77024C2.7019 7.92595 2.57595 8.0519 2.42048 8.0519ZM0.391667 7.29167H4.44929V0.892619H0.391667V7.29167Z" fill="#DA634A"/>
</svg>
