<svg width="12" height="10" viewBox="0 0 12 10" fill="none" xmlns="http://www.w3.org/2000/svg">
<path d="M6.31712 6.46923C6.72188 6.87223 6.72188 7.56308 6.31712 7.96608L5.47869 8.80086C5.07393 9.20386 4.38006 9.20386 3.9753 8.80086L0.303569 5.1163C-0.10119 4.71331 -0.10119 4.02245 0.303569 3.61945L1.142 2.78467C1.54676 2.38167 2.24063 2.38167 2.64538 2.78467L6.31712 6.46923Z" fill="white"/>
<path d="M9.41308 0.297776C9.80889 -0.0992588 10.4874 -0.0992588 10.8832 0.297776L11.7031 1.12021C12.0989 1.51724 12.0989 2.19787 11.7031 2.59491L5.48333 8.80567C5.08753 9.20271 4.40901 9.20271 4.01321 8.80567L3.19334 7.98324C2.79753 7.58621 2.79753 6.90558 3.19334 6.50854L9.41308 0.297776Z" fill="white"/>
</svg>
