<svg width="14" height="13" viewBox="0 0 14 13" fill="none" xmlns="http://www.w3.org/2000/svg">
<path fill-rule="evenodd" clip-rule="evenodd" d="M11.4263 3.16571H12.9111C13.5115 3.16571 14 3.65364 14 4.25331V8.94265C14 9.54234 13.5115 10.0302 12.9111 10.0302H11.4262V12.5323C11.4262 12.7897 11.2172 12.9984 10.9595 12.9984H3.04049C2.78275 12.9984 2.57381 12.7897 2.57381 12.5323V10.0302H1.08888C0.488469 10.0302 0 9.54234 0 8.94265V4.25331C0 3.65361 0.488469 3.16571 1.08888 3.16571H2.57373V0.468069C2.57373 0.210636 2.78269 0.00195312 3.04041 0.00195312H10.9596C11.2173 0.00195312 11.4263 0.210663 11.4263 0.468069V3.16571ZM10.4929 0.934184H3.50705V3.16571H10.4929V0.934184ZM10.4928 12.0662H3.50716V8.2528H10.4929L10.4928 12.0662ZM9.7717 5.90267H10.9596C11.2173 5.90267 11.4263 5.69399 11.4263 5.43655C11.4263 5.17912 11.2173 4.97044 10.9596 4.97044H9.7717C9.51396 4.97044 9.30502 5.17912 9.30502 5.43655C9.30502 5.69399 9.51398 5.90267 9.7717 5.90267Z" fill="black"/>
</svg>
