<svg width="34" height="27" viewBox="0 0 34 27" fill="none" xmlns="http://www.w3.org/2000/svg">
<path fill-rule="evenodd" clip-rule="evenodd" d="M30.6944 0C31.6389 0 32.2685 0.314815 32.8981 0.944444C33.3704 1.57407 33.6852 2.2037 34 3.14815V23.6111C34 24.5556 33.6852 25.1852 33.0556 25.8148C32.4259 26.4444 31.6389 26.7593 30.8519 26.7593H3.14815C2.2037 26.7593 1.57407 26.4444 0.944444 25.8148C0.314815 25.1852 0 24.3981 0 23.6111V3.14815C0 2.2037 0.157407 1.57407 0.787037 0.944444C1.41667 0.314815 2.2037 0 2.99074 0H30.6944ZM31.1667 24.0833C31.3241 23.9259 31.3241 23.7685 31.3241 23.6111V7.87037C31.3241 7.71296 31.3241 7.55556 31.1667 7.39815C31.0093 7.24074 30.8519 7.24074 30.6944 7.24074H2.99074C2.91204 7.24074 2.83333 7.28009 2.75463 7.31944C2.67593 7.3588 2.59722 7.39815 2.51852 7.39815C2.36111 7.55556 2.36111 7.71296 2.36111 7.87037V23.6111C2.36111 23.7685 2.36111 23.9259 2.51852 24.0833C2.67593 24.2407 2.83333 24.2407 2.99074 24.2407H30.6944C30.8519 24.2407 31.0093 24.2407 31.1667 24.0833ZM6.61111 19.3611H5.35185C5.19444 19.3611 5.03704 19.3611 4.87963 19.5185C4.72222 19.6759 4.72222 19.8333 4.72222 19.9907V21.25C4.72222 21.4074 4.72222 21.5648 4.87963 21.7222C5.03704 21.8796 5.19444 21.8796 5.35185 21.8796H6.61111C6.76852 21.8796 6.92593 21.8796 7.08333 21.7222C7.24074 21.5648 7.24074 21.4074 7.24074 21.25V19.9907C7.24074 19.8333 7.24074 19.6759 7.08333 19.5185C7.00463 19.5185 6.92593 19.4792 6.84722 19.4398C6.76852 19.4005 6.68981 19.3611 6.61111 19.3611ZM5.35185 14.4815H6.61111C6.68981 14.4815 6.76852 14.5208 6.84722 14.5602C6.92593 14.5995 7.00463 14.6389 7.08333 14.6389C7.24074 14.7963 7.24074 14.9537 7.24074 15.1111V16.3704C7.24074 16.5278 7.24074 16.6852 7.08333 16.8426C6.92593 17 6.76852 17 6.61111 17H5.35185C5.27315 17 5.19444 16.9606 5.11574 16.9213C5.03704 16.8819 4.95833 16.8426 4.87963 16.8426C4.72222 16.6852 4.72222 16.5278 4.72222 16.3704V15.1111C4.72222 14.9537 4.72222 14.7963 4.87963 14.6389C5.03704 14.4815 5.19444 14.4815 5.35185 14.4815ZM6.61111 9.75926H5.35185C5.19444 9.75926 5.03704 9.75926 4.87963 9.91667C4.87963 9.99537 4.84028 10.0741 4.80093 10.1528C4.76157 10.2315 4.72222 10.3102 4.72222 10.3889V11.6481C4.72222 11.8056 4.72222 11.963 4.87963 12.1204H5.35185H6.61111C6.76852 12.1204 6.92593 12.1204 7.08333 11.963C7.24074 11.8056 7.24074 11.6481 7.24074 11.4907V10.3889C7.24074 10.2315 7.24074 10.0741 7.08333 9.91667C6.92593 9.75926 6.76852 9.75926 6.61111 9.75926ZM10.2315 19.3611H28.3333C28.412 19.3611 28.4907 19.4005 28.5694 19.4398C28.6481 19.4792 28.7269 19.5185 28.8056 19.5185C28.963 19.6759 28.963 19.8333 28.963 19.9907V21.25C28.963 21.4074 28.963 21.5648 28.8056 21.7222C28.6481 21.8796 28.4907 21.8796 28.3333 21.8796H10.2315C10.0741 21.8796 9.91667 21.8796 9.75926 21.7222C9.60185 21.5648 9.60185 21.4074 9.60185 21.25V19.9907C9.60185 19.8333 9.60185 19.6759 9.75926 19.5185C9.91667 19.3611 10.0741 19.3611 10.2315 19.3611ZM28.3333 14.4815H10.2315C10.0741 14.4815 9.91667 14.4815 9.75926 14.6389C9.60185 14.7963 9.60185 14.9537 9.60185 15.1111V16.3704C9.60185 16.5278 9.60185 16.6852 9.75926 16.8426C9.91667 17 10.0741 17 10.2315 17H28.3333C28.4907 17 28.6481 17 28.8056 16.8426C28.963 16.6852 28.963 16.5278 28.963 16.3704V15.1111C28.963 14.9537 28.963 14.7963 28.8056 14.6389C28.7269 14.6389 28.6481 14.5995 28.5694 14.5602C28.4907 14.5208 28.412 14.4815 28.3333 14.4815ZM10.2315 9.75926H28.3333C28.4907 9.75926 28.6481 9.75926 28.8056 9.91667C28.963 10.0741 28.963 10.2315 28.963 10.3889V11.4907C28.963 11.6481 28.963 11.8056 28.8056 11.963C28.6481 12.1204 28.4907 12.1204 28.3333 12.1204H10.2315H9.75926C9.60185 11.963 9.60185 11.8056 9.60185 11.6481V10.3889C9.60185 10.2315 9.60185 10.0741 9.75926 9.91667C9.91667 9.75926 10.0741 9.75926 10.2315 9.75926Z" fill="#DA634A"/>
</svg>
