<svg width="32" height="32" viewBox="0 0 32 32" fill="none" xmlns="http://www.w3.org/2000/svg">
<path fill-rule="evenodd" clip-rule="evenodd" d="M4.67798 4.6795C10.918 -1.55918 21.066 -1.55918 27.306 4.6795C33.5447 10.9182 33.5447 21.0689 27.306 27.3075C24.186 30.4261 20.09 31.9848 15.9927 31.9848C11.8953 31.9848 7.79798 30.4262 4.67798 27.3075C-1.55933 21.0688 -1.55933 10.9182 4.67798 4.6795ZM22.5913 22.5928C23.1126 22.0715 23.1126 21.2288 22.5913 20.7075L17.8779 15.9928L22.5912 11.2795C23.1125 10.7582 23.1125 9.91419 22.5912 9.39419C22.0699 8.87288 21.2272 8.87288 20.7059 9.39419L15.9925 14.1075L11.2792 9.39419C10.7579 8.87288 9.91392 8.87288 9.39392 9.39419C8.87261 9.91419 8.87261 10.7582 9.39392 11.2795L14.1072 15.9928L9.39523 20.7061C8.87392 21.2261 8.87392 22.0701 9.39523 22.5914C9.65523 22.8514 9.99661 22.9821 10.3379 22.9821C10.6779 22.9821 11.0193 22.8514 11.2806 22.5914L15.9926 17.8781L20.7059 22.5928C20.9659 22.8528 21.3073 22.9835 21.6486 22.9835C21.99 22.9835 22.3313 22.8528 22.5913 22.5928Z" fill="black"/>
</svg>
