<svg width="18" height="17" viewBox="0 0 18 17" fill="none" xmlns="http://www.w3.org/2000/svg">
<path fill-rule="evenodd" clip-rule="evenodd" d="M17.4 8.4C17.4 3.76809 13.6319 0 8.99996 0C4.36805 0 0.599964 3.76809 0.599964 8.4C0.599964 13.0319 4.36805 16.8 8.99996 16.8C13.6319 16.8 17.4 13.0319 17.4 8.4ZM9.90506 12.3949L6.40505 8.89491C6.13136 8.62119 6.13136 8.17881 6.40505 7.90512L9.90506 4.40511C10.1788 4.13142 10.6212 4.13142 10.8949 4.40511C11.1685 4.6788 11.1685 5.12121 10.8949 5.3949L7.88975 8.4L10.8949 11.4051C11.1686 11.6788 11.1686 12.1212 10.8949 12.3949C10.7584 12.5314 10.5792 12.6 10.4 12.6C10.2208 12.6 10.0416 12.5314 9.90506 12.3949Z" fill="black"/>
</svg>
