<svg width="16" height="15" viewBox="0 0 16 15" fill="none" xmlns="http://www.w3.org/2000/svg">
<path fill-rule="evenodd" clip-rule="evenodd" d="M7.99977 2.59789C10.7585 2.59818 13.002 4.84165 13.0022 7.60036C13.0022 10.3588 10.7582 12.6029 7.99977 12.6028C6.62057 12.6025 5.37048 12.0416 4.46465 11.1358C3.55883 10.23 2.99759 8.97958 2.9973 7.60036C2.9976 4.84224 5.24165 2.59819 7.99977 2.59789ZM7.99977 10.5182C8.23027 10.5182 8.41657 10.3319 8.41657 10.1014L8.41684 8.01713L10.5008 8.01713C10.7313 8.01713 10.9179 7.83054 10.9176 7.60034C10.9176 7.36984 10.7313 7.18354 10.5008 7.18354L8.41684 7.18354L8.41684 5.09956C8.41684 4.86906 8.23026 4.68247 8.00005 4.68276C7.76984 4.68247 7.58325 4.86906 7.58325 5.09956L7.58325 7.18354L5.49956 7.18383C5.26935 7.18354 5.08276 7.37013 5.08276 7.60063C5.08276 7.71559 5.12934 7.81995 5.2048 7.8954C5.27996 7.97057 5.38432 8.01715 5.49957 8.01744L7.58327 8.01715L7.58296 10.1014C7.58296 10.2164 7.62954 10.3208 7.705 10.3962C7.78047 10.4717 7.88481 10.5182 7.99977 10.5182Z" fill="#DA634A"/>
</svg>
