<svg width="18" height="18" viewBox="0 0 18 18" fill="none" xmlns="http://www.w3.org/2000/svg">
<circle cx="9" cy="9" r="9" fill="#5AD3C8"/>
<path d="M9.20386 10.5874C9.46406 10.8464 9.46406 11.2906 9.20386 11.5496L8.66487 12.0863C8.40467 12.3453 7.95861 12.3453 7.69841 12.0863L5.338 9.71762C5.0778 9.45855 5.0778 9.01443 5.338 8.75536L5.87699 8.21872C6.1372 7.95965 6.58326 7.95965 6.84346 8.21872L9.20386 10.5874Z" fill="white"/>
<path d="M11.1942 6.62014C11.4486 6.3649 11.8848 6.3649 12.1392 6.62014L12.6663 7.14884C12.9208 7.40408 12.9208 7.84163 12.6663 8.09687L8.6679 12.0895C8.41346 12.3447 7.97727 12.3447 7.72282 12.0895L7.19576 11.5608C6.94132 11.3056 6.94132 10.868 7.19576 10.6128L11.1942 6.62014Z" fill="white"/>
</svg>
