<svg width="16" height="17" viewBox="0 0 16 17" fill="none" xmlns="http://www.w3.org/2000/svg">
<path d="M7.5555 16.4997C6.82017 16.4997 6.22217 15.9017 6.22217 15.1663C6.22217 14.431 6.82017 13.833 7.5555 13.833C8.29083 13.833 8.88883 14.431 8.88883 15.1663C8.88883 15.9017 8.29083 16.4997 7.5555 16.4997Z" fill="#7a9db8"/>
<path d="M11.9998 16.4997C11.2645 16.4997 10.6665 15.9017 10.6665 15.1663C10.6665 14.431 11.2645 13.833 11.9998 13.833C12.7352 13.833 13.3332 14.431 13.3332 15.1663C13.3332 15.9017 12.7352 16.4997 11.9998 16.4997Z" fill="#7a9db8"/>
<path d="M13.4299 10.9054L13.4036 11.0241C13.3314 11.3314 13.0687 11.5479 12.7666 11.5479H6.27824C5.97615 11.5479 5.71346 11.3314 5.64122 11.0172L4.61674 6.65906H6.81018C6.67884 6.21906 6.60003 5.7581 6.57376 5.26223H4.28838L4.17017 4.75239C3.94688 3.81652 3.16539 3.16699 2.25911 3.16699H0.656719C0.295524 3.16699 0 3.48128 0 3.8654C0 4.24953 0.295524 4.56382 0.656719 4.56382H2.25911C2.56121 4.56382 2.82389 4.78033 2.89613 5.09461L4.36718 11.3594C4.59047 12.2952 5.37196 12.9448 6.27824 12.9448H12.7666C13.6729 12.9448 14.4544 12.2952 14.6777 11.3664L15.1111 9.55048C14.566 10.1162 13.975 10.5702 13.4299 10.9054Z" fill="#7a9db8"/>
<path fill-rule="evenodd" clip-rule="evenodd" d="M12.1607 0.528284L15.6607 1.77558C15.864 1.84752 16 2.04725 16 2.27143V5.0775C16 8.50233 12.3507 10.1673 12.1953 10.2364C12.07 10.2916 11.93 10.2916 11.8047 10.2364C11.6493 10.1673 8 8.50233 8 5.0775V2.27143C8 2.04725 8.136 1.84752 8.33933 1.77558L11.8393 0.528284C11.9433 0.490572 12.0567 0.490572 12.1607 0.528284ZM12.3573 6.86813L14.1907 4.42382C14.4187 4.12073 14.368 3.68145 14.0787 3.4447C13.7887 3.20516 13.37 3.25893 13.1427 3.56203L11.7393 5.43297L11.1007 4.85961C10.822 4.60889 10.4007 4.64241 10.1613 4.93503C9.92067 5.22765 9.95333 5.66902 10.2333 5.91974L11.4 6.9673C11.6867 7.2257 12.124 7.18031 12.3573 6.86813Z" fill="#7a9db8"/>
</svg>
