<svg width="18" height="21" viewBox="0 0 18 21" fill="none" xmlns="http://www.w3.org/2000/svg">
<path d="M11.6357 1.91533C11.3528 1.68391 11.07 1.45248 10.8 1.20819C10.4914 0.912478 10.4143 0.565335 10.7485 0.243906C11.0443 -0.0518081 11.3785 -0.000379503 11.6614 0.282478C12.3428 0.951049 13.0114 1.61962 13.68 2.30105C13.9885 2.62248 13.9757 2.98248 13.6671 3.29105C13.0243 3.95962 12.3685 4.60248 11.7 5.25819C11.4043 5.55391 11.0571 5.63105 10.7228 5.30962C10.3885 4.96248 10.5171 4.62819 10.8128 4.34534C11.07 4.08819 11.3528 3.85676 11.6228 3.62533C11.5843 3.56105 11.5585 3.49676 11.52 3.44533C10.4271 3.44533 9.33426 3.44533 8.24141 3.44533C7.79141 3.44533 7.34141 3.41962 7.31569 2.84105C7.30283 2.22391 7.76569 2.15962 8.25426 2.15962C9.33426 2.15962 10.4143 2.15962 11.4943 2.15962C11.5585 2.05676 11.5971 1.99248 11.6357 1.91533Z" fill="#7a9db8"/>
<path fill-rule="evenodd" clip-rule="evenodd" d="M5.28418 18.4113C5.28418 17.3313 6.22275 16.3928 7.31561 16.4185C8.36989 16.4442 9.28275 17.3828 9.25704 18.4242C9.24418 19.4528 8.29275 20.3913 7.26418 20.3913C6.23561 20.3913 5.29704 19.4528 5.28418 18.4113ZM6.58275 18.4242C6.58275 18.8485 6.87847 19.1185 7.28989 19.1056C7.71418 19.0928 7.94561 18.8099 7.99704 18.3856C7.91989 17.9871 7.68847 17.7042 7.26418 17.7171C6.83989 17.7299 6.56989 17.9999 6.58275 18.4242Z" fill="#7a9db8"/>
<path fill-rule="evenodd" clip-rule="evenodd" d="M11.957 18.3985C11.957 17.2928 12.8956 16.3928 14.0013 16.4185C15.0427 16.4442 15.9556 17.4085 15.9299 18.4371C15.9042 19.4785 14.9399 20.4042 13.9113 20.3914C12.8699 20.3785 11.957 19.4528 11.957 18.3985ZM13.2556 18.4371C13.2685 18.8871 13.5642 19.0671 13.9627 19.1185C14.3742 19.0285 14.657 18.7842 14.6442 18.3599C14.6056 17.9614 14.3485 17.6785 13.9113 17.7042C13.487 17.7299 13.2427 17.9999 13.2556 18.4371Z" fill="#7a9db8"/>
<path d="M12.2529 13.5763C12.7158 13.6406 12.9343 13.3577 12.9729 12.9334C13.0629 12.1234 13.1529 11.3006 13.2429 10.4906C13.2943 10.0149 13.2686 9.51342 12.6643 9.47485C12.0729 9.43628 11.9829 9.912 11.9443 10.4006C11.8801 11.1849 11.7643 11.982 11.6872 12.7663C11.6615 13.1649 11.7901 13.512 12.2529 13.5763Z" fill="#7a9db8"/>
<path d="M9.46318 12.3292C9.38603 11.5964 9.3346 10.8635 9.2446 10.1178C9.20603 9.74493 9.00032 9.44922 8.58889 9.44922C8.22889 9.44922 7.95889 9.66779 7.9846 10.0406C8.06175 11.0692 8.1646 12.0849 8.29318 13.1135C8.3446 13.4864 8.64032 13.6278 9.00032 13.5764C9.34746 13.5249 9.48889 13.2806 9.5146 12.9592C9.5146 12.7535 9.47603 12.5349 9.46318 12.3292C9.45032 12.3292 9.45032 12.3292 9.46318 12.3292Z" fill="#7a9db8"/>
<path fill-rule="evenodd" clip-rule="evenodd" d="M6.37724 7.04508H16.7915C17.8201 7.04508 18.0515 7.31508 17.8072 8.27937C17.5924 9.11467 17.3723 9.9482 17.1522 10.7819C16.7793 12.194 16.4063 13.6066 16.0587 15.0294C15.8787 15.7494 15.5315 16.0322 14.7858 16.0065C13.8043 15.9705 12.8166 15.9786 11.8313 15.9867C11.4098 15.9902 10.9886 15.9937 10.5687 15.9937C10.1612 15.9937 9.75373 15.9888 9.34625 15.9839C8.42944 15.973 7.51263 15.962 6.59581 16.0065C5.73438 16.0579 5.32295 15.7494 5.11724 14.8879C4.73832 13.3302 4.3326 11.7801 3.92724 10.2314C3.58986 8.94236 3.25274 7.65434 2.93153 6.36366C2.81581 5.86223 2.6101 5.7208 2.13438 5.75937C1.81295 5.78692 1.49153 5.78167 1.1701 5.77642C1.04153 5.77433 0.912954 5.77223 0.784383 5.77223C0.360097 5.77223 0.0386685 5.6308 0.0258113 5.15508C0.0129542 4.69223 0.295811 4.49937 0.732954 4.49937H3.11153C3.65153 4.48651 3.84438 4.83366 3.97295 5.2708C4.02567 5.45328 4.05409 5.66006 4.08241 5.86613C4.14387 6.31343 4.20488 6.75738 4.51295 6.94223C4.85625 7.14635 5.34685 7.10943 5.83014 7.07306C6.01655 7.05903 6.20188 7.04508 6.37724 7.04508ZM14.3615 14.7079C14.683 14.7079 14.8244 14.6179 14.9015 14.2965C15.31 12.652 15.7454 11.0074 16.1927 9.31783C16.2805 8.98638 16.3687 8.6532 16.4572 8.31794C12.6644 8.31794 8.93581 8.31794 5.20724 8.30508C4.78295 8.30508 4.80867 8.48508 4.88581 8.79366C5.36153 10.6065 5.83724 12.4322 6.3001 14.2451C6.37724 14.5794 6.51867 14.7079 6.89153 14.7079C9.38581 14.6951 11.8672 14.6951 14.3615 14.7079Z" fill="#7a9db8"/>
</svg>
