<svg width="18" height="15" viewBox="0 0 18 15" fill="none" xmlns="http://www.w3.org/2000/svg">
<path fill-rule="evenodd" clip-rule="evenodd" d="M15.6307 0.00878906H4.81641C3.51 0.00878906 2.44716 1.07163 2.44716 2.37804V2.69824H2.36925C1.06284 2.69824 0 3.76109 0 5.06749V5.3877V12.1063C0 13.4127 1.06284 14.4756 2.36929 14.4756H13.1836C14.49 14.4756 15.5529 13.4127 15.5529 12.1063V11.7861H15.6308C16.9372 11.7861 18 10.7233 18 9.41688V2.37804C18 1.07163 16.9372 0.00878906 15.6307 0.00878906ZM14.4982 12.1063C14.4982 12.8312 13.9085 13.4209 13.1836 13.4209H2.36929C1.6444 13.4209 1.05469 12.8312 1.05469 12.1063V8.97363H14.4982V12.1063ZM1.05469 7.91895H14.4982V6.44238H1.05469V7.91895ZM14.4982 5.3877H1.05469V5.06749C1.05469 4.34264 1.6444 3.75293 2.36929 3.75293H13.1836C13.9084 3.75293 14.4982 4.34264 14.4982 5.06749V5.3877ZM15.6307 10.7314C16.3556 10.7314 16.9453 10.1417 16.9453 9.41688V2.37804C16.9453 1.65319 16.3556 1.06348 15.6307 1.06348H4.81641C4.09152 1.06348 3.50184 1.65319 3.50184 2.37804V2.69824H13.1836C14.49 2.69824 15.5528 3.76109 15.5528 5.06749V10.7314H15.6307Z" fill="#7a9db8"/>
<path d="M2.55469 10.5908H7.19531V11.6455H2.55469V10.5908Z" fill="#7a9db8"/>
<path d="M11.0625 10.5908H12.9981V11.6455H11.0625V10.5908Z" fill="#7a9db8"/>
</svg>
