<svg width="15" height="16" viewBox="0 0 15 16" fill="none" xmlns="http://www.w3.org/2000/svg">
<path fill-rule="evenodd" clip-rule="evenodd" d="M2.46725 1.26767C2.85543 0.782457 3.44311 0.5 4.06449 0.5H10.9355C11.5569 0.5 12.1445 0.782457 12.5328 1.26767L14.5518 3.79146C14.6877 3.96144 14.7948 4.15076 14.87 4.35174C14.9553 4.57958 15 4.82247 15 5.06925V13.4545C15 14.5842 14.0842 15.5 12.9545 15.5H2.04545C0.915784 15.5 0 14.5842 0 13.4545V5.06925C0 4.82247 0.0446318 4.57958 0.129975 4.35174C0.205255 4.15076 0.312239 3.96144 0.44822 3.79146L2.46725 1.26767ZM4.06449 1.86364C3.85737 1.86364 3.66147 1.95779 3.53208 2.11953L2.10042 3.90909H12.8996L11.4679 2.11952C11.3385 1.95779 11.1426 1.86364 10.9355 1.86364H4.06449ZM13.6364 5.27273H1.36364V13.4545C1.36364 13.8311 1.6689 14.1364 2.04545 14.1364H12.9545C13.3311 14.1364 13.6364 13.8311 13.6364 13.4545V5.27273ZM5.45455 7.31818C5.45455 6.94161 5.75981 6.63636 6.13636 6.63636H8.86364C9.2402 6.63636 9.54545 6.94161 9.54545 7.31818C9.54545 7.69475 9.2402 8 8.86364 8H6.13636C5.75981 8 5.45455 7.69475 5.45455 7.31818Z" fill="#7a9db8"/>
</svg>
