<svg width="18" height="15" viewBox="0 0 18 15" fill="none" xmlns="http://www.w3.org/2000/svg">
<path fill-rule="evenodd" clip-rule="evenodd" d="M15.8868 0.734375C16.3564 0.734375 16.6695 0.890897 16.9825 1.20394C17.2173 1.51698 17.3738 1.83003 17.5303 2.29959V12.4735C17.5303 12.9431 17.3738 13.2561 17.0608 13.5692C16.7477 13.8822 16.3564 14.0387 15.9651 14.0387H2.19119C1.72163 14.0387 1.40859 13.8822 1.09554 13.5692C0.782498 13.2561 0.625977 12.8648 0.625977 12.4735V2.29959C0.625977 1.83003 0.704237 1.51698 1.01728 1.20394C1.33032 0.890897 1.72163 0.734375 2.11293 0.734375H15.8868ZM16.1216 12.7083C16.1999 12.63 16.1999 12.5518 16.1999 12.4735V4.64742C16.1999 4.56916 16.1999 4.4909 16.1216 4.41264C16.0434 4.33437 15.9651 4.33437 15.8868 4.33437H2.11293C2.0738 4.33437 2.03467 4.35394 1.99554 4.37351C1.95641 4.39307 1.91728 4.41264 1.87815 4.41264C1.79989 4.4909 1.79989 4.56916 1.79989 4.64742V12.4735C1.79989 12.5518 1.79989 12.63 1.87815 12.7083C1.95641 12.7865 2.03467 12.7865 2.11293 12.7865H15.8868C15.9651 12.7865 16.0434 12.7865 16.1216 12.7083ZM3.91293 10.3605H3.28685C3.20859 10.3605 3.13032 10.3605 3.05206 10.4387C2.9738 10.517 2.9738 10.5952 2.9738 10.6735V11.2996C2.9738 11.3779 2.9738 11.4561 3.05206 11.5344C3.13032 11.6126 3.20859 11.6126 3.28685 11.6126H3.91293C3.99119 11.6126 4.06945 11.6126 4.14772 11.5344C4.22598 11.4561 4.22598 11.3779 4.22598 11.2996V10.6735C4.22598 10.5952 4.22598 10.517 4.14772 10.4387C4.10859 10.4387 4.06945 10.4192 4.03032 10.3996C3.99119 10.38 3.95206 10.3605 3.91293 10.3605ZM3.28685 7.93437H3.91293C3.95206 7.93437 3.99119 7.95394 4.03032 7.97351C4.06945 7.99307 4.10859 8.01264 4.14772 8.01264C4.22598 8.0909 4.22598 8.16916 4.22598 8.24742V8.87351C4.22598 8.95177 4.22598 9.03003 4.14772 9.10829C4.06945 9.18655 3.99119 9.18655 3.91293 9.18655H3.28685C3.24772 9.18655 3.20859 9.16698 3.16945 9.14742C3.13032 9.12785 3.09119 9.10829 3.05206 9.10829C2.9738 9.03003 2.9738 8.95177 2.9738 8.87351V8.24742C2.9738 8.16916 2.9738 8.0909 3.05206 8.01264C3.13032 7.93437 3.20859 7.93437 3.28685 7.93437ZM3.91293 5.58655H3.28685C3.20859 5.58655 3.13032 5.58655 3.05206 5.66481C3.05206 5.70394 3.0325 5.74307 3.01293 5.7822C2.99337 5.82133 2.9738 5.86046 2.9738 5.89959V6.52568C2.9738 6.60394 2.9738 6.6822 3.05206 6.76046H3.28685H3.91293C3.99119 6.76046 4.06945 6.76046 4.14772 6.6822C4.22598 6.60394 4.22598 6.52568 4.22598 6.44742V5.89959C4.22598 5.82133 4.22598 5.74307 4.14772 5.66481C4.06945 5.58655 3.99119 5.58655 3.91293 5.58655ZM5.71293 10.3605H14.7129C14.7521 10.3605 14.7912 10.38 14.8303 10.3996C14.8695 10.4192 14.9086 10.4387 14.9477 10.4387C15.026 10.517 15.026 10.5952 15.026 10.6735V11.2996C15.026 11.3779 15.026 11.4561 14.9477 11.5344C14.8695 11.6126 14.7912 11.6126 14.7129 11.6126H5.71293C5.63467 11.6126 5.55641 11.6126 5.47815 11.5344C5.39989 11.4561 5.39989 11.3779 5.39989 11.2996V10.6735C5.39989 10.5952 5.39989 10.517 5.47815 10.4387C5.55641 10.3605 5.63467 10.3605 5.71293 10.3605ZM14.7129 7.93437H5.71293C5.63467 7.93437 5.55641 7.93437 5.47815 8.01264C5.39989 8.0909 5.39989 8.16916 5.39989 8.24742V8.87351C5.39989 8.95177 5.39989 9.03003 5.47815 9.10829C5.55641 9.18655 5.63467 9.18655 5.71293 9.18655H14.7129C14.7912 9.18655 14.8695 9.18655 14.9477 9.10829C15.026 9.03003 15.026 8.95177 15.026 8.87351V8.24742C15.026 8.16916 15.026 8.0909 14.9477 8.01264C14.9086 8.01264 14.8695 7.99307 14.8303 7.97351C14.7912 7.95394 14.7521 7.93437 14.7129 7.93437ZM5.71293 5.58655H14.7129C14.7912 5.58655 14.8695 5.58655 14.9477 5.66481C15.026 5.74307 15.026 5.82133 15.026 5.89959V6.44742C15.026 6.52568 15.026 6.60394 14.9477 6.6822C14.8695 6.76046 14.7912 6.76046 14.7129 6.76046H5.71293H5.47815C5.39989 6.6822 5.39989 6.60394 5.39989 6.52568V5.89959C5.39989 5.82133 5.39989 5.74307 5.47815 5.66481C5.55641 5.58655 5.63467 5.58655 5.71293 5.58655Z" fill="#7a9db8"/>
</svg>
