<svg width="70" height="79" viewBox="0 0 70 79" fill="none" xmlns="http://www.w3.org/2000/svg">
<path d="M37.4054 16.8188C35.7707 16.8188 34.4409 18.1487 34.4409 19.7833C34.4409 20.4172 34.9548 20.931 35.5886 20.931C36.2225 20.931 36.7364 20.4172 36.7364 19.7833C36.7364 19.4144 37.0364 19.1143 37.4054 19.1143C37.7744 19.1143 38.0744 19.4144 38.0744 19.7833C38.0744 20.4172 38.5883 20.931 39.2222 20.931C39.856 20.931 40.3699 20.4172 40.3699 19.7833C40.3699 18.1487 39.0401 16.8188 37.4054 16.8188Z" fill="#181F3F"/>
<path d="M51.8284 20.931C52.4622 20.931 52.9761 20.4172 52.9761 19.7833C52.9761 19.4144 53.2762 19.1143 53.6451 19.1143C54.0141 19.1143 54.3142 19.4144 54.3142 19.7833C54.3142 20.4172 54.8281 20.931 55.4619 20.931C56.0958 20.931 56.6096 20.4172 56.6096 19.7833C56.6096 18.1487 55.2798 16.8188 53.6451 16.8188C52.0105 16.8188 50.6807 18.1487 50.6807 19.7833C50.6807 20.4172 51.1945 20.931 51.8284 20.931Z" fill="#181F3F"/>
<path d="M48.3174 22.6611C48.7338 22.1832 48.6841 21.4583 48.2062 21.0417C47.7283 20.6253 47.0032 20.6751 46.5868 21.153C46.0227 21.8001 45.0242 21.7966 44.4632 21.153C44.0468 20.6751 43.3218 20.6253 42.8439 21.0419C42.366 21.4583 42.3162 22.1833 42.7328 22.6612C44.2104 24.3566 46.8413 24.3548 48.3174 22.6611Z" fill="#181F3F"/>
<path d="M45.243 6.19305C43.8319 7.39096 43.8341 9.56795 45.2433 10.7639C45.4591 10.9471 45.7229 11.0366 45.9854 11.0366C47.0462 11.0366 47.5452 9.70675 46.7285 9.01383C46.3979 8.73333 46.3976 8.22374 46.7285 7.94294C48.1429 6.74257 48.135 4.56527 46.7285 3.3718C46.2452 2.96168 45.5209 3.0209 45.1108 3.50417C44.7007 3.98744 44.7599 4.71172 45.2432 5.12184C45.4588 5.30487 45.4911 5.53594 45.4911 5.65729C45.4912 6.01217 45.2522 6.17774 45.243 6.19305Z" fill="#181F3F"/>
<path d="M14.1082 31.3789C13.4743 31.3789 12.9604 31.8928 12.9604 32.5266V34.3578C12.9604 34.9916 13.4743 35.5055 14.1082 35.5055C14.742 35.5055 15.2559 34.9916 15.2559 34.3578V32.5266C15.2559 31.8928 14.742 31.3789 14.1082 31.3789Z" fill="#181F3F"/>
<path d="M6.41116 23.6871C9.94629 23.6871 12.8223 20.811 12.8223 17.2759C12.8223 13.7408 9.94629 10.8647 6.41116 10.8647C2.87603 10.8647 0 13.7408 0 17.2759C0 20.811 2.87603 23.6871 6.41116 23.6871ZM6.41116 13.1602C8.68058 13.1602 10.5269 15.0065 10.5269 17.2759C10.5269 19.5453 8.68058 21.3916 6.41116 21.3916C4.14174 21.3916 2.29544 19.5453 2.29544 17.2759C2.29544 15.0065 4.14174 13.1602 6.41116 13.1602Z" fill="#181F3F"/>
<path d="M18.6131 12.054C21.3272 12.054 23.5353 9.84594 23.5353 7.13166C23.5353 4.41753 21.3272 2.20947 18.6131 2.20947C15.899 2.20947 13.6909 4.41753 13.6909 7.13166C13.6909 9.84594 15.899 12.054 18.6131 12.054ZM18.6131 4.50506C20.0615 4.50506 21.2398 5.68339 21.2398 7.13181C21.2398 8.58023 20.0615 9.75871 18.6131 9.75871C17.1647 9.75871 15.9864 8.58039 15.9864 7.13181C15.9864 5.68339 17.1647 4.50506 18.6131 4.50506Z" fill="#181F3F"/>
<path d="M63.5528 46.0078H59.3561C59 41.0215 56.3982 37.6501 54.7414 35.9856C58.819 33.7413 61.9962 30.0566 63.5842 25.6218C67.1248 25.6047 70.0002 22.7196 70.0002 19.175C70.0002 15.6304 67.1248 12.7455 63.5842 12.7284C60.9306 5.31715 53.8377 0 45.5255 0C37.2133 0 30.1204 5.31715 27.4667 12.7284C23.926 12.7455 21.0506 15.6304 21.0506 19.175C21.0506 22.7198 23.926 25.6047 27.4667 25.6218C29.0551 30.0581 32.234 33.7437 36.3136 35.9879C35.5001 36.809 34.4563 38.0444 33.5611 39.6829C33.4261 39.7016 32.2038 39.6214 30.8287 40.4146C28.9374 37.787 26.6711 36.635 25.0184 36.1317C24.0182 35.8272 23.3462 34.937 23.3462 33.9166V33.8652C23.3462 29.7158 19.9704 26.34 15.821 26.34C12.0617 26.34 8.93744 29.1109 8.38316 32.7175H7.71611C5.71862 32.7175 4.09375 34.3425 4.09375 36.34C4.09375 38.3375 5.71877 39.9625 7.71611 39.9625H8.29578V46.0079H6.88899C3.33381 46.0079 0.441406 48.9003 0.441406 52.4555C0.441406 55.6956 2.84397 58.384 5.96086 58.8353L8.05583 67.8838C9.46569 73.9743 14.9028 78.351 21.2231 78.351H49.2182C55.4703 78.351 60.9603 74.0409 62.3858 67.8838L64.4808 58.8353C67.5977 58.3839 70.0002 55.6954 70.0002 52.4555C70.0004 48.9002 67.108 46.0078 63.5528 46.0078ZM64.2618 15.0835C66.2147 15.4208 67.7049 17.1272 67.7049 19.175C67.7049 21.2229 66.2147 22.9293 64.2618 23.2666C64.72 21.1606 64.6799 19.5417 64.7005 19.175C64.7005 17.7564 64.5388 16.3545 64.2618 15.0835ZM26.7892 23.2667C24.8363 22.9293 23.3461 21.223 23.3461 19.1752C23.3461 17.1273 24.8363 15.4209 26.7892 15.0836C26.1919 17.8244 26.221 20.6534 26.7892 23.2667ZM29.2588 23.6856C26.2784 12.9548 34.3836 2.29544 45.5255 2.29544C53.2024 2.29544 59.6978 7.44717 61.7385 14.4747C64.8633 25.2919 56.7476 35.964 45.6628 36.0528C37.8261 36.1167 31.2315 30.8137 29.2588 23.6856ZM30.4836 46.0078C29.8963 44.1036 31.406 41.9782 33.5611 41.9782C35.7538 41.9782 37.2391 44.1878 36.6126 46.0078H30.4836ZM7.7158 37.6671C6.98417 37.6671 6.38889 37.0716 6.38889 36.34C6.38889 35.6082 6.98417 35.0129 7.7158 35.0129H8.29548V37.6671H7.7158ZM10.5909 33.8652C10.5909 30.9815 12.937 28.6354 15.8207 28.6354C18.7044 28.6354 21.0505 30.9815 21.0505 33.8652V33.9166C21.0505 35.9541 22.3763 37.7267 24.3495 38.3275C25.6923 38.7364 27.5556 39.6991 29.1097 41.9594C28.2363 43.1651 27.9221 44.6822 28.1325 46.0079H10.5909C10.5909 40.5325 10.5909 39.2243 10.5909 33.8652ZM63.5528 56.6075H21.2731C20.6393 56.6075 20.1254 57.1214 20.1254 57.7552C20.1254 58.3892 20.6393 58.9029 21.2731 58.9029H62.109L60.1496 67.3659C58.965 72.4823 54.4699 76.0555 49.2182 76.0555H21.2231C15.9714 76.0555 11.4763 72.4823 10.2919 67.3659L8.33251 58.9029H16.6822C17.3161 58.9029 17.83 58.3892 17.83 57.7552C17.83 57.1214 17.3161 56.6075 16.6822 56.6075H6.88868C4.59921 56.6075 2.73654 54.745 2.73654 52.4553C2.73654 50.1659 4.59906 48.3032 6.88868 48.3032H48.0313C49.2147 48.3032 49.6219 46.7132 48.5784 46.1463C48.0759 45.8736 48.3353 46.0748 38.9763 46.0078C39.3733 43.739 38.1824 41.2689 35.9099 40.2046C36.8656 38.6417 37.9412 37.5713 38.5434 37.0377C43.0842 38.8165 48.1157 38.7598 52.5134 37.0352C53.6948 38.0656 56.6472 41.1026 57.0575 46.0076H52.6137C51.9798 46.0076 51.4659 46.5215 51.4659 47.1553C51.4659 47.7893 51.9798 48.3031 52.6137 48.3031H63.5525C65.842 48.3031 67.7046 50.1657 67.7046 52.4552C67.7049 54.745 65.8423 56.6075 63.5528 56.6075Z" fill="#181F3F"/>
</svg>
