<svg width="70" height="73" viewBox="0 0 70 73" fill="none" xmlns="http://www.w3.org/2000/svg">
<path d="M8.16651 46.667C7.47427 46.667 6.79758 46.8723 6.22201 47.2569C5.64644 47.6414 5.19783 48.1881 4.93293 48.8276C4.66802 49.4671 4.59871 50.1709 4.73376 50.8498C4.86881 51.5287 5.20215 52.1524 5.69163 52.6419C6.18112 53.1314 6.80476 53.4647 7.48369 53.5997C8.16262 53.7348 8.86636 53.6655 9.5059 53.4006C10.1454 53.1357 10.6921 52.6871 11.0767 52.1115C11.4612 51.5359 11.6665 50.8592 11.6665 50.167C11.6655 49.2391 11.2964 48.3494 10.6402 47.6933C9.98408 47.0371 9.09445 46.668 8.16651 46.667ZM8.16651 51.3337C7.93576 51.3337 7.7102 51.2652 7.51834 51.137C7.32648 51.0088 7.17695 50.8266 7.08865 50.6135C7.00034 50.4003 6.97724 50.1657 7.02226 49.9394C7.06727 49.7131 7.17839 49.5052 7.34155 49.342C7.50471 49.1789 7.71259 49.0678 7.9389 49.0227C8.16521 48.9777 8.39979 49.0008 8.61297 49.0891C8.82615 49.1774 9.00836 49.327 9.13656 49.5188C9.26475 49.7107 9.33317 49.9362 9.33317 50.167C9.33283 50.4763 9.2098 50.7729 8.99108 50.9916C8.77236 51.2103 8.47582 51.3333 8.16651 51.3337Z" fill="#181F3F"/>
<path d="M52.5 46.667C51.8078 46.667 51.1311 46.8723 50.5555 47.2569C49.9799 47.6414 49.5313 48.1881 49.2664 48.8276C49.0015 49.4671 48.9322 50.1709 49.0673 50.8498C49.2023 51.5287 49.5356 52.1524 50.0251 52.6419C50.5146 53.1314 51.1383 53.4647 51.8172 53.5997C52.4961 53.7348 53.1999 53.6655 53.8394 53.4006C54.4789 53.1357 55.0256 52.6871 55.4101 52.1115C55.7947 51.5359 56 50.8592 56 50.167C55.999 49.2391 55.6299 48.3494 54.9737 47.6933C54.3176 47.0371 53.4279 46.668 52.5 46.667ZM52.5 51.3337C52.2693 51.3337 52.0437 51.2652 51.8518 51.137C51.66 51.0088 51.5104 50.8266 51.4221 50.6135C51.3338 50.4003 51.3107 50.1657 51.3558 49.9394C51.4008 49.7131 51.5119 49.5052 51.675 49.342C51.8382 49.1789 52.0461 49.0678 52.2724 49.0227C52.4987 48.9777 52.7333 49.0008 52.9465 49.0891C53.1596 49.1774 53.3419 49.327 53.4701 49.5188C53.5982 49.7107 53.6667 49.9362 53.6667 50.167C53.6663 50.4763 53.5433 50.7729 53.3246 50.9916C53.1059 51.2103 52.8093 51.3333 52.5 51.3337Z" fill="#181F3F"/>
<path d="M60.6667 50.1667C60.6667 49.0825 60.4508 48.0092 60.0316 47.0093C59.6125 46.0095 58.9984 45.1031 58.2253 44.343C57.4522 43.5829 56.5354 42.9844 55.5286 42.5824C54.5217 42.1803 53.4449 41.9827 52.3609 42.0012C47.9345 42.0751 44.3333 45.7898 44.3333 50.2819V54.2012C41.1374 53.3313 36.4762 52.5 30.3333 52.5C24.1904 52.5 19.5292 53.3313 16.3333 54.2012V50.1667C16.3333 49.0676 16.1114 47.9797 15.681 46.9683C15.2505 45.957 14.6203 45.0429 13.8282 44.2809C13.036 43.519 12.0982 42.9247 11.0709 42.5339C10.0436 42.143 8.94792 41.9635 7.84959 42.0062C5.7971 42.0926 3.85194 42.9468 2.39932 44.3994C0.946709 45.852 0.0925787 47.7972 0.00608697 49.8497C-0.0717797 51.8667 0.599676 53.8411 1.89105 55.3924C3.18242 56.9438 5.00231 57.9623 6.99997 58.2516V63C7.00136 64.2373 7.49347 65.4235 8.36834 66.2983C9.24321 67.1732 10.4294 67.6653 11.6666 67.6667V71.1667C11.6666 71.4761 11.7896 71.7729 12.0083 71.9917C12.2271 72.2105 12.5239 72.3334 12.8333 72.3334H16.3333C16.55 72.3334 16.7623 72.273 16.9466 72.1591C17.1309 72.0452 17.2798 71.8823 17.3767 71.6885L19.3876 67.6667H41.279L43.2899 71.6885C43.3868 71.8823 43.5357 72.0452 43.72 72.1591C43.9043 72.273 44.1167 72.3334 44.3333 72.3334H47.8333C48.1427 72.3334 48.4395 72.2105 48.6583 71.9917C48.8771 71.7729 49 71.4761 49 71.1667V67.6667C50.2372 67.6653 51.4234 67.1732 52.2983 66.2983C53.1731 65.4235 53.6653 64.2373 53.6667 63V58.2502C55.6093 57.9672 57.3854 56.9949 58.6706 55.5108C59.9557 54.0267 60.6642 52.1299 60.6667 50.1667ZM15.6123 70.0001H14V67.6667H16.779L15.6123 70.0001ZM46.6666 70.0001H45.0543L43.8876 67.6667H46.6666V70.0001ZM52.5 56C52.1906 56 51.8938 56.123 51.675 56.3418C51.4562 56.5605 51.3333 56.8573 51.3333 57.1667V63C51.3326 63.6187 51.0865 64.2117 50.6491 64.6492C50.2117 65.0866 49.6186 65.3326 49 65.3334H11.6666C11.048 65.3326 10.455 65.0866 10.0175 64.6492C9.5801 64.2117 9.33403 63.6187 9.3333 63V57.1667C9.3333 56.8573 9.21038 56.5605 8.99159 56.3418C8.7728 56.123 8.47605 56 8.16663 56C7.38135 56.0001 6.60416 55.8415 5.88163 55.5339C5.1591 55.2263 4.50611 54.776 3.96181 54.21C3.41751 53.6439 2.9931 52.9738 2.71401 52.2398C2.43493 51.5058 2.30693 50.723 2.33767 49.9383C2.39949 48.4729 3.00933 47.0842 4.04644 46.0471C5.08355 45.01 6.47229 44.4001 7.93767 44.3383C8.72235 44.3075 9.50517 44.4354 10.2392 44.7144C10.9733 44.9934 11.6434 45.4178 12.2095 45.962C12.7756 46.5063 13.226 47.1592 13.5336 47.8817C13.8413 48.6042 13.9999 49.3814 14 50.1667V54.9209C12.1609 55.5625 11.1944 56.0937 11.0947 56.1498L12.2361 58.1849C12.2963 58.1514 18.4031 54.8334 30.3333 54.8334C42.2635 54.8334 48.3703 58.1514 48.428 58.1836L49.5719 56.1498C49.4722 56.0937 48.5058 55.562 46.6666 54.9209V50.2819C46.6666 47.0552 49.2386 44.387 52.3998 44.3342C53.17 44.3209 53.9352 44.4602 54.6513 44.7442C55.3674 45.0282 56.0201 45.4512 56.5718 45.9888C57.1236 46.5264 57.5633 47.168 57.8658 47.8765C58.1682 48.5849 58.3273 49.3463 58.334 50.1166C58.3406 50.8869 58.1945 51.6509 57.9043 52.3645C57.6141 53.078 57.1854 53.727 56.643 54.274C56.1006 54.821 55.4552 55.2552 54.7441 55.5514C54.033 55.8477 53.2703 56.0002 52.5 56Z" fill="#181F3F"/>
<path d="M9.33333 33.8337C9.33407 33.215 9.58014 32.622 10.0176 32.1846C10.455 31.7471 11.0481 31.5011 11.6667 31.5003H49C49.6186 31.5011 50.2117 31.7471 50.6491 32.1846C51.0866 32.622 51.3326 33.215 51.3334 33.8337V39.667H53.6667V33.8337C53.6653 32.5964 53.1732 31.4102 52.2983 30.5354C51.4234 29.6605 50.2373 29.1684 49 29.167H11.6667C10.4294 29.1684 9.24324 29.6605 8.36837 30.5354C7.4935 31.4102 7.00139 32.5964 7 33.8337V39.667H9.33333V33.8337Z" fill="#181F3F"/>
<path d="M23.3335 36.167H25.6668V38.5003H23.3335V36.167Z" fill="#181F3F"/>
<path d="M29.1665 42H31.4998V44.3333H29.1665V42Z" fill="#181F3F"/>
<path d="M17.5 42H19.8333V44.3333H17.5V42Z" fill="#181F3F"/>
<path d="M23.3335 47.833H25.6668V50.1663H23.3335V47.833Z" fill="#181F3F"/>
<path d="M35 36.167H37.3333V38.5003H35V36.167Z" fill="#181F3F"/>
<path d="M40.8335 42H43.1668V44.3333H40.8335V42Z" fill="#181F3F"/>
<path d="M35 47.833H37.3333V50.1663H35V47.833Z" fill="#181F3F"/>
<path d="M65.3334 0H32.6667C31.4294 0.00138956 30.2432 0.493501 29.3684 1.36837C28.4935 2.24324 28.0014 3.42942 28 4.66667V5.83334H30.3333V4.66667C30.3341 4.04806 30.5801 3.45499 31.0176 3.01756C31.455 2.58014 32.0481 2.33407 32.6667 2.33333H47.8333V26.8333H50.1667V2.33333H65.3334C65.952 2.33407 66.545 2.58014 66.9825 3.01756C67.4199 3.45499 67.666 4.04806 67.6667 4.66667V63C67.666 63.6186 67.4199 64.2117 66.9825 64.6491C66.545 65.0866 65.952 65.3326 65.3334 65.3334H54.8333V67.6667H57.6124L59.6232 71.6885C59.7201 71.8823 59.8691 72.0452 60.0534 72.1591C60.2377 72.273 60.45 72.3334 60.6667 72.3334H64.1667C64.4761 72.3334 64.7729 72.2105 64.9916 71.9917C65.2104 71.7729 65.3334 71.4761 65.3334 71.1667V67.6667C66.5706 67.6653 67.7568 67.1732 68.6317 66.2983C69.5065 65.4235 69.9986 64.2373 70 63V4.66667C69.9986 3.42942 69.5065 2.24324 68.6317 1.36837C67.7568 0.493501 66.5706 0.00138956 65.3334 0ZM63 70H61.3877L60.221 67.6667H63V70Z" fill="#181F3F"/>
<path d="M8.16662 24.4997H18.6666V26.833H21V24.4997H31.5C31.6614 24.4997 31.821 24.4662 31.9687 24.4013C32.1165 24.3365 32.2492 24.2417 32.3585 24.1229C32.4678 24.0042 32.5512 23.864 32.6035 23.7114C32.6559 23.5587 32.676 23.3969 32.6626 23.236L31.4959 9.23603C31.4716 8.94442 31.3385 8.6726 31.1232 8.47446C30.9079 8.27633 30.6259 8.16635 30.3333 8.16634H21V5.83301H18.6666V8.16634H9.33329C9.04067 8.16635 8.75873 8.27633 8.54339 8.47446C8.32805 8.6726 8.19503 8.94442 8.17071 9.23603L7.00404 23.236C6.99062 23.3969 7.01072 23.5587 7.06305 23.7114C7.11539 23.864 7.19883 24.0042 7.30809 24.1229C7.41735 24.2417 7.55007 24.3365 7.69784 24.4013C7.84562 24.4662 8.00524 24.4997 8.16662 24.4997ZM10.4068 10.4997H29.2598L30.2321 22.1664H9.4345L10.4068 10.4997Z" fill="#181F3F"/>
</svg>
