<svg width="14" height="16" viewBox="0 0 14 16" fill="none" xmlns="http://www.w3.org/2000/svg">
<path d="M13.5 15.9601H1.83337C0.822021 15.9601 0 15.1284 0 14.1051V1.62603C0 1.34676 0.223999 1.12012 0.5 1.12012C0.776001 1.12012 1 1.34676 1 1.62603V14.1051C1 14.5699 1.37402 14.9483 1.83337 14.9483H13V2.97504C13 2.69578 13.224 2.46913 13.5 2.46913C13.776 2.46913 14 2.69578 14 2.97504V15.4542C14 15.7335 13.776 15.9601 13.5 15.9601Z" fill="#7a9db8"/>
<path fill-rule="evenodd" clip-rule="evenodd" d="M1.83337 3.64H13.5C13.776 3.64 14 3.41763 14 3.14363C14 2.86963 13.776 2.64726 13.5 2.64726H12.6666V0.496369C12.6666 0.222372 12.4426 0 12.1666 0H1.83337C0.822021 0 0 0.816052 0 1.82006C0 2.82407 0.822021 3.64 1.83337 3.64ZM1 1.82006C1 1.36405 1.37402 0.992738 1.83337 0.992738H11.6666V2.64726H1.83337C1.37402 2.64726 1 2.27608 1 1.82006Z" fill="#7a9db8"/>
<path fill-rule="evenodd" clip-rule="evenodd" d="M2.52002 9.3801C2.52002 11.7731 4.46708 13.72 6.86002 13.72C9.25296 13.72 11.2 11.7731 11.2 9.3801C11.2 6.98701 9.25296 5.04004 6.86002 5.04004C4.46708 5.04004 2.52002 6.98701 2.52002 9.3801ZM3.52155 9.3801C3.52155 7.53925 5.0192 6.04158 6.86002 6.04158C8.70084 6.04158 10.1985 7.53925 10.1985 9.3801C10.1985 11.2209 8.70084 12.7185 6.86002 12.7185C5.0192 12.7185 3.52155 11.2209 3.52155 9.3801Z" fill="#7a9db8"/>
<path d="M8.22798 10.92C8.11225 10.92 7.9964 10.8723 7.90838 10.7763L6.85285 9.63291C6.76781 9.5408 6.72021 9.41662 6.72021 9.28671V7.49C6.72021 7.21952 6.92286 7 7.17256 7C7.42225 7 7.6249 7.21952 7.6249 7.49V9.08346L8.54769 10.0831C8.72439 10.2745 8.72439 10.5848 8.54769 10.7763C8.45957 10.8723 8.34383 10.92 8.22798 10.92Z" fill="#7a9db8"/>
</svg>
