<svg width="14" height="15" viewBox="0 0 14 15" fill="none" xmlns="http://www.w3.org/2000/svg">
<path fill-rule="evenodd" clip-rule="evenodd" d="M0 14.5C0 14.6841 0.149238 14.8333 0.333333 14.8333H13.6667C13.8508 14.8333 14 14.6841 14 14.5V4.83334C14 4.70708 13.9287 4.59166 13.8157 4.53519C13.7028 4.47873 13.5677 4.49091 13.4667 4.56667L7 9.41667L0.533333 4.56667C0.432327 4.49091 0.29719 4.47873 0.184262 4.53519C0.0713341 4.59166 0 4.70708 0 4.83334V14.5ZM13.3333 5.5V14.1667H0.666667V5.5L6.8 10.1C6.91852 10.1889 7.08148 10.1889 7.2 10.1L13.3333 5.5Z" fill="#7a9db8"/>
<path d="M6.99987 10.1662C6.92775 10.1662 6.85757 10.1429 6.79987 10.0996L0.133206 5.09958C0.0477798 5.03545 -0.00173473 4.93426 4.64688e-05 4.82745C0.00182767 4.72065 0.0546888 4.62116 0.142206 4.55992L1.80887 3.39325C1.90627 3.32063 2.03546 3.30676 2.14606 3.35703C2.25665 3.40731 2.33114 3.51377 2.34046 3.6349C2.34979 3.75603 2.29247 3.87264 2.19087 3.93925L0.899872 4.84225L6.99987 9.41625L13.0999 4.84225L11.8102 3.93925C11.7086 3.87264 11.6513 3.75603 11.6606 3.6349C11.6699 3.51377 11.7444 3.40731 11.855 3.35703C11.9656 3.30676 12.0948 3.32063 12.1922 3.39325L13.8589 4.55992C13.9462 4.62138 13.9988 4.72099 14.0004 4.82779C14.0019 4.9346 13.9521 5.03566 13.8665 5.09958L7.19987 10.0996C7.14217 10.1429 7.072 10.1662 6.99987 10.1662Z" fill="#7a9db8"/>
<path d="M11.9186 6.27306C11.7345 6.27306 11.6665 6.26743 11.6665 6.08333V1.16667H2.33317V6.08333C2.33317 6.26743 2.18393 6.41667 1.99984 6.41667C1.81574 6.41667 1.6665 6.26743 1.6665 6.08333V0.833333C1.6665 0.649238 1.81574 0.5 1.99984 0.5H11.9998C12.1839 0.5 12.3332 0.649238 12.3332 0.833333V6.08333C12.3332 6.26743 12.1027 6.27306 11.9186 6.27306Z" fill="#7a9db8"/>
<path d="M1.99978 11.8335C1.86498 11.8334 1.74346 11.7522 1.69188 11.6277C1.6403 11.5031 1.66881 11.3598 1.76411 11.2645L4.76411 8.26447C4.8949 8.13815 5.1028 8.13995 5.23138 8.26853C5.35996 8.39711 5.36177 8.60501 5.23544 8.7358L2.23544 11.7358C2.17294 11.7983 2.08817 11.8335 1.99978 11.8335Z" fill="#7a9db8"/>
<path d="M11.9998 11.8331C11.9114 11.8331 11.8266 11.7979 11.7641 11.7354L8.66877 8.6401C8.54244 8.50931 8.54425 8.3014 8.67283 8.17283C8.8014 8.04425 9.00931 8.04244 9.1401 8.16877L12.2354 11.2641C12.3307 11.3594 12.3592 11.5028 12.3077 11.6273C12.2561 11.7519 12.1346 11.8331 11.9998 11.8331Z" fill="#7a9db8"/>
<path d="M8.99984 3.83366H4.99984C4.81574 3.83366 4.6665 3.68442 4.6665 3.50033C4.6665 3.31623 4.81574 3.16699 4.99984 3.16699H8.99984C9.18393 3.16699 9.33317 3.31623 9.33317 3.50033C9.33317 3.68442 9.18393 3.83366 8.99984 3.83366Z" fill="#7a9db8"/>
<path d="M8.99984 6.49967H4.99984C4.81574 6.49967 4.6665 6.35044 4.6665 6.16634C4.6665 5.98225 4.81574 5.83301 4.99984 5.83301H8.99984C9.18393 5.83301 9.33317 5.98225 9.33317 6.16634C9.33317 6.35044 9.18393 6.49967 8.99984 6.49967Z" fill="#7a9db8"/>
</svg>
