<svg width="18" height="21" viewBox="0 0 18 21" fill="none" xmlns="http://www.w3.org/2000/svg">
<path d="M11.6357 1.91582C11.3528 1.68439 11.07 1.45297 10.8 1.20868C10.4914 0.912966 10.4143 0.565823 10.7485 0.244394C11.0443 -0.0513198 11.3785 0.000108778 11.6614 0.282966C12.3428 0.951537 13.0114 1.62011 13.68 2.30154C13.9885 2.62297 13.9757 2.98297 13.6671 3.29154C13.0243 3.96011 12.3685 4.60297 11.7 5.25868C11.4043 5.55439 11.0571 5.63154 10.7228 5.31011C10.3885 4.96297 10.5171 4.62868 10.8128 4.34582C11.07 4.08868 11.3528 3.85725 11.6228 3.62582C11.5843 3.56154 11.5585 3.49725 11.52 3.44582C10.4271 3.44582 9.33426 3.44582 8.24141 3.44582C7.79141 3.44582 7.34141 3.42011 7.31569 2.84154C7.30283 2.22439 7.76569 2.16011 8.25426 2.16011C9.33426 2.16011 10.4143 2.16011 11.4943 2.16011C11.5585 2.05725 11.5971 1.99297 11.6357 1.91582Z" fill="#333333"/>
<path fill-rule="evenodd" clip-rule="evenodd" d="M5.28418 18.4113C5.28418 17.3313 6.22275 16.3928 7.31561 16.4185C8.36989 16.4442 9.28275 17.3828 9.25704 18.4242C9.24418 19.4528 8.29275 20.3913 7.26418 20.3913C6.23561 20.3913 5.29704 19.4528 5.28418 18.4113ZM6.58275 18.4242C6.58275 18.8485 6.87847 19.1185 7.28989 19.1056C7.71418 19.0928 7.94561 18.8099 7.99704 18.3856C7.91989 17.9871 7.68847 17.7042 7.26418 17.7171C6.83989 17.7299 6.56989 17.9999 6.58275 18.4242Z" fill="#333333"/>
<path fill-rule="evenodd" clip-rule="evenodd" d="M11.957 18.3985C11.957 17.2928 12.8956 16.3928 14.0013 16.4185C15.0427 16.4442 15.9556 17.4085 15.9299 18.4371C15.9042 19.4785 14.9399 20.4042 13.9113 20.3914C12.8699 20.3785 11.957 19.4528 11.957 18.3985ZM13.2556 18.4371C13.2685 18.8871 13.5642 19.0671 13.9627 19.1185C14.3742 19.0285 14.657 18.7842 14.6442 18.3599C14.6056 17.9614 14.3485 17.6785 13.9113 17.7042C13.487 17.7299 13.2427 17.9999 13.2556 18.4371Z" fill="#333333"/>
<path d="M12.2529 13.5773C12.7158 13.6415 12.9343 13.3587 12.9729 12.9344C13.0629 12.1244 13.1529 11.3015 13.2429 10.4915C13.2943 10.0158 13.2686 9.5144 12.6643 9.47583C12.0729 9.43726 11.9829 9.91297 11.9443 10.4015C11.8801 11.1858 11.7643 11.983 11.6872 12.7673C11.6615 13.1658 11.7901 13.513 12.2529 13.5773Z" fill="#333333"/>
<path d="M9.46318 12.3302C9.38603 11.5973 9.3346 10.8645 9.2446 10.1188C9.20603 9.74591 9.00032 9.4502 8.58889 9.4502C8.22889 9.4502 7.95889 9.66877 7.9846 10.0416C8.06175 11.0702 8.1646 12.0859 8.29318 13.1145C8.3446 13.4873 8.64032 13.6288 9.00032 13.5773C9.34746 13.5259 9.48889 13.2816 9.5146 12.9602C9.5146 12.7545 9.47603 12.5359 9.46318 12.3302C9.45032 12.3302 9.45032 12.3302 9.46318 12.3302Z" fill="#333333"/>
<path fill-rule="evenodd" clip-rule="evenodd" d="M6.37724 7.04606H16.7915C17.8201 7.04606 18.0515 7.31606 17.8072 8.28035C17.5924 9.11565 17.3723 9.94918 17.1522 10.7829C16.7793 12.1949 16.4063 13.6076 16.0587 15.0303C15.8787 15.7503 15.5315 16.0332 14.7858 16.0075C13.8043 15.9715 12.8166 15.9796 11.8313 15.9877C11.4098 15.9912 10.9886 15.9946 10.5687 15.9946C10.1612 15.9946 9.75373 15.9898 9.34625 15.9849C8.42944 15.9739 7.51263 15.963 6.59581 16.0075C5.73438 16.0589 5.32295 15.7503 5.11724 14.8889C4.73832 13.3312 4.3326 11.781 3.92724 10.2323C3.58986 8.94334 3.25274 7.65531 2.93153 6.36463C2.81581 5.8632 2.6101 5.72177 2.13438 5.76035C1.81295 5.7879 1.49153 5.78265 1.1701 5.7774C1.04153 5.7753 0.912954 5.7732 0.784383 5.7732C0.360097 5.7732 0.0386685 5.63177 0.0258113 5.15606C0.0129542 4.6932 0.295811 4.50035 0.732954 4.50035H3.11153C3.65153 4.48749 3.84438 4.83463 3.97295 5.27177C4.02567 5.45425 4.05409 5.66103 4.08241 5.8671C4.14387 6.3144 4.20488 6.75836 4.51295 6.9432C4.85625 7.14733 5.34685 7.11041 5.83014 7.07404C6.01655 7.06001 6.20188 7.04606 6.37724 7.04606ZM14.3615 14.7089C14.683 14.7089 14.8244 14.6189 14.9015 14.2975C15.31 12.653 15.7454 11.0084 16.1927 9.31881C16.2805 8.98736 16.3687 8.65418 16.4572 8.31892C12.6644 8.31892 8.93581 8.31892 5.20724 8.30606C4.78295 8.30606 4.80867 8.48606 4.88581 8.79463C5.36153 10.6075 5.83724 12.4332 6.3001 14.2461C6.37724 14.5803 6.51867 14.7089 6.89153 14.7089C9.38581 14.6961 11.8672 14.6961 14.3615 14.7089Z" fill="#333333"/>
</svg>
